<svg width="43" height="43" viewBox="0 0 43 43" fill="none" xmlns="http://www.w3.org/2000/svg">
<rect width="43" height="43" fill="#01432B"/>
<path d="M27.5844 21.2285C27.4602 21.3099 27.2946 21.3505 27.1704 21.2081L27.2946 20.9844C27.2946 20.9844 27.4602 20.9437 27.5844 20.9844V21.2081V21.2285ZM23.9825 24.2598L23.8169 24.3005V24.2191C23.8169 24.036 23.8997 23.9139 23.9618 23.8122C24.086 23.7308 24.2309 23.7512 24.2102 23.8732L23.9825 24.2394V24.2598ZM22.7611 26.3552C22.6162 26.3552 22.5127 26.2942 22.5127 26.1518C22.6162 25.989 22.6783 25.8873 22.8646 25.928C22.9475 26.0501 23.0303 26.1518 22.9889 26.2128L22.7611 26.3756V26.3552ZM22.1194 24.7074C21.8917 24.5853 21.9331 24.3818 22.0366 24.2394C22.1608 24.0156 22.4299 23.9546 22.5955 24.0563C22.7197 24.1987 22.7818 24.3615 22.699 24.626C22.5955 24.7887 22.3471 24.8498 22.1194 24.7277M21.4363 26.2739C21.3328 26.4366 21.2293 26.518 21.0016 26.3959C20.8774 26.2535 20.7325 26.1111 20.8567 25.8873C20.9602 25.7246 21.1258 25.6839 21.2914 25.7653C21.5191 25.8873 21.5191 26.1111 21.4363 26.2739ZM26.0939 19.9468V19.8044L26.3631 19.8654L26.4045 20.0282C26.301 19.9671 26.2182 19.9875 26.0939 19.9264M24.9347 19.9264C24.7691 19.8247 24.6863 19.723 24.6449 19.5399C24.707 19.4382 24.7691 19.3161 24.8726 19.3975C25.0589 19.4382 25.2245 19.5196 25.1417 19.6823C25.1417 19.8247 24.9968 19.8044 24.9347 19.9264ZM22.3057 21.9405C22.1815 21.7981 22.1815 21.6557 22.2436 21.554H22.5334C22.5334 21.554 22.5955 21.8185 22.5955 21.9609C22.4506 21.9609 22.3678 21.9609 22.3057 21.9609M21.9124 23.0188C21.8089 22.9577 21.7882 22.8764 21.664 22.8153C21.7882 22.734 21.8917 22.6729 21.9952 22.6322C22.1401 22.6322 22.1608 22.734 22.1608 22.856L21.9331 22.9984L21.9124 23.0188ZM29.551 17.7496C29.551 17.7496 29.7166 17.7089 29.8408 17.7496C30.0064 17.8513 30.0064 17.9734 29.9029 18.1362C29.758 18.2582 29.6131 18.2582 29.5303 18.1362C29.4061 17.9937 29.4061 17.8513 29.551 17.7293M30.1306 19.4789H29.9029L29.8615 19.3161L29.9857 19.2347C30.0685 19.3568 30.1099 19.3772 30.1306 19.4585M29.1369 22.6729H29.0541C28.9299 22.4898 28.8678 22.3271 28.8885 22.1847C28.8885 22.0423 29.2818 21.8998 29.4475 22.0016C29.5303 21.7981 29.6338 21.615 29.7166 21.4116C30.3376 19.8247 30.7102 18.1972 30.9379 16.529C30.9586 16.3662 30.9793 16.1831 31 16C30.8965 16.1831 30.793 16.3662 30.6895 16.529C30.3376 17.0376 29.8201 17.3427 29.2611 17.6072C28.4331 17.9937 27.5637 18.1972 26.6736 18.4413C25.6385 18.7261 24.5828 18.9906 23.5685 19.2958C22.5955 19.6009 21.664 20.0078 20.836 20.6182C20.1529 21.1064 19.5939 21.7167 19.1799 22.4491C18.8073 23.1002 18.6003 23.7919 18.4761 24.5039C18.4347 24.748 18.414 25.0125 18.3933 25.2567H18.4347C18.9108 24.4225 19.5939 23.8936 20.4427 23.507C21.1258 23.2019 21.8503 22.9781 22.5748 22.7746C23.4029 22.5305 24.2516 22.2864 25.0382 21.9405C25.3694 21.7981 25.6385 21.5947 25.949 21.4116L25.8869 21.2081C26.0318 21.0861 26.1354 21.1471 26.2596 21.2081C26.8599 20.8216 27.4395 20.374 27.9156 19.8044L27.9984 19.7433V19.8247C27.6879 20.3944 27.2946 20.903 26.8185 21.3505C25.8662 22.266 24.7277 22.856 23.5064 23.3036C22.9682 23.507 22.4299 23.6901 21.9124 23.8936C21.2086 24.1581 20.5462 24.5243 19.9252 24.9515C19.2627 25.3991 18.7659 25.9687 18.4347 26.6808C18.207 27.2097 18.0828 27.7793 18.0414 28.349C18.0414 28.5524 18.0207 28.7762 18 29H19.1178C19.1178 28.2269 19.2213 27.4742 19.5939 26.7621L19.7182 26.8028C20.836 27.1487 21.9538 27.3318 23.1338 27.23C23.8169 27.169 24.4793 27.0266 25.1003 26.7621C26.2803 26.2739 27.2118 25.4804 27.9984 24.4836C28.4538 23.9139 28.8057 23.3036 29.1162 22.6526" fill="#A4CD39"/>
<path d="M15.6271 18.0219C15.7226 18.0845 15.85 18.1158 15.9455 18.0063L15.85 17.8341C15.85 17.8341 15.7226 17.8028 15.6271 17.8341V18.0063V18.0219ZM18.3978 20.3537L18.5252 20.385V20.3224C18.5252 20.1815 18.4615 20.0876 18.4137 20.0094C18.3182 19.9468 18.2067 19.9624 18.2226 20.0563L18.3978 20.338V20.3537ZM19.8309 20.698C20.0061 20.6041 19.9742 20.4476 19.8946 20.338C19.799 20.1659 19.592 20.1189 19.4647 20.1972C19.3691 20.3067 19.3213 20.4319 19.385 20.6354C19.4647 20.7606 19.6557 20.8075 19.8309 20.7136M16.7736 17.036V16.9264L16.5666 16.9734L16.5347 17.0986C16.6143 17.0516 16.678 17.0673 16.7736 17.0203M17.6653 17.0203C17.7927 16.9421 17.8564 16.8638 17.8882 16.723C17.8404 16.6448 17.7927 16.5509 17.7131 16.6135C17.5697 16.6448 17.4424 16.7074 17.5061 16.8326C17.5061 16.9421 17.6175 16.9264 17.6653 17.0203ZM19.6876 18.5696C19.7831 18.4601 19.7831 18.3505 19.7354 18.2723H19.5124C19.5124 18.2723 19.4647 18.4757 19.4647 18.5853C19.5761 18.5853 19.6398 18.5853 19.6876 18.5853M19.9901 19.3991C20.0697 19.3521 20.0857 19.2895 20.1812 19.2426C20.0857 19.18 20.0061 19.133 19.9264 19.1017C19.815 19.1017 19.799 19.18 19.799 19.2739L19.9742 19.3834L19.9901 19.3991ZM14.1143 15.3459C14.1143 15.3459 13.9869 15.3146 13.8914 15.3459C13.764 15.4241 13.764 15.518 13.8436 15.6432C13.9551 15.7371 14.0666 15.7371 14.1303 15.6432C14.2258 15.5336 14.2258 15.4241 14.1143 15.3302M13.6685 16.6761H13.8436L13.8755 16.5509L13.7799 16.4883C13.7162 16.5822 13.6844 16.5978 13.6685 16.6604M14.4328 19.133H14.4965C14.592 18.9922 14.6398 18.867 14.6239 18.7574C14.6239 18.6479 14.3213 18.5383 14.194 18.6166C14.1303 18.4601 14.0506 18.3192 13.9869 18.1628C13.5092 16.9421 13.2226 15.6901 13.0475 14.4069C13.0315 14.2817 13.0156 14.1408 12.9997 14C13.0793 14.1408 13.1589 14.2817 13.2385 14.4069C13.5092 14.7981 13.9073 15.0329 14.3373 15.2363C14.9742 15.5336 15.643 15.6901 16.3277 15.8779C17.1239 16.097 17.936 16.3005 18.7162 16.5352C19.4647 16.77 20.1812 17.0829 20.8182 17.5524C21.3436 17.928 21.7736 18.3975 22.092 18.9609C22.1239 19.1487 21.1048 19.5869 21.1207 19.7746C20.5952 19.5399 20.0379 19.3678 19.4806 19.2113C18.8436 19.0235 18.1908 18.8357 17.5857 18.5696C17.3309 18.4601 17.1239 18.3036 16.885 18.1628L16.9328 18.0063C16.8213 17.9124 16.7417 17.9593 16.6462 18.0063C16.1844 17.7089 15.7385 17.3646 15.3723 16.9264L15.3086 16.8795V16.9421C15.5475 17.3803 15.85 17.7715 16.2162 18.1158C16.9487 18.82 17.8245 19.2739 18.764 19.6182C19.178 19.7746 19.592 19.9155 19.9901 20.072C20.1139 20.1185 20.236 20.1691 20.3564 20.2234C19.5 21 18.5096 22.3963 18.5255 22.5685C18.6205 22.5814 18.4294 22.5599 18.5255 22.5685C18.6047 22.5828 18.4455 22.5575 18.5255 22.5685C18.1856 22.507 17.8545 22.4134 17.5379 22.2786C16.6303 21.903 15.9137 21.2926 15.3086 20.5258C14.9583 20.0876 14.6876 19.6182 14.4487 19.1174" fill="#A4CD39"/>
<circle cx="21.5" cy="21.5" r="15.25" stroke="#A4CD39" stroke-width="0.5"/>
<circle cx="21.5" cy="21.5" r="17" stroke="#A4CD39"/>
</svg>
