<svg width="151" height="46" viewBox="0 0 151 46" fill="none" xmlns="http://www.w3.org/2000/svg">
<g clip-path="url(#clip0_410_143319)">
<path d="M63.1098 36.5804C63.749 36.5804 64.2596 36.7539 64.6456 37.1052C65.0316 37.4564 65.2226 37.9177 65.2226 38.4932C65.2226 39.0687 65.0316 39.5385 64.6456 39.8812C64.2596 40.224 63.749 40.3975 63.1098 40.3975H62.8524V42.1368H61.6777V36.5762H63.1098V36.5804ZM63.0766 39.3523C63.7034 39.3523 64.0188 39.0645 64.0188 38.4932C64.0188 38.235 63.94 38.0319 63.7781 37.8923C63.6162 37.7526 63.3837 37.6807 63.0766 37.6807H62.8524V39.348H63.0766V39.3523Z" fill="#D7A45C"/>
<path d="M66.6757 36.5801H67.9376L69.3489 42.1407H68.1949L67.9625 41.0827H66.6632L66.4225 42.1407H65.2686L66.6798 36.5801H66.6757ZM67.7508 40.101L67.3066 38.1374L66.8625 40.101H67.7508Z" fill="#D7A45C"/>
<path d="M70.1912 37.2064C70.5482 36.7155 71.0256 36.4658 71.6233 36.4658C72.2833 36.4658 72.7897 36.724 73.1425 37.2445L72.3621 38.0062C72.1629 37.7142 71.9346 37.5703 71.6772 37.5703C71.121 37.5703 70.8429 38.167 70.8429 39.3646C70.8429 40.5622 71.121 41.1378 71.6772 41.1378C71.9512 41.1378 72.1878 40.9939 72.387 40.7019L73.1425 41.4721C72.7897 41.9926 72.2833 42.2507 71.6233 42.2507C71.0256 42.2507 70.5482 42.0053 70.1871 41.5059C69.8259 41.0108 69.6475 40.2956 69.6475 39.3646C69.6475 38.4336 69.8301 37.7015 70.1912 37.2022V37.2064Z" fill="#D7A45C"/>
<path d="M73.8232 36.5801H74.9979V38.5733L76.1602 36.5801H77.5009L76.0273 39.0049L77.5715 42.1407H76.2764L75.3259 40.1856L74.9979 40.7103V42.1407H73.8232V36.5801Z" fill="#D7A45C"/>
<path d="M79.4931 36.5801H80.7549L82.1662 42.1407H81.0123L80.7798 41.0827H79.4806L79.2399 42.1407H78.0859L79.4972 36.5801H79.4931ZM80.5682 40.101L80.124 38.1374L79.6799 40.101H80.5682Z" fill="#D7A45C"/>
<path d="M83.0335 37.2145C83.4071 36.7152 83.8969 36.4697 84.4988 36.4697C85.1006 36.4697 85.6029 36.7279 86.0802 37.2484L85.3082 38.0101C85.0799 37.7181 84.8308 37.5742 84.561 37.5742C84.3161 37.5742 84.1044 37.7097 83.9301 37.9763C83.7516 38.2429 83.6644 38.7084 83.6644 39.3685C83.6644 40.0287 83.7516 40.5196 83.9259 40.7947C84.1003 41.0655 84.312 41.2051 84.561 41.2051C84.7105 41.2051 84.8433 41.1586 84.9595 41.0613V39.8637H84.3991V38.8692H86.0802V41.476C85.9101 41.7299 85.6818 41.9246 85.4037 42.0557C85.1214 42.1869 84.8225 42.2546 84.4988 42.2546C83.8844 42.2546 83.3946 42.0092 83.0211 41.5098C82.6516 41.0147 82.4648 40.2995 82.4648 39.3685C82.4648 38.4375 82.6558 37.7139 83.0335 37.2145Z" fill="#D7A45C"/>
<path d="M86.9277 36.5801H89.6715V37.6846H88.1066V38.8356H89.4058V39.8851H88.1066V41.0277H89.6715V42.1407H86.9277V36.5801Z" fill="#D7A45C"/>
<path d="M90.4883 36.5804H92.0158C92.6177 36.5804 93.1324 36.8301 93.5558 37.3294C93.9792 37.8288 94.1908 38.5101 94.1908 39.3649C94.1908 40.2198 93.9792 40.8926 93.5558 41.392C93.1324 41.8914 92.6177 42.1368 92.0158 42.1368H90.4883V36.5762V36.5804ZM91.8996 41.0281C92.2067 41.0281 92.4641 40.8842 92.6758 40.5964C92.8875 40.3086 92.9912 39.8982 92.9912 39.3692C92.9912 38.8402 92.8875 38.4212 92.6758 38.125C92.4641 37.833 92.2067 37.6849 91.8996 37.6849H91.6671V41.0281H91.8996Z" fill="#D7A45C"/>
<path d="M96.7852 36.5804H98.3127C98.9146 36.5804 99.4293 36.8301 99.8526 37.3294C100.276 37.8288 100.488 38.5101 100.488 39.3649C100.488 40.2198 100.276 40.8926 99.8526 41.392C99.4293 41.8914 98.9146 42.1368 98.3127 42.1368H96.7852V36.5762V36.5804ZM98.1965 41.0281C98.5036 41.0281 98.761 40.8842 98.9727 40.5964C99.1844 40.3086 99.2881 39.8982 99.2881 39.3692C99.2881 38.8402 99.1844 38.4212 98.9727 38.125C98.761 37.833 98.5036 37.6849 98.1965 37.6849H97.964V41.0281H98.1965Z" fill="#D7A45C"/>
<path d="M102.737 36.5801C103.377 36.5801 103.887 36.7536 104.273 37.1006C104.659 37.4476 104.85 37.9089 104.85 38.4886C104.85 39.2546 104.514 39.7793 103.837 40.0629L105.029 42.1449H103.713L102.725 40.3252H102.468V42.1449H101.293V36.5843H102.742L102.737 36.5801ZM102.704 39.335C103.007 39.335 103.24 39.2588 103.402 39.1107C103.563 38.9626 103.647 38.7552 103.647 38.4844C103.647 37.9512 103.331 37.6804 102.704 37.6804H102.464V39.3308H102.704V39.335Z" fill="#D7A45C"/>
<path d="M106.914 42.1407H105.739V36.5801H106.914V42.1407Z" fill="#D7A45C"/>
<path d="M107.831 36.5801H108.96L110.268 39.5127V36.5801H111.442V42.1407H110.322L109.006 39.2419V42.1407H107.831V36.5801Z" fill="#D7A45C"/>
<path d="M112.368 36.5801H113.543V38.5733L114.705 36.5801H116.046L114.572 39.0049L116.116 42.1407H114.821L113.871 40.1856L113.543 40.7103V42.1407H112.368V36.5801Z" fill="#D7A45C"/>
<path d="M118.038 42.1407H116.863V36.5801H118.038V42.1407Z" fill="#D7A45C"/>
<path d="M118.96 36.5801H120.089L121.397 39.5127V36.5801H122.571V42.1407H121.45L120.135 39.2419V42.1407H118.96V36.5801Z" fill="#D7A45C"/>
<path d="M123.945 37.2145C124.318 36.7152 124.808 36.4697 125.41 36.4697C126.012 36.4697 126.514 36.7279 126.991 37.2484L126.219 38.0101C125.991 37.7181 125.742 37.5742 125.472 37.5742C125.227 37.5742 125.016 37.7097 124.841 37.9763C124.663 38.2429 124.576 38.7084 124.576 39.3685C124.576 40.0287 124.663 40.5196 124.837 40.7947C125.011 41.0655 125.223 41.2051 125.472 41.2051C125.622 41.2051 125.754 41.1586 125.871 41.0613V39.8637H125.31V38.8692H126.991V41.476C126.821 41.7299 126.593 41.9246 126.315 42.0557C126.033 42.1869 125.734 42.2546 125.41 42.2546C124.796 42.2546 124.306 42.0092 123.932 41.5098C123.563 41.0147 123.376 40.2995 123.376 39.3685C123.376 38.4375 123.567 37.7139 123.945 37.2145Z" fill="#D7A45C"/>
<path d="M129.398 36.5801H130.573L131.167 39.8471L131.877 36.5674H132.798L133.508 39.8471L134.101 36.5801H135.276L134.068 42.1407H133.147L132.337 38.4463L131.536 42.1407H130.615L129.398 36.5801Z" fill="#D7A45C"/>
<path d="M136.593 36.5801H137.855L139.266 42.1407H138.112L137.879 41.0827H136.58L136.339 42.1407H135.186L136.597 36.5801H136.593ZM137.668 40.101L137.224 38.1374L136.779 40.101H137.668Z" fill="#D7A45C"/>
<path d="M139.216 36.5801H142.628V37.6846H141.515V42.1407H140.341V37.6846H139.22V36.5801H139.216Z" fill="#D7A45C"/>
<path d="M143.399 36.5801H146.143V37.6846H144.578V38.8356H145.877V39.8851H144.578V41.0277H146.143V42.1407H143.399V36.5801Z" fill="#D7A45C"/>
<path d="M148.41 36.5801C149.05 36.5801 149.56 36.7536 149.946 37.1006C150.332 37.4476 150.523 37.9089 150.523 38.4886C150.523 39.2546 150.187 39.7793 149.51 40.0629L150.702 42.1449H149.386L148.398 40.3252H148.141V42.1449H146.966V36.5843H148.414L148.41 36.5801ZM148.381 39.335C148.684 39.335 148.917 39.2588 149.079 39.1107C149.24 38.9626 149.324 38.7552 149.324 38.4844C149.324 37.9512 149.008 37.6804 148.381 37.6804H148.141V39.3308H148.381V39.335Z" fill="#D7A45C"/>
<path d="M56.6593 28.2641C57.4273 27.5658 58.2076 26.8803 58.9589 26.1609C60.7521 24.4428 62.4415 22.6315 63.6618 20.431C63.9981 19.8258 64.2056 19.1445 64.4298 18.4801C64.7452 17.5322 64.9901 17.3248 65.9739 17.3164C66.1814 17.3164 66.3931 17.3164 66.6007 17.3333C68.0327 17.4433 68.5433 18.1204 68.0784 19.4873C67.3976 21.4847 66.6173 23.4525 65.8867 25.433C65.7124 25.907 65.5588 26.3936 65.5463 26.9565C66.0776 26.2963 66.5882 25.615 67.1444 24.976C68.7633 23.1055 70.3406 21.1842 72.3828 19.7708C72.8436 19.4534 73.5035 19.3011 74.0681 19.3095C75.0933 19.3265 75.579 20.1728 75.5001 21.2223C75.3382 23.406 75.222 25.598 75.1846 27.7859C75.1722 28.5773 75.2801 29.4659 76.2639 29.796C77.0774 30.0711 77.6585 29.5971 78.2065 29.1443C79.4268 28.1329 80.2902 26.8253 81.0456 25.433C81.9007 23.8545 82.6603 22.1957 83.698 20.7441C85.0678 18.8313 86.8319 17.456 89.3847 17.5999C91.7715 17.7353 92.4315 19.8597 92.1492 21.5524C92.0205 22.3268 91.6968 22.9912 91.0036 23.4017C90.2938 23.8207 89.9243 23.6049 89.8828 22.7881C89.8538 22.2295 89.8704 21.6455 89.7002 21.1292C89.4387 20.3506 88.8949 20.2194 88.2142 20.6807C87.0519 21.4678 86.0972 22.513 85.5452 23.7826C84.8852 25.2976 84.4493 26.9141 83.9678 28.5053C83.806 29.0428 83.7437 29.7072 84.2543 30.0796C84.8022 30.4773 85.375 30.1303 85.8565 29.796C87.1972 28.8735 87.8987 27.4643 88.6085 26.0508C88.8285 25.615 89.1357 25.1283 89.5342 24.8956C90.1941 24.5105 90.9413 24.6332 91.5556 25.1198C92.1201 25.5684 91.8005 26.2117 91.7881 26.7703C91.7715 27.3796 91.6469 27.989 91.676 28.5942C91.7217 29.5167 92.2073 29.9145 93.0624 29.6267C93.768 29.3898 94.4654 29.0004 95.0465 28.5307C96.9351 27.0157 98.143 24.9506 99.4007 22.9024C100.692 20.7907 100.451 18.7382 99.5709 16.6435C99.1268 15.594 98.5664 14.5868 97.9812 13.6093C97.8483 13.385 97.3793 13.2157 97.1012 13.258C93.6767 13.7785 90.2606 14.3541 86.8402 14.8873C84.6943 15.2216 82.5441 15.5136 80.394 15.7971C76.8782 16.2584 73.3541 16.5292 69.8134 16.1865C68.9957 16.106 68.1614 15.9114 67.4059 15.5898C65.6044 14.8238 65.4094 12.6825 66.8289 11.3198C68.9293 9.29703 71.5194 8.40412 74.2299 7.91746C78.8332 7.09225 83.4864 7.21497 88.1063 7.75665C90.5926 8.04864 93.0665 8.57339 95.3993 9.58057C96.0136 9.84717 96.6404 10.1138 97.2049 10.4692C97.7404 10.8078 98.2634 10.8586 98.857 10.7697C100.156 10.575 101.468 10.4396 102.767 10.228C102.995 10.1899 103.327 9.92758 103.361 9.72445C103.651 8.01479 103.9 6.29667 104.129 4.57431C104.17 4.26116 104.066 3.93107 104.025 3.54174C105.067 3.26667 106.133 3.05508 107.209 3.30476C107.976 3.48673 108.267 4.21884 108.221 4.90016C108.134 6.22896 107.893 7.54506 107.698 8.86539C107.648 9.20393 107.532 9.52978 107.424 9.9572C108.392 9.91488 109.263 9.8641 110.131 9.84294C113.252 9.76677 116.374 9.63558 119.491 9.65674C121.558 9.66943 123.625 9.89795 125.692 10.0334C126.68 10.0968 127.676 10.1307 128.66 10.245C130.682 10.4777 132.691 10.7909 134.455 11.9419C135.297 12.4921 135.895 13.2623 136.19 14.2483C136.572 15.5348 135.385 16.9609 134.119 16.7535C134.351 15.1327 133.305 14.244 131.308 13.7362C128.83 13.1057 126.294 12.5513 123.754 12.382C119.86 12.1197 115.946 12.1831 112.04 12.1578C110.517 12.1493 108.993 12.3016 107.47 12.3397C106.955 12.3524 106.727 12.5259 106.553 13.0464C105.461 16.2965 104.278 19.5169 103.211 22.7754C102.182 25.9197 101.19 29.0808 100.762 32.3859C100.717 32.7371 100.75 33.0926 100.717 33.4481C100.688 33.7697 100.617 34.0871 100.563 34.4087C100.069 34.2902 99.4713 34.3114 99.0977 34.0321C98.2012 33.3592 98.2427 32.2928 98.3755 31.3068C98.5789 29.7749 98.8736 28.2556 99.1517 26.601C98.9608 26.8422 98.8113 27.0115 98.6785 27.1977C97.537 28.7846 96.2959 30.2785 94.619 31.3068C93.3446 32.0897 91.9873 32.4536 90.5138 31.9331C89.696 31.6453 89.1315 31.1037 88.8908 30.2361C88.8493 30.0838 88.7662 29.9441 88.6708 29.7325C87.7451 30.9767 86.7074 32.005 85.3459 32.6229C84.4286 33.0418 83.4656 33.3719 82.4694 32.9614C81.1992 32.4409 80.5974 31.4168 80.5351 30.0372C80.5268 29.8341 80.5102 29.631 80.5019 29.4279C80.4396 29.3771 80.3732 29.3263 80.3109 29.2797C80.2238 29.4363 80.1532 29.6056 80.0453 29.741C79.2608 30.7228 78.3144 31.5057 77.1853 32.0474C75.2469 32.9784 72.9888 32.1785 72.2334 29.9441C71.7685 28.5603 71.6357 27.1469 71.8183 25.6911C71.9013 25.0267 71.8556 24.3497 71.8722 23.5371C71.5651 23.7657 71.287 23.8926 71.1168 24.1084C69.801 25.7758 68.5059 27.4643 67.2025 29.1443C66.4886 30.0669 65.8037 31.019 65.0358 31.895C64.4796 32.5298 63.749 32.9741 62.869 32.6313C61.9724 32.2801 61.6113 31.4464 61.5532 30.562C61.5034 29.7791 61.5906 28.9581 61.7691 28.1922C62.0015 27.1892 62.3834 26.2201 62.6905 25.2383C62.7196 25.141 62.6988 25.0225 62.703 24.8829C62.6075 24.9379 62.537 24.959 62.4913 25.0056C60.4117 26.9819 58.3321 28.9581 56.265 30.9513C56.0824 31.129 55.9412 31.4041 55.8831 31.658C55.1484 34.8615 54.1564 37.9635 52.4296 40.7734C51.313 42.5931 50.0097 44.2308 48.1376 45.3057C47.1497 45.8727 46.1162 46.152 44.9498 45.932C43.1358 45.5934 42.5174 43.6764 42.7498 42.3899C42.9781 41.1246 43.5385 39.9863 44.4101 39.1018C46.2282 37.261 48.1335 35.509 50.0263 33.7443C50.624 33.1899 51.2466 32.6398 51.9315 32.2124C52.936 31.5861 53.347 30.6762 53.4756 29.5506C53.5504 28.8989 53.6707 28.2556 53.7994 27.3966C53.5213 27.6759 53.3594 27.8325 53.1975 27.9975C51.5828 29.6479 50.0927 31.4464 48.0671 32.6187C47.5358 32.9276 46.9297 33.1899 46.332 33.2704C44.6883 33.4862 43.7045 32.6483 43.4679 30.9513C43.443 30.7693 43.4389 30.5874 43.4181 30.3123C42.8702 30.8117 42.3928 31.2772 41.8864 31.7088C40.9442 32.5044 39.8401 32.898 38.628 32.936C36.9012 32.9911 35.5356 31.7342 35.2575 29.8595C35.0209 28.2768 35.4235 26.766 35.8843 25.2891C36.4156 23.5922 37.088 21.9375 37.6069 20.2363C37.7812 19.6693 37.6359 19.0091 37.6941 18.3955C37.7107 18.2177 37.9099 17.9257 38.0427 17.913C39.1303 17.8199 40.1223 18.1331 40.8778 18.9371C41.5046 19.5973 41.5045 20.4056 41.1476 21.2393C40.4876 22.7923 39.8027 24.337 39.2299 25.9281C38.8521 26.9819 38.5989 28.0906 38.3956 29.1951C38.2918 29.7537 38.2835 30.4266 38.8812 30.782C39.4582 31.1248 40.0517 30.9767 40.5831 30.6128C42.2351 29.4702 43.3517 27.8536 44.3147 26.1228C45.1573 24.612 45.8754 23.0293 46.7388 21.5355C47.652 19.9612 48.8225 18.5605 50.4081 17.6718C51.201 17.2275 52.1889 17.0244 53.1062 16.9609C54.2352 16.8805 55.2148 18.0146 55.5013 19.5042C55.5967 19.9993 55.7088 20.304 56.2858 20.4564C57.0454 20.6553 57.3484 21.4128 57.2903 22.1406C57.1699 23.7318 56.9333 25.3103 56.7341 26.8972C56.6801 27.3246 56.5846 27.7478 56.5058 28.1752C56.5639 28.2091 56.6178 28.2429 56.6759 28.2768L56.6593 28.2641ZM95.1835 11.4637C95.0797 11.3156 95.0507 11.2394 95.0008 11.2098C94.7974 11.0998 94.5941 10.9771 94.3782 10.9009C91.9167 10.0249 89.3557 9.62712 86.7697 9.4917C84.5282 9.37321 82.266 9.33089 80.0328 9.50862C77.8578 9.68213 75.6869 10.0842 73.5533 10.5581C72.2583 10.8459 70.9881 11.4045 70.0334 12.4286C69.3776 13.1311 69.5395 13.7447 70.4693 13.8632C71.81 14.0367 73.1756 14.1171 74.5246 14.0621C76.7952 13.9732 79.0781 13.8589 81.3279 13.5543C85.9229 12.9322 90.5013 12.1747 95.1793 11.4595L95.1835 11.4637ZM54.1522 23.0166C54.1024 22.9912 54.0568 22.9701 54.0069 22.9447C53.9986 22.64 54.0152 22.3268 53.9696 22.0264C53.9198 21.7048 53.8326 21.3831 53.7247 21.0742C53.3968 20.1348 52.5334 19.8343 51.7198 20.3929C51.3794 20.6256 51.0349 20.8965 50.7942 21.2266C50.2006 22.0391 49.6859 22.9066 49.1089 23.7276C48.0754 25.2003 47.515 26.9014 46.9007 28.5688C46.7844 28.8777 46.8218 29.2586 46.8509 29.6056C46.8965 30.215 47.2825 30.3927 47.7723 30.1388C48.3244 29.8553 48.918 29.559 49.3372 29.1189C50.7693 27.6166 52.1598 26.072 53.5088 24.4893C53.8409 24.1 53.9405 23.5118 54.1481 23.0166H54.1522ZM52.33 34.4256C52.2843 34.396 52.2387 34.3706 52.193 34.341C52.0809 34.4129 51.9647 34.4764 51.8651 34.5611C50.4621 35.7883 48.9885 36.9436 47.6852 38.2724C46.6848 39.2922 45.8713 40.511 45.0411 41.6875C44.709 42.1614 44.6468 42.8131 45.1573 43.2321C45.6388 43.6299 46.249 43.5156 46.718 43.1855C47.2825 42.7877 47.8263 42.3265 48.2705 41.7975C49.827 39.9609 50.9021 37.8238 51.8609 35.6233C52.0311 35.2297 52.1723 34.8234 52.3258 34.4214L52.33 34.4256ZM99.7328 12.8602C100.376 14.4768 100.995 16.0299 101.617 17.5999C102.045 15.9325 102.477 14.2313 102.941 12.4159C101.725 12.5852 100.663 12.7333 99.7328 12.8645V12.8602ZM0.145378 38.0777C0.539709 39.1653 1.21215 40.0328 2.14194 40.7226C4.72793 42.6439 7.74145 43.1094 10.7965 43.321C15.0511 43.6172 19.1729 42.8512 23.1744 41.3955C26.1754 40.3037 28.8818 38.704 31.1232 36.3765C34.1202 33.2619 34.0039 28.7761 29.8655 26.309C27.5743 24.9421 25.0962 24.0661 22.5932 23.2451C20.2397 22.475 17.8363 21.8656 15.5119 21.0319C14.2002 20.5622 12.9093 19.902 11.7719 19.0937C10.4561 18.1585 10.3565 16.8424 11.3112 15.5178C11.884 14.7265 12.4942 13.9267 13.2164 13.2834C18.8782 8.24754 25.4532 5.14984 32.85 3.89299C34.3402 3.63908 35.8843 3.65177 37.4035 3.68563C38.4371 3.70678 38.8937 4.45582 38.5367 5.44607C38.2876 6.13586 37.9722 6.88066 37.4741 7.38001C34.9005 9.96566 32.0074 12.1281 28.6327 13.4908C26.9973 14.1509 25.2788 15.137 23.4608 13.8843C22.6057 15.6321 23.6725 17.7649 25.5362 18.0569C26.6237 18.2262 27.678 18.0104 28.641 17.5449C32.4308 15.7167 35.8843 13.3638 38.8895 10.3719C40.0601 9.20817 40.9815 7.87091 41.4506 6.23319C42.0151 4.26539 41.434 2.53457 39.865 1.45545C38.3956 0.452507 36.7601 -0.0214579 35.0334 -0.000298715C33.5307 0.0166286 32.0157 0.160511 30.5421 0.439812C28.7074 0.786822 26.8603 1.18885 25.1128 1.82362C21.1861 3.24552 17.4794 5.14984 14.0632 7.62123C12.0625 9.06851 10.0659 10.5031 8.54257 12.5048C7.71655 13.5881 6.88637 14.6884 6.61657 16.0595C6.14752 18.4336 7.19769 20.1771 9.01577 21.5186C10.8131 22.8431 12.8636 23.6641 14.9473 24.3624C17.6205 25.2595 20.3352 26.0339 23.0083 26.9311C24.6562 27.4812 26.2709 28.1498 27.595 29.3517C28.8029 30.4477 29.1391 31.8019 28.3588 33.228C27.8856 34.0913 27.238 34.9208 26.495 35.5513C24.2909 37.4302 21.6427 38.484 18.9156 39.233C15.5741 40.1513 12.1497 40.4814 8.68785 40.0921C7.0026 39.9016 5.35886 39.5504 3.85625 38.6871C2.06307 37.6545 1.59818 36.2665 2.46156 34.3579C0.805364 34.4299 -0.431592 36.4654 0.149528 38.0777H0.145378ZM150.697 24.8913C151.058 25.6531 151.116 26.4233 150.751 27.0707C150.299 27.8748 149.734 28.645 149.087 29.2882C146.704 31.6496 143.827 32.9276 140.49 32.6398C137.834 32.4113 136.285 30.8667 136.165 27.9848C136.144 27.4685 136.182 26.9522 136.19 26.3852C133.886 25.7969 131.798 24.794 129.955 23.0336C129.652 23.8884 129.349 24.6374 129.117 25.4118C128.627 27.0538 128.15 28.7 127.718 30.3589C127.61 30.7736 127.705 31.2433 127.689 31.6834C127.676 32.0008 127.735 32.5044 127.577 32.5933C127.236 32.7879 126.738 32.9191 126.381 32.8091C125.609 32.5721 125.157 31.895 125.14 31.0994C125.111 29.8722 125.227 28.645 125.277 27.4939C125.244 27.5405 125.103 27.7224 124.966 27.9129C123.712 29.6183 122.301 31.1756 120.209 31.7342C119.379 31.9543 118.378 31.9923 117.582 31.7257C116.162 31.2518 115.963 29.8722 115.896 28.5349C115.871 28.0779 115.909 27.6209 115.921 27.003C115.203 27.9679 114.663 28.8481 113.974 29.5844C112.829 30.8159 111.571 31.9881 109.869 32.3013C107.113 32.8091 105.229 31.3703 105.693 28.3741C106.021 26.2497 106.669 24.1719 107.221 22.0856C107.661 20.4098 108.172 18.7552 108.682 16.9905C109.994 16.5673 111.621 17.3671 111.766 18.7679C111.833 19.4026 111.55 20.0924 111.347 20.7314C110.65 22.9151 109.911 25.0902 109.205 27.2696C109.105 27.5701 109.076 27.9044 109.068 28.226C109.051 28.8777 109.545 29.2797 110.239 29.1739C111.222 29.0258 111.99 28.463 112.65 27.7436C114.207 26.0466 115.195 23.9899 116.116 21.8994C116.552 20.9134 116.93 19.8978 117.312 18.8864C117.486 18.4251 117.718 18.2474 118.25 18.3193C120.296 18.6028 120.753 19.8935 120.039 21.9883C119.408 23.8291 119.13 25.7165 118.951 27.6336C118.931 27.8621 118.918 28.1329 119.009 28.3276C119.221 28.7677 119.441 29.449 119.769 29.521C120.221 29.6225 120.873 29.3771 121.272 29.0639C123.791 27.0496 125.202 24.265 126.473 21.3408C127 20.1305 127.195 18.8991 127.469 17.6549C127.643 16.8593 128.029 16.1822 128.959 16.1484C129.839 16.1145 130.366 16.652 130.698 17.4179C130.835 17.7395 131.018 18.095 130.997 18.4209C130.889 19.9951 131.943 20.8669 132.927 21.7344C133.903 22.6019 135.052 23.2071 136.294 23.6302C136.717 23.7741 136.904 23.7233 137.091 23.2959C138.016 21.1546 139.315 19.2503 141.1 17.8072C142.889 16.3557 144.861 15.1539 147.306 15.2639C149.095 15.3443 149.917 16.2626 149.917 18.1162C149.917 20.9388 148.36 22.8685 146.156 24.32C144.33 25.5176 142.354 26.3428 140.171 26.6095C139.975 26.6348 139.668 26.9734 139.66 27.1723C139.602 29.0935 140.681 30.2065 142.835 30.1684C145.131 30.1303 146.974 29.0301 148.493 27.3204C149.203 26.5248 149.925 25.7462 150.71 24.8871L150.697 24.8913ZM140.137 24.0619C140.561 24.0407 140.768 24.0534 140.963 24.0196C142.844 23.6937 144.483 22.8558 145.965 21.6413C146.745 21.0023 147.331 20.2279 147.555 19.2418C147.642 18.8525 147.613 18.2474 147.381 18.0188C147.144 17.7861 146.534 17.7565 146.173 17.8834C145.446 18.1416 144.678 18.4547 144.101 18.9498C143.147 19.775 142.267 20.7145 141.47 21.7048C140.947 22.3522 140.627 23.1732 140.137 24.0619ZM44.0656 11.7473C43.746 11.4595 43.3268 11.2733 42.9283 11.0998C41.9694 10.6808 41.268 10.9644 40.9027 11.9673C40.6246 12.7333 40.4544 13.5373 40.2095 14.316C40.0268 14.8957 40.2095 15.3359 40.6702 15.6575C41.1683 16.0087 41.7578 16.0934 42.2185 15.6998C42.974 15.0566 43.6588 14.3244 44.3396 13.5966C44.5139 13.4104 44.5596 13.0972 44.7173 12.7248C44.5139 12.399 44.3562 11.9969 44.0739 11.743L44.0656 11.7473Z" fill="#01432B"/>
</g>
<defs>
<clipPath id="clip0_410_143319">
<rect width="151" height="46" fill="white"/>
</clipPath>
</defs>
</svg>
