<svg width="20" height="26" viewBox="0 0 20 26" fill="none" xmlns="http://www.w3.org/2000/svg">
<path d="M3.2 8.53125C3.2 8.2875 3.36 8.125 3.6 8.125C3.84 8.125 4 8.2875 4 8.53125V10.9688C4 11.2125 3.84 11.375 3.6 11.375C3.36 11.375 3.2 11.2125 3.2 10.9688V8.53125ZM3.6 7.3125C3.84 7.3125 4 7.15 4 6.90625V5.07812C4 4.83437 3.84 4.67188 3.6 4.67188C3.36 4.67188 3.2 4.83437 3.2 5.07812V6.90625C3.2 7.15 3.36 7.3125 3.6 7.3125ZM2.08 2.51875C1.88 2.47812 1.68 2.6 1.6 2.84375C1.56 3.04688 1.68 3.29062 1.88 3.33125C3.72 3.77813 6.76 4.0625 10 4.0625C12.96 4.0625 15.76 3.81875 17.6 3.45312V20.15C17.6 20.475 17.4 20.7594 17.12 20.8813C16.16 21.2875 13.96 21.8969 10 21.8969C6.04 21.8969 3.84 21.2469 2.88 20.8813C2.6 20.7594 2.4 20.475 2.4 20.15V13.8125C2.56 13.3656 5.28 12.5938 10 12.5938C12.92 12.5938 15.04 12.8781 16.32 13.2437C16.56 13.325 16.8 13.1219 16.8 12.8375C16.8 12.675 16.68 12.5125 16.52 12.4313C14.12 11.7812 10.24 11.7812 10 11.7812C9.64 11.7812 1.6 11.8219 1.6 13.8125V20.15C1.6 20.8406 2 21.4094 2.6 21.6531C3.6 22.0594 5.92 22.75 10 22.75C14.08 22.75 16.4 22.0594 17.4 21.6531C18 21.4094 18.4 20.8 18.4 20.15V2.925C18.4 2.80312 18.36 2.68125 18.24 2.6C18.16 2.51875 18 2.47812 17.88 2.51875C16.16 2.96563 13.2 3.25 10 3.25C6.8 3.25 3.84 2.96563 2.08 2.51875ZM10 23.5625C6.28 23.5625 3.12 22.75 2.16 22.3844C1.96 22.3031 1.72 22.3844 1.64 22.6281C1.56 22.8313 1.64 23.075 1.88 23.1562C2.68 23.4813 5.88 24.4156 10.04 24.4156C10.28 24.4156 10.44 24.2531 10.44 24.0094C10.44 23.7656 10.24 23.5625 10 23.5625ZM2 11.7812C2.24 11.7812 2.4 11.6187 2.4 11.375V4.46875C2.4 4.225 2.24 4.0625 2 4.0625C1.76 4.0625 1.6 4.225 1.6 4.46875V11.375C1.6 11.6187 1.76 11.7812 2 11.7812ZM16.8 14.6656C16.76 14.4625 16.52 14.3406 16.32 14.3813C14.84 14.7875 12.48 15.0312 10.04 15.0312C7.6 15.0312 5.2 14.7875 3.76 14.3813C3.56 14.3406 3.32 14.4625 3.28 14.6656C3.24 14.8687 3.36 15.1125 3.56 15.1531C5.12 15.5594 7.48 15.8031 10.08 15.8031C12.68 15.8031 15.04 15.5594 16.6 15.1531C16.72 15.1125 16.84 14.9094 16.8 14.6656ZM20 2.03125V23.5625C20 25.4719 13.44 26 10 26C6.56 26 0 25.4719 0 23.5625V2.03125C0 1.54375 0.36 0.934375 3.16 0.4875C5 0.1625 7.4 0 10 0C12.6 0 15 0.1625 16.84 0.4875C19.64 0.934375 20 1.54375 20 2.03125ZM19.2 2.07187C18.92 1.625 15.88 0.8125 10 0.8125C4.12 0.8125 1.08 1.625 0.8 2.07187V23.5625C0.8 24.05 3.92 25.1875 10 25.1875C16.08 25.1875 19.2 24.05 19.2 23.5625V2.07187ZM16.4 4.46875C16.16 4.46875 16 4.63125 16 4.875V8.125C16 8.36875 16.16 8.53125 16.4 8.53125C16.64 8.53125 16.8 8.36875 16.8 8.125V4.875C16.8 4.63125 16.64 4.46875 16.4 4.46875Z" fill="#2B8140"/>
</svg>
