<svg width="37" height="37" viewBox="0 0 37 37" fill="none" xmlns="http://www.w3.org/2000/svg">
<g clip-path="url(#clip0_701_9867)">
<path d="M26.4684 37H10.5316C4.7255 37 0 32.2768 0 26.4684V10.5316C0 4.72315 4.72315 0 10.5316 0H26.4708C32.2768 0 37.0023 4.72315 37.0023 10.5316V26.4708C37.0023 32.2768 32.2792 37.0023 26.4708 37.0023L26.4684 37ZM10.5316 3.17143C6.47412 3.17143 3.17143 6.47178 3.17143 10.5316V26.4708C3.17143 30.5282 6.47178 33.8309 10.5316 33.8309H26.4708C30.5282 33.8309 33.8309 30.5306 33.8309 26.4708V10.5316C33.8309 6.47412 30.5306 3.17143 26.4708 3.17143H10.5316Z" fill="#2B8140"/>
<path d="M18.4989 27.9733C13.2741 27.9733 9.02441 23.7236 9.02441 18.4989C9.02441 13.2741 13.2741 9.02441 18.4989 9.02441C23.7236 9.02441 27.9733 13.2741 27.9733 18.4989C27.9733 23.7236 23.7236 27.9733 18.4989 27.9733ZM18.4989 12.1982C15.025 12.1982 12.1958 15.025 12.1958 18.5012C12.1958 21.9773 15.0227 24.8042 18.4989 24.8042C21.975 24.8042 24.8019 21.9773 24.8019 18.5012C24.8019 15.025 21.975 12.1982 18.4989 12.1982Z" fill="#2B8140"/>
<path d="M30.657 8.48501C30.657 9.74373 29.6374 10.761 28.381 10.761C27.1246 10.761 26.105 9.74139 26.105 8.48501C26.105 7.22862 27.1246 6.20898 28.381 6.20898C29.6374 6.20898 30.657 7.22862 30.657 8.48501Z" fill="#2B8140"/>
</g>
<defs>
<clipPath id="clip0_701_9867">
<rect width="37" height="37" fill="white"/>
</clipPath>
</defs>
</svg>
