<svg width="19" height="19" viewBox="0 0 19 19" fill="none" xmlns="http://www.w3.org/2000/svg">
<path id="Vector" d="M14.008 7.64163C13.8264 7.76056 13.5844 7.82003 13.4029 7.61189L13.5844 7.28482C13.5844 7.28482 13.8264 7.22535 14.008 7.28482V7.61189V7.64163ZM8.74363 12.072L8.50159 12.1315V12.0125C8.50159 11.7449 8.62261 11.5665 8.71338 11.4178C8.89491 11.2989 9.10669 11.3286 9.07643 11.507L8.74363 12.0423V12.072ZM6.9586 15.1346C6.74682 15.1346 6.59554 15.0454 6.59554 14.8372C6.74682 14.5994 6.83758 14.4507 7.10987 14.5102C7.23089 14.6886 7.35191 14.8372 7.2914 14.9264L6.9586 15.1643V15.1346ZM6.0207 12.7261C5.6879 12.5477 5.74841 12.2504 5.89968 12.0423C6.08121 11.7152 6.47452 11.626 6.71656 11.7746C6.89809 11.9828 6.98885 12.2207 6.86783 12.6072C6.71656 12.8451 6.3535 12.9343 6.0207 12.7559M5.02229 15.0157C4.87102 15.2535 4.71975 15.3725 4.38694 15.1941C4.20541 14.9859 3.99363 14.7778 4.17516 14.4507C4.32643 14.2128 4.56847 14.1534 4.81051 14.2723C5.14331 14.4507 5.14331 14.7778 5.02229 15.0157ZM11.8296 5.76839V5.56025L12.2229 5.64945L12.2834 5.88732C12.1322 5.79812 12.0111 5.82786 11.8296 5.73865M10.1354 5.73865C9.89331 5.58998 9.77229 5.44131 9.71178 5.17371C9.80255 5.02504 9.89331 4.84664 10.0446 4.96557C10.3169 5.02504 10.5589 5.14398 10.4379 5.38185C10.4379 5.58998 10.2261 5.56025 10.1354 5.73865ZM6.29299 8.68232C6.11146 8.47418 6.11146 8.26604 6.20223 8.11737H6.6258C6.6258 8.11737 6.71656 8.50391 6.71656 8.71205C6.50478 8.71205 6.38376 8.71205 6.29299 8.71205M5.71815 10.2582C5.56688 10.169 5.53662 10.0501 5.3551 9.96088C5.53662 9.84194 5.6879 9.75274 5.83917 9.69327C6.05096 9.69327 6.08121 9.84194 6.08121 10.0203L5.74841 10.2285L5.71815 10.2582ZM16.8822 2.55712C16.8822 2.55712 17.1242 2.49765 17.3057 2.55712C17.5478 2.70579 17.5478 2.88419 17.3965 3.12207C17.1847 3.30047 16.9729 3.30047 16.8519 3.12207C16.6704 2.91393 16.6704 2.70579 16.8822 2.52739M17.7293 5.08451H17.3965L17.336 4.84664L17.5175 4.7277C17.6385 4.9061 17.699 4.93584 17.7293 5.05477M16.2771 9.75274H16.1561C15.9745 9.48513 15.8838 9.24726 15.914 9.03912C15.914 8.83099 16.4889 8.62285 16.7309 8.77152C16.8519 8.47418 17.0032 8.20657 17.1242 7.90923C18.0318 5.58998 18.5764 3.21127 18.9092 0.773083C18.9395 0.535211 18.9697 0.267606 19 0C18.8487 0.267606 18.6975 0.535211 18.5462 0.773083C18.0318 1.51643 17.2755 1.96244 16.4586 2.34898C15.2484 2.91393 13.9777 3.21127 12.6768 3.56808C11.164 3.98435 9.62102 4.37089 8.13854 4.8169C6.71656 5.26291 5.3551 5.85759 4.1449 6.74961C3.1465 7.46322 2.32962 8.35524 1.72452 9.42567C1.17994 10.3772 0.877389 11.3881 0.69586 12.4288C0.63535 12.7856 0.605096 13.1721 0.574841 13.529H0.63535C1.33121 12.3099 2.32962 11.5368 3.57006 10.9718C4.56847 10.5258 5.62739 10.1987 6.68631 9.90141C7.8965 9.5446 9.13694 9.18779 10.2866 8.68232C10.7707 8.47418 11.164 8.17684 11.6178 7.90923L11.5271 7.61189C11.7389 7.43349 11.8901 7.52269 12.0717 7.61189C12.949 7.04695 13.7962 6.3928 14.492 5.56025L14.6131 5.47105V5.58998C14.1592 6.42254 13.5844 7.16588 12.8885 7.82003C11.4968 9.15806 9.8328 10.0203 8.04777 10.6745C7.26115 10.9718 6.47452 11.2394 5.71815 11.5368C4.68949 11.9233 3.72134 12.4585 2.81369 13.0829C1.84554 13.7371 1.11943 14.5696 0.63535 15.6103C0.302548 16.3834 0.121019 17.216 0.0605096 18.0485C0.0605096 18.3459 0.0302548 18.6729 0 19H1.63376C1.63376 17.8701 1.78503 16.77 2.32962 15.7293L2.51115 15.7887C4.1449 16.2942 5.77866 16.5618 7.50318 16.4131C8.50159 16.3239 9.46975 16.1158 10.3774 15.7293C12.1019 15.0156 13.4634 13.856 14.6131 12.3991C15.2787 11.5665 15.793 10.6745 16.2468 9.72301" fill="#2B8140"/>
</svg>
