<svg width="17" height="17" viewBox="0 0 17 17" fill="none" xmlns="http://www.w3.org/2000/svg">
<g id="Isolation_Mode" clip-path="url(#clip0_1548_13229)">
<path id="Vector" d="M12.5334 6.77334C12.371 6.87959 12.1545 6.93271 11.992 6.74678L12.1545 6.45459C12.1545 6.45459 12.371 6.40146 12.5334 6.45459V6.74678V6.77334ZM7.82325 10.7312L7.60669 10.7843V10.678C7.60669 10.439 7.71497 10.2796 7.79618 10.1468C7.9586 10.0405 8.14809 10.0671 8.12102 10.2265L7.82325 10.7046V10.7312ZM6.22611 13.4671C6.03662 13.4671 5.90127 13.3874 5.90127 13.2015C6.03662 12.989 6.11783 12.8562 6.36146 12.9093C6.46974 13.0687 6.57803 13.2015 6.52389 13.2812L6.22611 13.4937V13.4671ZM5.38694 11.3155C5.08917 11.1562 5.14331 10.8905 5.27866 10.7046C5.44108 10.4124 5.79299 10.3327 6.00955 10.4655C6.17197 10.6515 6.25318 10.864 6.1449 11.2093C6.00955 11.4218 5.68471 11.5015 5.38694 11.3421M4.49363 13.3608C4.35828 13.5733 4.22293 13.6796 3.92516 13.5202C3.76274 13.3343 3.57325 13.1483 3.73567 12.8562C3.87102 12.6437 4.08758 12.5905 4.30414 12.6968C4.60191 12.8562 4.60191 13.1483 4.49363 13.3608ZM10.5844 5.0999V4.91396L10.9363 4.99365L10.9904 5.20615C10.8551 5.12646 10.7468 5.15303 10.5844 5.07334M9.06847 5.07334C8.85191 4.94053 8.74363 4.80771 8.68949 4.56865C8.7707 4.43584 8.85191 4.27646 8.98726 4.38271C9.23089 4.43584 9.44745 4.54209 9.33917 4.75459C9.33917 4.94053 9.14968 4.91396 9.06847 5.07334ZM5.63057 7.70303C5.46815 7.51709 5.46815 7.33115 5.54936 7.19834H5.92834C5.92834 7.19834 6.00955 7.54365 6.00955 7.72959C5.82006 7.72959 5.71178 7.72959 5.63057 7.72959M5.11624 9.11084C4.98089 9.03115 4.95382 8.9249 4.7914 8.84521C4.95382 8.73896 5.08917 8.65928 5.22452 8.60615C5.41401 8.60615 5.44108 8.73896 5.44108 8.89834L5.14331 9.08428L5.11624 9.11084ZM15.1051 2.23115C15.1051 2.23115 15.3217 2.17803 15.4841 2.23115C15.7006 2.36396 15.7006 2.52334 15.5653 2.73584C15.3758 2.89521 15.1863 2.89521 15.078 2.73584C14.9156 2.5499 14.9156 2.36396 15.1051 2.20459M15.8631 4.48896H15.5653L15.5111 4.27646L15.6736 4.17021C15.7818 4.32959 15.836 4.35615 15.8631 4.4624M14.5637 8.65928H14.4554C14.293 8.42021 14.2118 8.20771 14.2389 8.02178C14.2389 7.83584 14.7532 7.6499 14.9697 7.78271C15.078 7.51709 15.2134 7.27803 15.3217 7.0124C16.1338 4.94053 16.621 2.81553 16.9188 0.637402C16.9459 0.424902 16.9729 0.18584 17 -0.0532227C16.8646 0.18584 16.7293 0.424902 16.5939 0.637402C16.1338 1.30146 15.457 1.6999 14.7261 2.04521C13.6433 2.5499 12.5064 2.81553 11.3424 3.13428C9.98885 3.50615 8.60828 3.85146 7.28185 4.2499C6.00955 4.64834 4.7914 5.17959 3.7086 5.97646C2.81529 6.61396 2.08439 7.41084 1.54299 8.36709C1.05573 9.21709 0.785032 10.1202 0.622611 11.0499C0.568471 11.3687 0.541401 11.714 0.514331 12.0327H0.568471C1.19108 10.9437 2.08439 10.253 3.19427 9.74834C4.08758 9.3499 5.03503 9.05771 5.98248 8.79209C7.06529 8.47334 8.17516 8.15459 9.20382 7.70303C9.63694 7.51709 9.98885 7.25146 10.3949 7.0124L10.3137 6.74678C10.5032 6.5874 10.6385 6.66709 10.801 6.74678C11.586 6.24209 12.3439 5.65771 12.9666 4.91396L13.0748 4.83428V4.94053C12.6688 5.68428 12.1545 6.34834 11.5318 6.93271C10.2866 8.12803 8.79777 8.89834 7.20064 9.48271C6.49682 9.74834 5.79299 9.9874 5.11624 10.253C4.19586 10.5983 3.32962 11.0765 2.51752 11.6343C1.65127 12.2187 1.00159 12.9624 0.568471 13.8921C0.270701 14.5827 0.10828 15.3265 0.0541401 16.0702C0.0541401 16.3358 0.0270701 16.628 0 16.9202H1.46178C1.46178 15.9108 1.59713 14.928 2.08439 13.9983L2.24682 14.0515C3.7086 14.503 5.17038 14.7421 6.71338 14.6093C7.60669 14.5296 8.47293 14.3437 9.28503 13.9983C10.828 13.3608 12.0462 12.3249 13.0748 11.0233C13.6704 10.2796 14.1306 9.48271 14.5366 8.63271" fill="white"/>
</g>
<defs>
<clipPath id="clip0_1548_13229">
<rect width="17" height="17" fill="white"/>
</clipPath>
</defs>
</svg>
