<svg width="151" height="45" viewBox="0 0 151 45" fill="none" xmlns="http://www.w3.org/2000/svg">
<g id="Group">
<path id="Vector" d="M147.51 35.9998C146.667 35.7908 145.553 35.6445 144.09 35.4913C141.749 35.2544 139.283 35.0524 136.72 34.934L136.727 34.9967C136.65 34.9688 136.595 34.9619 136.588 34.941V34.927C136.448 34.9201 136.511 35.0454 136.511 35.0454C136.511 35.0454 136.288 35.0036 136.246 34.9479C136.205 34.8922 136.135 34.9618 136.009 34.9549C135.884 34.941 135.884 34.9549 135.842 34.927C135.8 34.8992 135.675 34.9688 135.591 34.9758C135.515 34.9758 135.389 34.941 135.285 34.9619C135.362 34.941 135.466 34.8783 134.992 34.8643C120.371 34.3419 103.089 35.0663 89.0801 36.4526L89.0662 36.4595V36.4526C88.2581 36.5362 87.464 36.6128 86.6768 36.6964C86.6699 36.7939 86.4818 36.8357 86.4261 36.8218C86.3703 36.8078 86.3843 36.7242 86.1405 36.7451C85.9106 36.766 85.6807 36.7939 85.4508 36.8148C85.4578 36.8496 85.4648 36.8914 85.4648 36.9262C85.3603 36.9611 85.2697 36.9193 85.214 36.8427C84.4965 36.9193 83.786 36.9959 83.0964 37.0725C83.0964 37.0725 82.964 37.1422 82.8317 37.1143C82.6993 37.0865 82.7481 37.0865 82.6854 37.1283C82.6157 37.1701 82.5948 37.17 82.5112 37.184C82.4276 37.1979 82.3231 37.184 82.3231 37.184C82.3231 37.184 82.2047 37.2536 82.1629 37.2954C82.1211 37.3372 82.0654 37.17 81.5151 37.2327C72.2783 38.2776 65.8487 39.2529 63.6893 39.5524C63.6893 39.5524 63.4873 39.6081 63.4246 39.6081C63.355 39.6081 63.2783 39.6221 63.1947 39.629C63.1111 39.629 63.0972 39.6429 63.0624 39.6569C63.0206 39.6708 62.9927 39.7126 62.9161 39.7126C62.8325 39.7126 62.742 39.7265 62.742 39.7265C62.742 39.7265 62.6375 39.7823 62.5957 39.7823C62.5539 39.7823 62.5399 39.8659 62.5399 39.8659L62.3937 39.9076L62.2892 39.9634C62.2892 39.9634 62.1916 39.9355 62.0593 39.9982C61.3139 40.3395 61.0423 41.1755 61.0074 41.7954C61.0005 41.9069 61.293 41.9626 61.293 41.9626L61.307 42.0462L61.0841 42.1437C61.0841 42.1437 61.1468 42.1298 61.1468 42.2412C61.1468 42.3527 61.1259 42.2552 61.1468 42.3527C61.1676 42.4502 61.2234 42.5059 61.2373 42.5617C61.2512 42.6174 61.3 42.7706 61.3 42.7706C61.3 42.7706 61.4602 42.8821 61.4324 42.9239C61.4045 42.9657 61.3697 43.0353 61.3906 43.0771C61.4115 43.1189 61.4951 43.1329 61.509 43.1747C61.5229 43.2165 61.5438 43.3558 61.5438 43.3558L61.7598 43.6832C61.7598 43.6832 61.913 43.8573 62.0941 43.8364C62.1777 43.8225 62.2822 43.4951 62.4633 43.516C62.6444 43.5439 62.6793 43.4185 62.6793 43.4185L63.0763 43.3488C63.3619 42.9657 64.4138 42.9587 65.8348 42.6662C66.1065 42.6104 66.3503 42.5059 66.4269 42.5477C66.5105 42.5895 66.5871 42.5338 66.6289 42.5059C66.6707 42.4781 66.7474 42.4641 66.7474 42.4641C66.7474 42.4641 66.8797 42.492 66.9215 42.492C66.9633 42.492 66.9772 42.4223 67.0817 42.4223C67.1862 42.4223 67.2977 42.4154 67.3534 42.4014C67.4091 42.3875 67.4091 42.3736 67.6599 42.3248C67.9176 42.2761 68.4331 42.1158 68.4331 42.1158C68.4331 42.1158 69.0809 42.1019 69.1994 42.0462C69.3178 41.9905 69.4292 41.9974 69.4641 41.9835C69.5059 41.9696 69.5825 41.9278 69.68 41.9278C69.7775 41.9278 69.8124 41.8999 69.8959 41.872C69.9726 41.8442 70.1119 41.8442 70.1119 41.8442C70.1119 41.8442 70.2233 41.8999 70.286 41.8302C70.3487 41.7606 70.4045 41.7327 70.4463 41.7467C70.4881 41.7606 70.5786 41.8163 70.5786 41.8163C70.5786 41.8163 71.2752 41.7466 71.4911 41.6909C71.7071 41.6352 72.6336 41.475 72.6963 41.468C77.851 40.6321 84.6149 39.6917 92.7511 38.7722C93.2178 38.7165 93.2875 38.6329 93.3362 38.6259C93.385 38.6259 93.5592 38.6399 93.6288 38.6538C93.6985 38.6677 93.7681 38.6677 93.8866 38.6677C94.005 38.6677 94.0607 38.612 94.214 38.612C94.3672 38.612 94.5274 38.5702 94.611 38.5145C94.6946 38.4587 94.7016 38.5493 94.7852 38.5493C94.8688 38.5493 95.0638 38.5284 95.1335 38.5284C95.2031 38.5284 95.2519 38.3682 95.3564 38.4169C95.4609 38.4657 95.4957 38.4657 95.6002 38.4657C95.7047 38.4657 95.8927 38.4239 95.9833 38.4239C96.0669 38.4239 96.2271 38.3682 96.3107 38.403C96.3943 38.4378 96.45 38.4727 96.5684 38.4169C96.6869 38.3612 96.7705 38.2916 96.8262 38.2916C96.8749 38.2916 97.1048 38.4796 97.3625 38.3334C97.6203 38.1871 97.6203 38.2916 97.9477 38.2707C98.2751 38.2498 98.3796 38.208 98.6721 38.208C98.9647 38.201 99.3827 38.1592 99.3827 38.1592C99.3827 38.1592 99.5568 38.0826 99.6543 38.0269C99.7588 37.9711 99.7449 38.0617 99.7937 38.0756C99.8424 38.0896 99.9469 38.0199 99.9469 38.0199C99.9469 38.0199 99.9957 37.9851 100.051 38.0199C100.107 38.0547 100.239 37.9642 100.239 37.9642C100.239 37.9642 100.26 38.0895 100.33 38.0895C100.4 38.0895 100.448 38.0547 100.518 38.0478C100.588 38.0478 100.692 37.9572 100.741 37.992C100.797 38.0269 100.95 38.0269 100.95 38.0269C100.95 38.0269 101.055 37.9015 101.124 37.9154C101.194 37.9293 101.319 37.9851 101.403 37.9433C101.486 37.9084 101.626 37.8666 101.695 37.9015C101.765 37.9363 101.904 37.9711 101.974 37.8945C102.044 37.8248 102.148 37.8736 102.148 37.8736L102.357 37.8875C102.357 37.8875 102.476 37.8109 102.65 37.8318C102.824 37.8457 102.824 37.79 102.942 37.79C103.061 37.79 103.339 37.7482 103.388 37.7482C103.437 37.7482 103.527 37.6716 103.646 37.7064C103.771 37.7412 103.959 37.6646 104.064 37.6995C104.168 37.7343 104.119 37.7552 104.356 37.6786C104.6 37.6019 104.649 37.5323 104.732 37.581C104.823 37.6298 104.837 37.6298 104.99 37.6298C105.143 37.6298 105.234 37.6089 105.339 37.6089C105.443 37.6089 105.443 37.6437 105.596 37.5671C105.75 37.4905 105.784 37.4556 105.854 37.4905C105.924 37.5253 106.007 37.5392 106.112 37.5253C106.216 37.5044 106.265 37.4905 106.39 37.5044C106.509 37.5183 107.359 37.386 107.616 37.3651C122.071 36.2436 132.687 36.3759 139.667 36.8287C140.196 36.8635 140.266 36.8217 140.37 36.8148C140.482 36.8148 140.509 36.8984 140.593 36.8984C140.677 36.8984 140.802 36.8635 140.886 36.8914C140.969 36.9193 141.15 36.9889 141.248 36.982C141.345 36.982 141.596 36.9332 141.666 36.9471C141.735 36.9611 141.805 36.8426 141.986 36.8914C142.167 36.9471 142.195 36.8914 142.376 36.9402C142.557 36.9959 142.655 36.9611 142.808 36.9889C142.961 37.0168 142.92 37.0307 143.059 37.0098C143.198 36.9959 143.226 36.9193 143.268 36.9889C143.31 37.0586 143.407 37.0865 143.477 37.0586C143.547 37.0307 143.63 37.0307 143.63 37.0307C143.63 37.0307 143.658 37.0307 143.811 37.0307C143.965 37.0307 143.881 37.0586 144.187 37.0795C144.494 37.1004 145.177 37.177 145.497 37.184C145.817 37.1909 145.887 37.1352 146.026 37.2467C146.166 37.3581 146.277 37.3442 146.277 37.3442L146.375 37.3024H146.458C146.458 37.3024 146.5 37.2745 146.556 37.3024C146.612 37.3303 146.695 37.3442 146.765 37.3442C146.834 37.3442 146.946 37.3094 147.016 37.3372C147.085 37.3651 147.197 37.4069 147.28 37.4069C147.364 37.4069 147.531 37.4278 147.601 37.4556C147.67 37.4835 147.643 37.5114 147.865 37.4905C148.088 37.4696 148.102 37.4556 148.186 37.5253C148.269 37.595 148.409 37.6089 148.534 37.6019C148.66 37.6019 149.064 37.7552 149.328 37.9224C149.509 38.0338 149.495 38.1871 149.565 38.0756C149.607 38.0408 150.958 36.8496 147.51 35.9998Z" fill="#01432B"/>
<path id="Vector_2" d="M137.068 20.6122L137.02 20.7445L136.971 20.8908C136.964 20.9187 136.957 20.9465 136.95 20.9814V21.0301C136.915 21.065 136.866 21.0928 136.838 21.1555C136.804 21.2252 136.776 21.3018 136.741 21.3854L136.685 21.3784C136.581 21.3575 136.476 21.3297 136.379 21.3018L136.225 21.253C136.177 21.2391 136.212 21.2461 136.114 21.1625L136.1 21.1486L136.079 21.1416C135.87 21.0928 135.668 21.0859 135.522 20.9744L135.334 20.9187L135.167 20.856C134.895 20.7306 134.818 20.7027 134.561 20.5564C134.47 20.5077 134.449 20.4729 134.31 20.4102L134.059 20.3335L133.934 20.2917L133.899 20.2778L133.843 20.236L133.62 20.0061C133.035 19.6161 132.861 19.4907 132.694 19.3792C132.666 19.3583 132.561 19.2956 132.561 19.2678C132.561 19.2329 132.54 19.212 132.506 19.1842C132.471 19.1563 132.422 19.1284 132.422 19.1145L132.345 19.1075C132.345 19.1075 132.297 19.0448 132.311 19.01C132.325 18.9682 132.297 18.9682 132.262 18.9473C132.227 18.9264 132.178 18.8846 132.178 18.8846C132.178 18.8846 132.095 18.808 132.025 18.7523C131.955 18.6965 131.907 18.6269 131.858 18.5642L131.753 18.4388C131.684 18.3552 131.614 18.2716 131.537 18.195C131.503 18.1602 131.426 18.1044 131.419 18.0975C131.384 18.0626 131.356 18.0209 131.328 17.986C131.301 17.9442 131.294 17.9233 131.28 17.8746C131.266 17.8188 131.238 17.7562 131.21 17.7074C131.05 17.5193 130.952 17.38 130.848 17.1919L130.841 17.2058C130.876 16.9133 130.869 16.76 130.855 16.4535L130.82 16.1331C130.785 15.8614 130.722 15.6455 130.618 15.4853C130.534 15.2484 130.423 15.0255 130.284 14.8374V14.8305C130.228 14.7538 130.165 14.6842 130.109 14.6145L130.061 14.5588L130.054 14.5518L129.998 14.4961C129.058 13.5766 128.096 14.1896 128.096 14.1896C128.096 14.1896 127.811 14.2802 127.741 14.4682C127.643 14.719 127.504 14.7399 127.504 14.7399C127.504 14.7399 127.414 15.2624 127.295 15.2624C127.177 15.2624 127.267 15.5967 127.267 15.5967L127.1 15.9659L127.128 16.3351C127.128 16.3351 126.996 16.6555 127.142 17.2407L127.121 17.2825C127.044 17.4427 126.926 17.7004 126.926 17.7492L126.912 17.777H126.933L126.898 17.8188L126.877 17.9303L126.821 18L126.766 18.1044C126.731 18.1602 126.738 18.2089 126.703 18.2507L126.682 18.2856L126.661 18.3204C126.626 18.5642 126.543 18.6896 126.39 18.8637C126.32 18.9613 126.271 19.0448 126.215 19.226C126.188 19.3095 126.188 19.3862 126.208 19.4419L126.16 19.4767C126.076 19.6091 126.118 19.6369 126.034 19.7623L126.055 19.7972L126.027 19.839C125.965 19.9574 125.93 20.1246 125.895 20.236C125.853 20.3684 125.791 20.452 125.728 20.6191L125.693 20.6958C125.693 20.7167 125.672 20.7306 125.672 20.7724V20.7863C125.63 20.8421 125.589 20.8908 125.54 20.9465C125.47 21.0301 125.554 21.0092 125.498 21.0928L125.435 21.2461L125.421 21.3854C125.4 21.4272 125.373 21.462 125.352 21.5108L125.261 21.7058C125.226 21.7825 125.233 21.7546 125.226 21.7755L125.205 21.7824L125.198 21.8034L125.15 21.8173L125.108 21.9009C125.059 21.9984 125.031 22.0402 124.996 22.1238H124.927L124.871 22.1934C124.78 22.4164 124.69 22.6323 124.558 22.7995L124.516 22.7855C124.376 23.1338 124.167 23.4612 123.965 23.7956L123.826 24.0324L123.722 24.13C123.708 24.1439 123.68 24.1578 123.652 24.1996L123.61 24.2762C123.596 24.3111 123.589 24.2971 123.568 24.3807V24.3947L123.575 24.4225L123.541 24.4365L123.499 24.4922V24.534C123.52 24.534 123.436 24.6245 123.373 24.7151L123.332 24.736L123.29 24.7708L123.234 24.8335L123.185 24.8892C123.185 24.9032 123.137 24.8892 123.178 24.945L123.13 24.9519C123.039 25.1261 122.941 25.2445 122.851 25.4256C122.753 25.4744 122.642 25.6067 122.565 25.7043L122.551 25.7252L122.544 25.7391L122.537 25.7461L122.53 25.76L122.524 25.7669L122.517 25.7809L122.503 25.7878V25.8018L122.489 25.8088L122.496 25.8227L122.489 25.8297L122.496 25.8436H122.482V25.8505L122.384 25.9481C122.398 25.9481 122.308 25.955 122.259 25.9759C122.203 25.9968 122.154 25.9968 122.113 26.0386L122.05 26.0526C121.841 26.2685 121.702 26.4775 121.5 26.6516L121.479 26.6586C121.423 26.6377 121.423 26.6307 121.423 26.6447L121.374 26.777L121.332 26.8258L121.284 26.8815L121.249 26.9163L121.242 26.9233C120.58 27.4806 119.674 27.5642 119.465 27.2646L119.403 27.2437L119.382 27.2298C119.319 27.188 119.263 27.0208 119.215 26.9581V26.9512L119.089 26.8885L119.096 26.6656C119.068 26.6029 119.068 26.4984 119.034 26.4914C119.027 26.4496 119.02 26.4078 119.02 26.3869C119.006 26.366 118.992 26.3242 118.985 26.2894C119.013 26.2685 118.957 26.157 118.957 26.0874L118.936 25.962C118.915 25.9132 118.943 25.9063 118.901 25.8366C118.887 25.7879 118.88 25.7321 118.88 25.6764V25.6207H118.929L118.922 25.5023H118.943C118.943 25.4605 118.929 25.4117 118.922 25.3699H118.95C118.95 25.0564 118.936 24.7708 118.999 24.5131L118.992 24.4643L118.985 24.4156C118.978 24.3459 119.041 24.2414 119.02 24.1369C119.02 24.0951 119.02 24.0533 119.02 24.0185C119.061 23.9349 119.124 23.7259 119.082 23.6424C119.082 23.6006 119.096 23.5448 119.103 23.4891L119.187 23.503C119.222 23.3289 119.194 23.1756 119.194 23.0224C119.194 22.9458 119.194 22.8691 119.194 22.7995L119.201 22.702C119.208 22.6671 119.201 22.702 119.256 22.6393L119.27 22.6253V22.5975C119.256 22.4512 119.229 22.3188 119.277 22.2492L119.375 22.1098H119.27C119.472 21.1694 119.633 20.7027 119.814 20.2012C121.193 16.3978 118.288 16.3699 117.71 16.3281C117.271 16.3003 117.174 16.6346 116.874 17.6029C114.116 25.0982 111.963 26.5959 110.87 27.0069C110.34 27.2019 109.95 27.2437 109.727 27.188C108.891 26.979 109.031 26.2197 109.1 25.8018H109.114L109.128 25.7043C109.135 25.6416 109.1 25.5371 109.079 25.4326V25.4117V25.3769C109.086 25.342 109.093 25.3072 109.1 25.2654L109.156 25.3072L109.24 25.356L109.233 25.2445L109.226 25.0216H109.233L109.246 24.9937L109.253 24.9798H109.246L109.226 24.938H109.295C109.253 24.5688 109.588 24.325 109.63 23.9488L109.581 23.9279L109.595 23.9001C109.664 23.7956 109.685 23.6911 109.727 23.5866C109.748 23.4961 109.755 23.4194 109.755 23.3428C109.95 22.7507 110.013 22.6044 110.187 21.9914C110.431 21.3854 110.612 20.7376 110.786 20.0758C110.842 19.9504 110.87 19.8111 110.89 19.6787L110.904 19.623C110.932 19.5116 110.967 19.4001 110.995 19.2887C111.009 19.2678 111.023 19.2469 111.065 19.2329H111.072V19.212C111.085 19.1215 111.092 19.0379 111.113 18.9613C111.127 18.9195 111.134 18.8707 111.169 18.8428L111.232 18.7871L111.148 18.7732C111.218 18.613 111.274 18.4527 111.343 18.2925C111.371 18.195 111.441 18.1462 111.455 18.0139C111.462 17.9233 111.448 17.791 111.469 17.7283C111.622 17.4496 111.643 17.0944 111.538 16.7531C111.517 16.7043 111.503 16.6625 111.483 16.6137C111.462 16.565 111.483 16.5301 111.483 16.5162L111.448 16.4675V16.4048L111.413 16.3699L111.42 16.3072C111.42 16.2863 111.406 16.2863 111.392 16.2376C111.378 16.1888 111.392 16.2376 111.392 16.2167L111.357 16.1819C111.35 16.1679 111.35 16.1401 111.322 16.0983C111.246 15.9798 111.162 15.8753 111.078 15.7987C111.037 15.7569 110.988 15.7221 110.932 15.6942C110.863 15.6664 110.835 15.6733 110.793 15.6385C110.709 15.6037 110.668 15.4644 110.535 15.4226L110.229 15.325C110.027 15.2624 109.602 15.2136 109.4 15.1648C109.212 15.137 108.647 15.0812 108.459 15.1648C108.229 15.1648 108.195 15.2554 108.16 15.2763L108.167 15.3668C108.236 15.6037 108.202 15.8196 108.181 16.154L108.167 16.1261C108.167 16.3908 108.104 16.6207 108.007 16.8645C107.993 16.962 107.979 17.0596 107.965 17.164C107.909 17.3661 107.846 17.5681 107.791 17.7701C107.749 17.777 107.832 17.7979 107.811 17.8049L107.818 17.8676L107.763 17.9024L107.756 17.9791C107.756 18.0069 107.735 18.0139 107.707 18.0626C107.651 18.2438 107.596 18.4318 107.547 18.613C107.533 18.6687 107.512 18.7244 107.498 18.7801C107.484 18.815 107.47 18.8498 107.463 18.8846L107.38 19.3444C107.324 19.4349 106.955 20.5982 106.927 20.7027C105.966 24.2554 103.653 30.4202 109.17 30.3575C110.305 30.3436 111.281 29.7933 111.991 29.2569L111.998 29.2638C112.075 29.2011 112.123 29.1594 112.165 29.1315L112.186 29.1176C112.228 29.0897 112.263 29.0688 112.311 29.0409V29.0549L112.325 29.02L112.332 29.034C112.381 29.034 112.395 28.9782 112.437 28.9643L112.451 28.9852C112.458 28.9364 112.52 28.9991 112.486 28.9295L112.5 28.9504C112.555 28.8877 112.625 28.8389 112.702 28.7902C112.709 28.7135 112.757 28.6857 112.785 28.6299C112.869 28.5603 112.952 28.4837 113.036 28.407C113.036 28.3583 113.064 28.3722 113.078 28.3652L113.14 28.3095C113.189 28.2677 113.238 28.219 113.287 28.1702C113.342 28.205 113.287 28.1214 113.335 28.1423C113.315 28.1075 113.349 28.1214 113.356 28.1075L113.37 28.1005L113.384 28.1145L113.482 28.0448C113.468 28.003 113.496 27.9961 113.503 27.9752L113.586 27.8916L113.621 27.8707L113.635 27.8776L113.642 27.8498L113.649 27.8567C113.698 27.8567 113.705 27.801 113.739 27.7871L113.753 27.808C113.753 27.7592 113.788 27.808 113.781 27.7592L113.795 27.7731L113.851 27.7104C113.879 27.6756 113.907 27.6338 113.941 27.606C113.928 27.5363 113.969 27.5084 113.99 27.4666C114.025 27.4318 114.06 27.397 114.088 27.3552V27.3482C114.213 27.2159 114.185 27.2646 114.311 27.1253L114.318 27.1323L114.339 27.1114L114.359 27.0905L114.373 27.0974C114.568 26.8118 115.411 25.5231 115.885 24.6803C115.85 25.8645 115.739 27.4875 116.421 28.5115L116.463 28.5185C116.477 28.6996 116.596 28.818 116.742 28.9364C116.888 29.0618 117 29.3474 117.306 29.4171C117.515 29.4659 117.682 29.6261 117.905 29.6818C117.94 29.7027 117.982 29.7166 118.037 29.7236L118.121 29.7306C118.156 29.7445 118.205 29.7375 118.26 29.7375C118.316 29.7375 118.323 29.7654 118.372 29.7654C118.421 29.7654 118.469 29.7445 118.483 29.7654C118.497 29.7933 118.532 29.8281 118.56 29.8002C118.595 29.7793 118.72 29.7654 118.755 29.7654C119.849 29.7306 122.705 29.3474 125.547 24.6942L125.54 24.7151C125.505 24.8335 125.526 24.8683 125.519 24.931L125.491 25.2306L125.484 25.2375L125.345 25.4605L125.359 25.5092L125.373 25.5231C125.219 26.2824 124.948 27.1323 125.066 28.1005C125.115 28.5324 125.157 28.9782 125.386 29.3892C125.414 29.5564 125.533 29.7306 125.651 29.8838L125.686 29.8351C125.665 30.0092 125.832 30.0231 125.937 30.0719L126.02 30.1555C126.027 30.1833 126.027 30.2112 126.02 30.246H126C126.006 30.3296 126.09 30.3018 126.167 30.2739C126.285 30.3575 126.41 30.4202 126.522 30.4689L126.55 30.4759L126.626 30.5038C126.808 30.5804 127.058 30.5456 127.212 30.4898C127.372 30.4341 127.386 30.3227 127.546 30.3018C127.706 30.2809 127.922 29.9535 127.922 29.8211C127.922 29.5564 127.992 29.7724 127.79 29.3405C127.267 28.3165 128.786 23.8444 129.852 20.6818C131.433 22.2352 133.975 23.4612 136.212 23.8653V23.8792L136.205 23.9488V23.9698L136.198 24.0603C136.191 24.1021 136.184 24.1509 136.184 24.1996C136.086 25.0355 136.142 25.8366 136.358 26.568V26.575C136.483 27.2159 136.748 27.8916 137.229 28.421L137.277 28.4767C137.382 28.7205 137.577 28.7693 137.8 28.8946C137.89 28.9504 137.974 28.9922 138.051 29.0479L138.141 29.1176C138.211 29.1733 138.266 29.229 138.294 29.3056L138.399 29.3335C138.489 29.4659 138.496 29.431 138.65 29.431C138.963 29.5982 139.297 29.7375 139.653 29.8281C139.715 29.842 139.778 29.8559 139.841 29.8699C139.89 29.8838 139.945 29.8908 139.994 29.9047C140.036 29.9117 140.036 29.8699 140.064 29.9047L140.154 29.9326L140.189 29.9465C140.203 29.9674 140.21 30.0022 140.245 29.9535C140.287 29.9117 140.273 29.8908 140.307 29.9047C140.342 29.9186 140.328 29.9604 140.377 29.9604C140.433 29.9535 140.447 29.9186 140.475 29.9535C140.503 29.9953 140.51 29.9604 140.544 29.9674C140.579 29.9744 140.621 30.0092 140.635 30.0231C140.649 30.0371 140.649 29.9883 140.725 29.9883C140.774 29.9883 140.83 29.9953 140.879 29.9953C142.557 30.0162 144.863 29.5912 147.002 28.2607C147.044 28.2468 147.057 28.2538 147.092 28.219L147.127 28.1981L147.148 28.1702C147.197 28.1423 147.239 28.1005 147.28 28.0727L147.287 28.0657L147.315 28.0518L147.329 28.0448L147.35 28.0239L147.371 27.9612L147.406 27.9403C147.468 27.9473 147.475 27.8985 147.51 27.8498L147.552 27.8219L147.559 27.8289L147.566 27.8149C147.691 27.7244 147.824 27.6617 147.942 27.5572L147.97 27.5224L147.984 27.5154L147.998 27.5015H148.012L148.033 27.4806C148.151 27.39 148.249 27.2995 148.367 27.2019L148.395 27.188C148.402 27.1462 148.423 27.181 148.437 27.1392L148.444 27.1323H148.451L148.506 27.0696C148.583 27.0069 148.66 26.9442 148.736 26.8745L148.862 26.777L148.91 26.7561C149.015 26.6795 148.959 26.7422 149.05 26.6377L149.119 26.5541C149.175 26.5053 149.217 26.4426 149.252 26.38L149.314 26.3033C149.37 26.2406 149.419 26.171 149.482 26.1222C149.635 25.9899 149.732 25.8714 149.767 25.8436C149.802 25.8157 149.844 25.7809 149.872 25.7461C149.9 25.7112 149.934 25.6903 149.962 25.6834L150.046 25.5858C150.046 25.5858 150.081 25.4744 150.129 25.4256C150.178 25.3838 150.192 25.3002 150.213 25.2654C150.234 25.2306 150.185 25.2933 150.234 25.2306C150.283 25.1679 150.38 25.1331 150.408 25.0773C150.436 25.0216 150.485 24.938 150.533 24.8892C150.582 24.8475 150.596 24.7499 150.631 24.6942C150.666 24.6385 151.202 23.5309 150.917 22.9527V22.9458L150.924 22.6811C150.91 22.3258 150.582 21.9148 150.478 22.2004C150.415 22.3537 150.227 22.6044 150.199 22.6462V22.6323C150.095 22.6741 150.171 22.7577 150.067 22.7855C150.095 22.8273 149.962 22.904 149.976 22.9806L149.948 22.9667C149.844 23.0851 149.732 23.2174 149.642 23.315C149.6 23.4334 149.433 23.4961 149.412 23.6075C149.342 23.6563 149.231 23.7956 149.168 23.8931V23.8792C149.085 23.9697 149.029 23.9906 148.987 24.0812L148.966 24.1509C148.931 24.1578 148.903 24.1927 148.917 24.1857H148.903L148.876 24.1996L148.813 24.2414C148.771 24.318 148.653 24.3668 148.576 24.4852L148.506 24.5479L148.395 24.7151C148.395 24.7151 148.381 24.743 148.381 24.7778C148.339 24.8196 148.29 24.8614 148.249 24.8962L148.144 24.9798L148.081 25.0425C148.068 25.0913 148.068 25.0913 148.061 25.0982C148.026 25.1261 147.935 25.1888 147.872 25.2097L147.664 25.3838L147.601 25.4117L147.503 25.4744L147.468 25.5301L147.475 25.5649L147.378 25.6555L147.266 25.7669L147.232 25.8018L147.197 25.8157L147.148 25.8645L147.078 25.9063L147.002 25.969C146.967 25.9829 146.953 26.0177 146.904 26.0665C146.779 26.1849 146.605 26.2267 146.472 26.2894C146.417 26.3173 146.396 26.3242 146.382 26.3382L146.326 26.3591L146.277 26.4148L146.249 26.4357L146.201 26.4705L146.187 26.5123H146.145L146.103 26.5611L146.02 26.5471C145.762 26.7213 145.588 26.8258 145.414 26.8954C145.337 26.9303 145.288 27.0069 145.253 26.9999C145.218 26.9999 145.205 26.993 145.198 26.993L145.191 27.0626L145.121 27.0348L145.093 27.0696L145.037 27.0765L144.947 27.0974L144.849 27.0905C144.821 27.0696 144.821 27.1044 144.807 27.1532C144.794 27.2019 144.745 27.1532 144.731 27.1323H144.661L144.599 27.1462L144.529 27.1601L144.473 27.2159C144.473 27.195 144.417 27.2159 144.341 27.2228C144.146 27.2437 143.992 27.2994 143.839 27.3552C143.561 27.4597 143.435 27.3691 143.373 27.3761C143.254 27.39 143.115 27.4109 143.017 27.4109L142.975 27.4527L142.927 27.4248C142.913 27.4039 142.871 27.4039 142.878 27.4806C142.885 27.5293 142.85 27.4875 142.836 27.4666L142.794 27.4597H142.718H142.669L142.613 27.4527L142.564 27.4388C142.537 27.4457 142.537 27.4388 142.502 27.4318C142.335 27.4179 142.167 27.4179 141.986 27.397C141.903 27.39 141.687 27.3204 141.666 27.3204L141.568 27.2925L141.52 27.2786L141.471 27.2646L141.436 27.2368L141.394 27.2159L141.325 27.195L141.255 27.1532C141.053 27.0835 140.907 27.0417 140.753 26.9442V26.9372C140.698 26.9094 140.635 26.8676 140.572 26.8258L140.468 26.7561L140.398 26.7143L140.363 26.7004C140.335 26.6516 140.307 26.6098 140.273 26.5541L140.168 26.4844L140.112 26.4009C140.036 26.2824 139.966 26.1501 139.917 26.0108C139.841 25.76 139.764 25.5023 139.688 25.2306L139.646 25.2236L139.618 25.1331C139.618 24.945 139.625 24.7569 139.639 24.5688C139.646 24.4713 139.653 24.3738 139.674 24.2762L139.701 24.0742C139.708 24.0464 139.708 24.0046 139.75 24.0115H139.799L139.897 24.0046C140.294 23.9628 140.691 23.9001 141.081 23.8165C142.634 23.4821 144.306 22.7786 145.302 22.0889L145.344 22.0611L145.365 22.068L145.386 22.0541L145.414 22.0472C145.699 21.9009 146.911 21.1416 147.503 20.4868L147.517 20.5077C148.095 19.9226 149.544 18.2368 149.642 16.6416C149.642 16.5998 149.677 16.5719 149.691 16.5301C149.746 16.3769 149.628 16.3351 149.663 16.1958L149.746 16.0007L149.705 15.8614C149.725 15.7151 149.739 15.5619 149.718 15.4017L149.705 15.1927L149.698 15.1439C149.698 15.1439 149.705 15.13 149.725 15.0882C149.739 15.0255 149.732 14.9907 149.732 14.9489C149.725 14.8723 149.705 14.8096 149.691 14.7469C149.663 14.6424 149.565 14.524 149.523 14.4055L149.572 14.3289L149.551 14.2662C149.496 14.0851 149.419 13.8692 149.28 13.6811C149.161 13.5139 149.008 13.3746 148.855 13.2353L148.869 13.1865C148.36 12.873 147.747 12.7059 147.148 12.678C146.995 12.671 146.848 12.671 146.695 12.685L146.584 12.6919L146.493 12.685L146.27 12.6641C146.145 12.671 146.117 12.6919 146.033 12.7128L146.006 12.7198L145.985 12.7268L145.964 12.7337L145.88 12.7686C145.825 12.7546 145.831 12.7755 145.804 12.7686H145.762L145.734 12.7895C145.671 12.8382 145.49 12.8591 145.337 12.9009L145.309 12.8939H145.253L145.184 12.9009L145.065 12.9288L144.961 12.9566L144.926 12.9636L144.898 12.9915L144.842 12.9984C144.612 13.096 144.466 13.1308 144.271 13.2353C144.041 13.3885 143.992 13.3885 143.581 13.5766C143.686 13.5278 143.505 13.6254 143.477 13.6254L143.449 13.6811L143.386 13.702L143.338 13.7368L143.247 13.7856C143.219 13.7856 143.226 13.8343 143.164 13.8622H143.15H143.108L143.045 13.8761L142.934 13.904C142.857 13.9249 142.787 13.9458 142.711 13.9667C142.578 14.0642 142.481 14.1408 142.376 14.2314C142.209 14.3428 142.035 14.5031 141.847 14.6633L141.777 14.6354L141.687 14.712C141.666 14.7399 141.624 14.7887 141.582 14.8374L141.499 14.8653L141.464 14.9489L141.415 14.9768C141.38 15.0046 141.352 14.9907 141.318 15.0185H141.29L141.262 14.9698L141.129 15.0673L140.962 15.2345L140.948 15.2484L140.934 15.2554L140.886 15.2902L140.844 15.3181L140.837 15.325L140.851 15.3599L140.83 15.3877L140.788 15.3738C140.684 15.5131 140.551 15.6246 140.377 15.7848C140.203 15.9381 139.98 16.1331 139.778 16.3978L139.82 16.4396L139.813 16.4466C139.674 16.5232 139.569 16.6486 139.472 16.7531C139.256 16.9969 139.179 17.2755 138.998 17.5054L138.963 17.5193L138.914 17.5611L138.852 17.6308L138.74 17.7631C138.677 17.8467 138.587 17.9442 138.545 18.0069L138.496 18.0626L138.455 18.1253C138.413 18.202 138.343 18.3274 138.28 18.4249L138.183 18.5851L138.134 18.6687C138.12 18.7035 138.106 18.7035 138.099 18.7592C138.064 18.8289 138.023 18.8986 137.981 18.9613L137.939 19.0239L137.897 18.9961L137.855 19.0588L137.8 19.1354L137.786 19.1215C137.758 19.1633 137.723 19.2329 137.709 19.2887L137.681 19.2747C137.451 19.6927 137.305 20.1455 137.242 20.1733C137.208 20.243 137.173 20.3057 137.124 20.3753L137.166 20.445C137.11 20.5216 137.068 20.6191 137.068 20.6122ZM140.621 20.4241C140.739 20.1037 141.123 19.6021 141.297 19.2538C141.345 19.1842 141.394 19.1145 141.443 19.0448C141.485 18.9891 141.52 18.9334 141.568 18.8846C141.742 18.8289 141.812 18.6408 141.882 18.4597C142 18.3134 142.119 18.1671 142.244 18.0209C142.773 17.8119 143.045 17.3939 143.317 16.9272C143.985 16.3281 144.668 15.8405 145.288 15.541C145.448 15.534 145.504 15.5271 145.622 15.4574L145.706 15.4295C145.831 15.4226 145.831 15.4086 145.887 15.3599L145.929 15.3459C145.95 15.3529 145.978 15.2972 146.006 15.332L146.061 15.2972C146.103 15.3111 146.096 15.3042 146.138 15.2624C146.201 15.1997 146.222 15.2345 146.298 15.2275H146.326L146.396 15.2206C146.577 15.2066 146.737 15.1997 146.828 15.2275L146.848 15.2484L146.862 15.2414C147.002 15.2763 147.183 15.3041 147.315 15.4644C147.461 15.6733 147.615 15.9102 147.468 16.5162L147.461 16.565L147.448 16.6207V16.6416L147.441 16.6486V16.6764L147.42 16.7322L147.413 16.767L147.399 16.774L147.385 16.8018C147.246 17.2964 147.023 17.8676 146.493 18.4388L146.479 18.4667L146.465 18.4945L146.451 18.5085L146.438 18.5224L146.431 18.5294L146.438 18.5572H146.417L146.41 18.5712H146.403L146.389 18.5851L146.347 18.606L146.319 18.7105V18.7174L146.326 18.7801L146.284 18.815L146.298 18.7662L146.18 18.7801C146.131 18.7871 146.117 18.808 146.096 18.8289L146.054 18.8846L145.992 18.9404L145.957 18.9682L145.929 18.9891L145.915 19.01V19.0239H145.901L145.887 19.0379L145.873 19.0727L145.852 19.0797L145.838 19.1006L145.811 19.0936L145.79 19.1145L145.762 19.1424L145.734 19.1702C145.72 19.2051 145.727 19.1842 145.692 19.226L145.671 19.2469L145.629 19.2747L145.602 19.2887L145.581 19.3096L145.574 19.3235L145.56 19.3374L145.539 19.3513H145.518L145.504 19.3653L145.476 19.3792C145.427 19.4071 145.434 19.421 145.407 19.428L145.337 19.4698L145.33 19.4837L145.253 19.5046L145.211 19.5603C145.128 19.5743 145.051 19.616 145.016 19.6857V19.7205L145.03 19.7345L145.051 19.7414V19.7554L145.044 19.7693C145.03 19.7763 145.023 19.7763 144.968 19.7345C144.912 19.7484 144.842 19.8181 144.821 19.839L144.773 19.9016L144.766 19.9295L144.717 19.9504C144.682 19.9017 144.689 19.9434 144.661 19.9365L144.585 19.9852L144.578 20.0131L144.592 20.0201V20.041L144.585 20.0619L144.55 20.0688L144.536 20.0758H144.515L144.501 20.0688H144.466H144.445L144.431 20.0619L144.376 20.0549C144.32 20.0479 144.243 20.0828 144.215 20.1315C144.201 20.1664 144.194 20.1942 144.125 20.2012C144.125 20.236 144.076 20.2221 144.09 20.2639L144.048 20.2848L144.034 20.2917L144.041 20.3196L144.069 20.3335V20.3544L144.083 20.3753C144.041 20.3823 144.055 20.3893 144.041 20.4102L144.02 20.4241L143.999 20.4171L143.992 20.3962L144.006 20.3893H143.986L143.972 20.4032L143.965 20.3962L143.958 20.4032L143.867 20.4311L143.846 20.5077L143.853 20.5216L143.777 20.5286H143.693H143.679H143.672L143.637 20.5495L143.623 20.5564V20.5773H143.609L143.602 20.5913L143.588 20.6052L143.575 20.6191L143.554 20.6331L143.533 20.647C143.491 20.6888 143.442 20.7167 143.407 20.7585L143.373 20.7654L143.338 20.7585H143.324L143.303 20.7445L143.261 20.7724L143.254 20.7794H143.247L143.24 20.8072L143.143 20.8421H143.122L143.108 20.856L143.087 20.849L143.059 20.8629C142.989 20.8769 142.955 20.8978 142.906 20.8838L142.843 20.8908L142.766 20.9187C142.69 20.9465 142.585 20.9674 142.578 20.9814L142.544 20.9883H142.502L142.446 21.0092L142.376 21.0162C142.355 21.0232 142.335 21.0371 142.293 21.0371H142.286L142.23 21.065C142.195 21.0859 142.14 21.0859 142.091 21.0928H142.084L142.077 21.0998L142.049 21.1277L142.035 21.1486H142.007L141.951 21.1346L141.833 21.1973L141.666 21.2461C141.38 21.3366 140.746 21.4969 140.196 21.5526C140.238 21.1625 140.44 20.8908 140.621 20.4241ZM139.611 25.2933V25.2793L139.625 25.2933H139.611Z" fill="#01432B"/>
<path id="Vector_3" d="M62.0243 25.7598C61.9895 25.8783 62.0034 25.9131 61.9964 25.9758L61.9546 26.2683L61.9477 26.2753L61.7944 26.4913L61.8083 26.54L61.8223 26.5609C61.6342 27.3132 61.3277 28.1561 61.4183 29.1244C61.4601 29.5563 61.5576 30.009 61.7805 30.427C61.8014 30.6011 61.8501 30.7683 61.9685 30.9285L62.0103 30.9564C62.0939 31.1166 62.1497 31.0818 62.2611 31.1306C62.289 31.1584 62.3935 31.3117 62.491 31.3326C62.6164 31.4231 62.7348 31.4928 62.8532 31.5415L62.8811 31.5555L62.9577 31.5903C64.7131 32.2521 66.8447 28.2954 67.0537 28.2327C67.1094 28.1004 67.1233 28.0098 67.1791 27.9193C68.5165 25.7668 71.2472 22.1863 71.7766 22.451L71.7696 22.4859V22.5416L71.7975 22.5903V22.5973C71.7975 22.6321 71.7835 22.7157 71.7626 22.7784C71.7557 22.8132 71.7417 22.855 71.7348 22.8968C71.7208 22.9665 71.7208 23.0292 71.7208 23.0989L71.7975 23.1267C71.7905 23.1755 71.8323 23.2451 71.8253 23.2591C71.7696 23.6352 71.7208 24.0183 71.6721 24.3527L71.6651 24.3875V24.4015L71.6581 24.4084L71.6651 24.4224L71.6512 24.4433L71.6651 24.4642L71.6581 24.4781L71.6651 24.492L71.6581 24.499L71.6512 24.5129V24.5338L71.6651 24.5547V24.5756L71.6581 24.5965L71.6721 24.6105L71.6442 24.6174L71.6512 24.6523L71.6581 24.6731L71.5746 25.3906L71.5955 25.3976C71.6024 25.5578 71.491 30.0021 74.2843 30.8798C75.0784 31.1306 75.6357 31.1445 76.3183 30.9982C77.0289 30.8659 79.1395 29.8279 80.4491 27.6894C80.3098 29.0617 80.7905 30.4131 81.6333 31.0121C81.6333 31.0121 81.9189 31.242 82.0861 31.3047C82.2603 31.3744 82.4275 31.451 82.4275 31.451C83.5699 32.0431 86.6767 31.1932 88.7316 27.9611C88.7177 28.1143 88.7107 28.2467 88.7246 28.2885V28.3303L88.7316 28.3233C88.7386 28.3651 88.7455 28.3999 88.7525 28.4417C88.7525 28.4765 88.8013 28.5114 88.8082 28.5392L88.8222 28.588L88.8361 28.6159C88.8779 28.7621 88.9406 28.9015 89.0172 29.0338V29.0408L89.0242 29.1104L89.066 29.1453C89.0312 29.2567 89.0938 29.208 89.1565 29.2846C89.268 29.4936 89.4212 29.6468 89.5675 29.7792C90.2014 30.3573 94.158 32.6143 99.2362 24.4781C99.0272 25.4324 98.8113 26.4564 98.6093 27.3899C98.5048 27.8844 98.456 28.4347 98.3933 29.0059C98.3376 29.605 98.2749 30.2598 98.4142 30.9773C98.4839 31.3256 98.6093 31.7296 98.9367 32.0431L99.0203 32.0988C99.083 32.1824 99.1457 32.266 99.2223 32.3287C99.2571 32.3635 99.3059 32.3983 99.3546 32.4192L99.3616 32.4262C99.3964 32.4471 99.4313 32.461 99.4731 32.4819C99.5497 32.5168 101.082 32.886 100.811 32.1476C100.434 31.1514 101.5 25.9827 102.106 24.2622C102.378 23.482 102.371 23.4959 102.552 22.6112L102.594 22.3605C102.622 22.0609 102.747 21.9286 102.872 21.6151V21.4201C103.66 19.5253 104.182 17.4634 104.927 15.506C105.471 13.9317 105.861 12.6918 106.383 10.7413C107.665 10.6159 109.727 10.6856 111.009 10.4975C112.813 10.2328 116.47 10.3303 118.567 10.2258V10.2467C119.242 10.1771 120.231 10.2467 121.06 10.2885L121.75 10.2049C124.007 10.3582 126.278 10.5672 128.563 11.006C129.705 11.2359 130.868 11.424 131.941 11.8768C132.478 12.1066 132.986 12.4131 133.404 12.8172C133.557 12.9704 134.135 13.8063 133.787 14.2382C133.474 14.6283 134.428 14.8094 135.257 14.0641L135.389 13.9178C135.473 13.8202 135.55 13.7088 135.612 13.5555C135.842 13.256 136.002 12.6987 135.919 12.0579L135.891 12.0091C135.877 11.9534 135.87 11.8977 135.849 11.8489C135.752 11.5842 135.682 11.3752 135.508 11.1593C135.417 11.0478 135.382 10.9712 135.306 10.8528C135.271 10.804 135.125 10.6786 135.118 10.6786C135.111 10.6717 135.076 10.6159 135.069 10.5811C135.062 10.5463 135.055 10.5602 135.048 10.5463L135.013 10.5184L134.999 10.4905L134.978 10.4766L134.985 10.4209L134.95 10.4139L134.923 10.3791L134.888 10.3443L134.853 10.3164L134.588 10.1144C134.526 10.0656 134.463 10.0099 134.414 9.96114C134.33 9.85665 134.24 9.84271 134.177 9.79395C133.599 9.44565 133.146 9.22275 132.54 8.97894L132.492 8.9859L132.45 8.965C132.317 8.95804 131.676 8.74209 131.468 8.6794C131.245 8.60277 131.077 8.59582 130.834 8.56795L130.778 8.56098H130.75H130.729H130.687L130.639 8.54704L130.604 8.55402L130.569 8.54704H130.541L130.513 8.55402C130.478 8.54705 130.492 8.54705 130.457 8.53312H130.416L130.381 8.51919L130.339 8.51222H130.332C130.29 8.49829 130.242 8.49132 130.2 8.48435H130.193L130.186 8.47739C129.831 8.3938 129.622 8.3102 129.252 8.25448L129.245 8.22662L129.224 8.21268L129.211 8.21966C129.127 8.24055 129.12 8.23358 129.12 8.23358L128.904 8.24055C128.507 8.14303 128.033 8.23358 127.636 8.21268C127.441 8.19875 127.295 8.12909 127.1 8.09426L126.8 8.04551L126.654 8.01764C126.64 8.01764 126.584 8.03854 126.543 8.04551L126.473 8.0246C126.278 8.07336 126.111 8.13606 126.09 8.0246C125.985 8.0037 125.79 8.03854 125.762 8.04551H125.7L125.651 8.05943L125.588 8.05247L125.533 8.05943C125.512 8.07336 125.484 8.0664 125.449 8.05943C125.414 8.0455 125.365 8.06641 125.331 8.06641C125.296 8.07337 125.247 8.07336 125.219 8.05943L125.101 8.07337L125.094 8.06641L125.101 8.05943L125.038 7.99674C125.003 7.97584 124.968 7.96192 124.94 7.94799C124.773 7.92012 124.725 7.92709 124.613 7.91315C124.383 7.89226 123.937 7.86439 123.687 7.89226C123.687 7.89226 123.652 7.91315 123.575 7.92708C123.498 7.93404 123.464 7.94102 123.38 7.93405L123.345 7.92708L123.283 7.89226L123.213 7.87832L123.101 7.86439L122.899 7.84349L122.697 7.82259L122.607 7.8017C122.565 7.7808 122.495 7.78776 122.475 7.78776L121.848 7.8017H121.743C121.729 7.8017 121.722 7.82259 121.68 7.82259C121.632 7.82259 121.639 7.82956 121.583 7.82956C121.527 7.82956 121.534 7.84349 121.513 7.82956H121.457L121.409 7.81563L121.374 7.82956L121.339 7.82259H121.311L121.255 7.81563L121.172 7.82259C121.026 7.85046 120.872 7.82956 120.719 7.82956C120.51 7.83652 120.252 7.83652 120.043 7.84349H120.05L119.681 7.83653C119.639 7.83653 119.605 7.82259 119.584 7.82259L119.507 7.82956C119.486 7.82956 119.472 7.80866 119.437 7.80866C119.061 7.7808 118.908 7.86439 118.622 7.83653C118.581 7.83653 118.483 7.87136 118.455 7.87832L118.379 7.85045H118.309L118.232 7.84349C118.211 7.84349 118.232 7.86439 118.184 7.85045C118.142 7.83652 118.149 7.82956 118.135 7.85045L118.058 7.85743L117.995 7.87136L117.919 7.85045C117.891 7.83652 117.905 7.84349 117.856 7.84349C117.807 7.84349 117.786 7.86439 117.786 7.86439L117.71 7.85045L117.661 7.85743L117.612 7.84349L117.536 7.85045C117.522 7.86439 117.536 7.85046 117.487 7.83653C117.438 7.8226 117.445 7.84349 117.382 7.84349C117.264 7.84349 117.153 7.85046 117.034 7.84349C116.762 7.83652 116.533 7.87135 116.219 7.88528C116.031 7.91315 114.004 7.98978 113.816 7.98978V7.97585V7.98281V7.98978C113.482 7.99675 111.148 8.07337 109.448 8.18482C109.204 8.19179 108.968 8.21966 108.738 8.24055C108.501 8.25449 108.369 8.3729 108.132 8.37987C108.006 8.38684 107.902 8.29628 107.762 8.31718L107.588 8.34504L107.122 8.40077L107.066 8.4147L107.031 8.44256H106.982C107.198 7.57879 107.623 6.17864 107.749 4.9387C107.79 4.54165 108.167 1.609 106.077 1.77618L106.063 1.72742C105.624 1.73438 105.735 1.74832 105.304 1.80404L104.997 1.85281L104.83 1.84584C104.781 1.83887 104.691 1.8528 104.649 1.86673C104.614 1.8737 104.6 1.8946 104.579 1.90156L104.544 1.90853L104.523 1.92942L104.489 1.92246L104.468 1.92942L104.426 1.9364L104.377 1.95033C104.335 1.98516 104.21 1.99213 104.091 2.02696L104.084 2.01998L104.036 2.01302H103.98L103.882 2.02696L103.792 2.04088H103.757L103.736 2.05482L103.687 2.04785L103.576 2.06875C103.506 2.09661 103.409 2.11054 103.437 2.18717C103.492 2.36132 103.541 2.43794 103.583 2.54243L103.653 2.69568L103.667 2.75141L103.674 2.84197C103.667 2.93252 103.667 2.93252 103.674 3.00218C103.68 3.07184 103.653 3.11363 103.653 3.12756C103.653 3.14149 103.646 3.16937 103.66 3.21116C103.673 3.25992 103.667 3.31565 103.667 3.31565L103.646 3.39227L103.653 3.55946C103.653 3.55946 103.667 3.7336 103.667 3.81719L103.639 3.86596C103.66 4.15156 103.618 4.19335 103.639 4.47895C103.618 4.54165 103.611 4.91781 103.604 4.9596C103.597 5.00836 103.569 5.10589 103.562 5.15465C103.555 5.20341 103.527 5.25913 103.52 5.29396C103.513 5.32879 103.513 5.39846 103.506 5.41935L103.485 5.48901C103.492 5.51687 103.465 5.74675 103.444 5.79551C103.332 6.11594 103.256 6.93792 103.116 7.70417L103.102 7.73901L103.061 7.87136C103.054 7.96192 102.977 8.0246 103.012 8.11516L102.998 8.15696C102.963 8.27538 102.921 8.49829 102.893 8.6585C102.907 8.71423 102.726 8.69333 102.615 8.72119L102.239 8.76996L101.612 8.84658L101.591 8.81175L99.5706 9.14611L98.5605 9.3133L98.059 9.39689L97.5365 9.43172L97.5156 9.43869H97.5087L97.4947 9.43172L97.4111 9.38993L97.3345 9.34813L97.2927 9.32723L97.2649 9.3133L97.244 9.30634H97.2231C97.2022 9.27847 97.0698 9.25757 97.028 9.21578C96.9932 9.18095 97.0002 9.18095 96.9862 9.16702L96.9444 9.13219C96.9096 9.09736 96.8608 9.09736 96.8399 9.0904C96.7912 9.07646 96.7424 9.05556 96.6936 9.02769C96.4986 8.93017 96.2966 8.84659 96.0876 8.763L96.0806 8.75602C96.0528 8.72119 96.0528 8.72816 96.0388 8.72119L95.9831 8.68637L95.8786 8.63761L95.6766 8.54704L95.4816 8.4565L95.4049 8.40773L95.398 8.38683C94.9591 8.25448 94.5481 8.07337 94.1441 7.95495L94.172 7.96191L94.1023 7.94101C93.9978 7.91315 93.8934 7.87832 93.7889 7.84349C93.566 7.76687 93.0644 7.61361 92.8415 7.55789C92.7858 7.54395 92.744 7.57878 92.7161 7.57878L92.6673 7.54396L92.6395 7.53003L92.5907 7.54396L92.5211 7.50913C92.4932 7.50216 92.4514 7.50913 92.3957 7.48823C92.2564 7.44644 92.117 7.41857 91.9777 7.38374L91.9708 7.37678L91.9359 7.35588L91.8872 7.33498L91.7966 7.30015L91.6294 7.23049L91.302 7.10511L91.2742 7.09117L91.2393 7.07725C90.5497 7.00759 89.8601 6.93095 89.1635 6.86129L89.1008 6.77771L89.059 6.78467C88.857 6.7986 88.6062 6.77074 88.3903 6.78467L88.1465 6.70108C88.1674 6.66625 87.9862 6.66625 87.9862 6.64535L87.8678 6.58266L87.7494 6.58962L87.3802 6.56873C87.415 6.54783 86.8787 6.51997 86.9344 6.49907C86.0637 6.50604 85.5134 6.39459 84.6705 6.40155L84.573 6.42941C84.5242 6.42244 84.4754 6.42245 84.4267 6.40155C84.2874 6.38065 84.155 6.36671 84.0296 6.35975L83.9251 6.35279L83.8833 6.36672L83.8485 6.33885L83.7928 6.33189H83.6952H83.6465C83.4306 6.33189 83.2216 6.34582 83.0195 6.36672C82.922 6.35279 82.8315 6.33886 82.7549 6.38762C82.6713 6.39458 82.5946 6.40155 82.511 6.40851C82.4832 6.40851 82.4344 6.40155 82.3856 6.40851C82.3369 6.41548 82.3369 6.40852 82.316 6.40155C82.2951 6.39459 82.2812 6.41548 82.2463 6.40155L82.1767 6.38065L82.1697 6.38762L82.1558 6.38065L82.107 6.36672L82.0234 6.35975L81.8632 6.35279L81.5497 6.34582C81.3477 6.34582 81.1248 6.33189 80.9576 6.32493L80.9019 6.31795C80.7417 6.36671 80.477 6.35975 80.268 6.37368C80.0381 6.39458 79.8361 6.35975 79.5784 6.42941L79.4878 6.43637C79.3137 6.46424 79.2371 6.44334 79.0629 6.45727L79.049 6.40851C78.9515 6.41548 78.8609 6.41548 78.7634 6.42245L78.7564 6.40155C78.7216 6.40155 78.645 6.39458 78.631 6.38762H78.5544C78.5405 6.38762 78.4708 6.38065 78.436 6.38065C77.8717 6.38065 77.3632 6.5339 76.8756 6.5966C76.7502 6.61053 76.6318 6.62446 76.5134 6.62446C76.4646 6.63142 76.381 6.61052 76.3183 6.64535L76.1512 6.68715C76.0397 6.71501 75.9213 6.73591 75.8098 6.75681L75.6426 6.7986L75.5591 6.82647L75.5033 6.86129L75.4964 6.86827C75.1481 6.82647 74.751 6.8822 74.4654 6.98669L74.3748 6.96579L74.3261 6.98669L74.2425 6.97275H74.1311C74.1032 6.97972 74.0475 6.97275 73.9778 6.97275C73.8733 6.97275 73.7619 7.00758 73.6713 7.02848L73.4763 7.07725C73.3509 7.11208 73.2325 7.1469 73.1071 7.18173C72.8702 7.25139 72.6403 7.32104 72.4105 7.38374C72.2921 7.40464 72.1876 7.46733 72.097 7.43947C71.902 7.42553 71.8532 7.5161 71.7417 7.54396C71.5397 7.62755 71.3516 7.71114 71.1427 7.73901L71.08 7.80866L71.0242 7.82956C70.9894 7.81562 70.9685 7.84349 70.9198 7.85743L69.5475 8.33808C69.2897 8.4356 69.1434 8.60278 68.9345 8.72817C68.7464 8.82569 68.4887 8.91625 68.2866 9.03467C67.7781 9.32027 67.3323 9.6825 66.9283 10.1005C66.9004 10.1562 66.8517 10.1283 66.8517 10.191C66.8517 10.2537 66.8308 10.2607 66.8099 10.2816L66.789 10.3025L66.7333 10.3512L66.6705 10.3791C66.6705 10.393 66.7123 10.3652 66.6705 10.393C66.6287 10.4209 66.58 10.4348 66.58 10.4348L66.5382 10.4557C66.5243 10.4836 66.4964 10.4696 66.4894 10.5114C66.4825 10.5532 66.4616 10.5393 66.4407 10.5393H66.371L66.3222 10.6438C66.0366 10.9851 65.9322 11.0478 65.6814 11.5842C65.5839 11.7862 65.4654 11.9534 65.4585 12.5037C65.4585 12.7893 65.5421 13.0192 65.6257 13.2769C65.7232 13.5277 65.8486 13.7785 66.0436 13.9874C66.1411 14.0989 66.775 16.5509 80.3655 14.6422C84.5381 14.0571 89.0033 13.2142 90.7169 12.8659C91.6573 12.6709 92.9181 12.4549 94.381 12.2181L94.4506 12.2111L94.5064 12.1972C95.391 12.0579 96.0667 11.9116 97.0768 11.7653C97.1395 11.7583 97.2022 11.7514 97.2649 11.7444C98.4073 12.7823 98.665 13.6461 99.1178 14.6492L99.1457 14.7049L99.1944 14.8233C99.2501 15.0393 99.2919 15.0393 99.3895 15.2552C99.4591 15.4433 99.5358 15.6384 99.5984 15.8264C99.9328 16.8783 100.163 17.965 100.198 19.0238C98.1495 24.4224 94.5063 28.1352 92.5559 28.1213C91.6225 28.1143 91.5249 27.1391 91.6085 25.7807C91.6155 25.6902 91.6225 25.6066 91.6294 25.53V25.5021C91.6503 25.321 91.7339 24.9518 91.7478 24.9239L91.72 24.8543L91.7339 24.7637L91.6852 24.8055V24.7985V24.7637C91.6921 24.7289 91.7269 24.6871 91.7548 24.6523C91.7896 24.6035 91.7339 24.5826 91.7339 24.5826C91.7339 24.5826 91.7339 24.5129 91.7269 24.4781C91.72 24.4433 91.6991 24.3875 91.6991 24.3875C91.6991 24.3875 91.727 24.3249 91.7339 24.2691C91.7409 24.2134 91.6921 24.1995 91.72 24.1228C91.7479 24.0462 91.727 24.0392 91.72 23.9975C91.713 23.9557 91.713 23.9278 91.713 23.9278L91.6852 23.8512C91.6643 23.8303 91.6643 23.7885 91.6503 23.7536C91.6434 23.7188 91.6503 23.7049 91.6016 23.691C91.5807 23.684 91.504 23.6422 91.4274 23.5865C91.3647 23.5307 91.2881 23.482 91.1975 23.4472C91.107 23.4123 90.8005 23.266 90.689 23.2382C90.6542 23.2312 90.6124 23.2173 90.5567 23.2103C90.4661 23.1964 90.3686 23.1964 90.2641 23.2103C89.6651 23.1755 89.1217 23.5098 89.1008 23.5377L89.0311 23.6283L88.9754 23.7188L88.8918 23.7815C88.8709 23.8024 88.85 23.8024 88.8222 23.8581C88.8013 23.9139 88.8013 23.9487 88.7595 23.9975C88.7177 24.0462 88.6968 24.0741 88.6619 24.1298C88.6271 24.1855 88.5435 24.4711 88.5157 24.5408C88.4808 24.6035 88.4321 24.6314 88.4112 24.6662C88.4042 24.6871 88.3972 24.7567 88.3833 24.8194L88.3415 24.91C88.2928 24.9448 88.237 25.1608 88.2161 25.2235C88.1952 25.2861 88.1534 25.2722 88.1186 25.3279C88.0977 25.3628 88.0838 25.4394 88.0559 25.5021L88.0002 25.5857C87.9375 25.6275 87.826 25.8713 87.7982 25.927C86.7394 27.9959 85.0884 29.1035 84.2316 28.6786C83.4236 28.2745 84.1341 25.7111 84.4476 24.6174C84.6148 24.0323 84.8028 23.7328 84.9979 23.2173L85.0188 23.2312C85.2347 22.5694 85.5551 21.9077 86.001 21.3852C86.5304 20.6329 86.7881 20.3055 87.2618 19.8667C87.624 19.6159 87.826 19.3582 88.1325 19.1979C88.5435 18.989 88.9197 18.8984 89.2401 19.2815V19.2885L89.3237 19.3164L89.3376 19.3373L89.3167 19.3582L89.3516 19.379H89.3585C89.463 19.5462 89.5188 19.7343 89.5815 19.9015C89.5745 19.9781 89.6929 19.8736 89.7068 19.9572L89.6929 19.9851L89.6859 20.0408C89.6859 20.0826 89.6859 20.1105 89.6999 20.1383C89.7068 20.1732 89.6859 20.1871 89.679 20.201L89.672 20.2568L89.7138 20.2846L89.7068 20.3473L89.7277 20.3752C89.7277 20.3752 89.7208 20.417 89.7695 20.4727L89.7486 20.5075C89.7068 20.5842 89.7208 20.6608 89.6859 20.7374L89.672 20.7792C89.8044 21.7614 89.5745 21.9007 90.0482 22.0679C90.3616 22.1793 91.3229 21.9564 91.8245 20.612C92.1797 19.6577 92.131 17.3659 90.4592 16.523C90.2432 16.4255 89.9855 16.3628 89.9715 16.3489C89.9576 16.3349 89.8322 16.321 89.7904 16.3071C89.7486 16.2932 89.679 16.2862 89.6372 16.2514C89.5954 16.2165 89.5814 16.314 89.5536 16.314L89.477 16.2723C89.463 16.2444 89.4352 16.2722 89.4003 16.2653C89.3655 16.2583 89.3446 16.2653 89.3098 16.2374C89.2749 16.2096 89.261 16.2374 89.2123 16.2514C89.1635 16.2653 89.1565 16.2583 89.1147 16.2096C89.0729 16.1678 89.0172 16.2026 88.9336 16.2096C88.7107 16.1747 88.3903 16.1469 88.1813 16.1538C88.1325 16.1608 88.0838 16.1817 88.035 16.1956H88.0211L87.8887 16.2583C87.8121 16.3419 87.7146 16.2792 87.5962 16.3071C87.3872 16.3558 87.0459 16.4255 86.8787 16.5578C86.8299 16.5857 86.7951 16.6275 86.7533 16.6623L86.6906 16.6484L86.6488 16.725L86.5931 16.7181L86.5513 16.7529C86.5304 16.7599 86.5165 16.7808 86.4747 16.7668C86.4329 16.7529 86.3911 16.7947 86.3423 16.8226C86.1751 16.8992 85.994 16.9688 85.9104 17.1012C85.8547 17.1569 85.7572 17.15 85.6736 17.2057C85.6109 17.2684 85.5621 17.2823 85.4925 17.338C85.3671 17.4425 85.2208 17.5331 85.0745 17.6376C84.9422 17.749 84.6356 17.9371 84.5939 18.153L84.6147 18.1391L84.6078 18.16L84.6287 18.153L84.5381 18.2297L84.5172 18.1809L84.5103 18.16L84.4963 18.167L84.4476 18.2018C84.1968 18.3551 84.1341 18.5362 83.9391 18.7939C83.8694 18.9054 83.7649 18.982 83.6604 19.0656L83.5908 19.1143L83.5838 19.1283L83.549 19.1561C83.5072 19.2188 83.4654 19.2885 83.4236 19.3582L83.4096 19.5462C83.3609 19.6229 83.2773 19.588 83.2216 19.6716C83.1728 19.7134 83.138 19.7482 83.138 19.7691L83.1171 19.8318L83.0613 19.8945L83.0544 19.9433L83.0056 19.9572L82.9778 20.0269L82.922 20.0617C82.7966 20.2359 82.6713 20.5284 82.5459 20.7304C82.4414 20.9046 82.323 21.1832 82.1976 21.3643C82.0792 21.5385 82.0443 21.8937 81.8702 22.0331C81.8353 22.0679 81.8214 22.0818 81.8284 22.1167C81.8353 22.1585 81.8145 22.1933 81.8145 22.1933C81.8145 22.1933 81.7448 22.1794 81.7518 22.2142C81.7657 22.249 81.8354 22.256 81.8075 22.2629C81.6264 22.3187 81.703 22.3465 81.5985 22.5346C81.4801 22.7506 81.4731 22.7645 81.3826 22.9944C80.6442 24.8264 79.3624 26.8187 77.9484 27.9402C77.6976 28.1422 77.5026 28.2258 77.2239 28.379H77.203L77.1682 28.386L77.1612 28.3651L77.1473 28.386L77.0846 28.4208H77.0637L77.0707 28.4347C77.001 28.4835 76.9592 28.4765 76.8965 28.5253L76.6597 28.5671C76.5761 28.5323 76.5343 28.581 76.5204 28.581L76.4646 28.5532L76.4089 28.5392L76.3601 28.5114H76.3323L76.2696 28.4905C76.2487 28.4696 76.2556 28.4347 76.2069 28.4278C74.4097 28.3303 75.1202 22.7436 75.2804 19.7413C75.371 17.9789 73.1419 17.7072 71.9925 18.7521C71.8253 18.9054 71.5815 18.989 71.491 19.2258L71.5537 19.184L71.5467 19.1979L71.4352 19.2815L71.4283 19.2676L71.4143 19.2188L71.3725 19.2397C70.9615 19.4626 70.6899 19.8388 70.3834 20.1592C70.3068 20.2359 70.2232 20.3125 70.1326 20.3752C70.0838 20.41 70.049 20.4309 69.9863 20.4657L69.8749 20.5981L69.443 21.1136L69.3942 21.1763L69.3524 21.2181L69.3176 21.2459L69.2897 21.2738L69.241 21.3016L69.227 21.3434L69.1922 21.3783V21.3992L69.1644 21.4201L69.1504 21.4549L69.1086 21.4758C69.0947 21.4897 69.0738 21.4619 69.0668 21.5037C69.0599 21.5455 69.0111 21.5663 68.9972 21.5803L68.3563 22.2908C68.1961 22.4859 68.0219 22.653 67.8478 22.8341C67.8478 22.8341 67.7921 22.9038 67.7572 22.9247C67.7224 22.9456 67.6597 23.064 67.6597 23.064L67.6318 23.0989L67.5831 23.1546L67.5413 23.2033L67.4925 23.2591L67.4786 23.273C67.4298 23.3218 67.3811 23.3636 67.3184 23.3984H67.3114C67.2836 23.4402 67.2487 23.482 67.2209 23.5307L67.193 23.5029L67.0816 23.6004L67.1303 23.6561L67.1094 23.684L67.1303 23.7118C67.0606 23.7954 66.998 23.879 66.9283 23.9626L66.7611 24.1646L66.6775 24.2552C66.6497 24.2831 66.58 24.297 66.6218 24.3736L66.6079 24.3527C66.2317 24.8403 65.8486 25.3419 65.5003 25.7947C65.4167 25.8992 65.3401 26.0036 65.2634 26.1012C65.0127 25.732 67.5413 20.1035 67.7154 18.773C67.7363 18.78 67.7503 18.78 67.7503 18.8148C67.8269 18.4456 67.9871 18.1321 67.9801 17.756L68.001 17.763C68.1961 16.5579 66.4616 16.0493 64.6644 16.5161L64.6504 16.5648C64.5529 16.5997 64.5042 16.7181 64.4693 16.8017C64.4275 16.8992 64.3927 16.9758 64.3857 17.0106L64.2882 17.15C64.2673 17.1848 64.2255 17.2127 64.2255 17.2753C64.2255 17.338 64.2185 17.4077 64.1977 17.4495C64.1768 17.4983 64.1559 17.6167 64.128 17.7212C64.1071 17.8257 64.0862 17.8326 64.0583 17.8814C64.0305 17.9301 64.0444 17.9719 63.9956 18.0555C63.9469 18.1391 63.8981 18.1391 63.8981 18.2157C63.8981 18.2924 63.919 18.2715 63.8911 18.362C63.8633 18.4526 63.8842 18.5292 63.8842 18.5292L63.8494 18.6128C63.8494 18.6128 63.8424 18.6198 63.8215 18.6755C63.8076 18.7103 63.8006 18.773 63.7867 18.8427C62.289 21.8868 59.4539 24.7776 56.3471 27.5152C56.5839 26.0733 56.772 24.9448 56.8277 24.6314C57.0158 23.5725 57.183 22.4928 57.0924 21.3365C57.0924 21.0857 56.8974 19.4139 55.3997 19.5393C54.9399 16.3419 53.0731 16.2305 52.5994 16.2514C52.5506 16.2514 52.4531 16.2792 52.4322 16.2723L52.3556 16.2862C52.3347 16.2862 52.2859 16.3141 52.2441 16.3071C52.2023 16.3071 52.1605 16.321 52.1118 16.328L52.0909 16.3349L52.07 16.328C52.0212 16.321 51.9794 16.321 51.9376 16.328L51.9307 16.321C51.8889 16.3001 51.8819 16.3071 51.861 16.3071L51.7774 16.3349L51.7287 16.3489C51.7078 16.3628 51.7078 16.3907 51.666 16.3837C51.5127 16.3628 51.3386 16.5091 51.2759 16.4812H51.2341C51.053 16.5648 51.0181 16.5857 50.8858 16.6832L50.8301 16.6693H50.7883L50.7465 16.6902H50.6977H50.628C50.5932 16.6902 50.5932 16.7111 50.5653 16.725L50.4957 16.7599L50.426 16.7877L50.3703 16.8156L50.3424 16.8226L50.3355 16.8295L50.3146 16.8365L50.3076 16.8435H50.2798L50.238 16.8783C50.2031 16.9131 50.1962 16.9131 50.1544 16.941C50.0499 17.0037 49.9941 17.0455 49.8757 17.136L49.8618 17.1778L49.7852 17.2057C49.7503 17.2266 49.7225 17.2475 49.7085 17.2544L49.6876 17.2614L49.6528 17.2753L49.6041 17.2962L49.5553 17.3241C49.5065 17.352 49.4717 17.3938 49.4508 17.4495L49.402 17.4913L49.3672 17.5122L49.3533 17.5331L49.3463 17.547L49.3393 17.5609L49.3185 17.5679L49.3115 17.5818H49.2906L49.2836 17.5958H49.2767L49.2627 17.6097L49.2488 17.6027L49.2349 17.6097L49.1861 17.6445L49.1095 17.6933C49.0537 17.7281 49.0189 17.756 48.9632 17.7839C48.9075 17.9162 48.8099 17.8605 48.7473 18.0486L48.7263 18.0764C48.7054 18.1182 48.6706 18.1321 48.6358 18.16H48.601L48.5801 18.1461L48.5522 18.16C48.3641 18.3342 48.2318 18.6058 48.1133 18.6685L48.0855 18.7034C48.0507 18.78 48.0367 18.8636 47.981 18.9193C47.9392 18.9541 47.8695 19.0099 47.8556 19.0308L47.772 19.1213L47.7163 19.184L47.6675 19.2537L47.5839 19.3164C47.5839 19.3373 47.4864 19.3651 47.4516 19.4208C47.4237 19.4696 47.4028 19.5114 47.375 19.5532C47.3471 19.595 47.3123 19.6925 47.2496 19.6855H47.2356L47.2287 19.7064C47.2078 19.7691 47.2078 19.7482 47.1799 19.7831L47.1381 19.8249L47.1242 19.8806L47.1381 19.8876H47.1451C47.0476 19.9921 46.9709 20.1035 46.8734 20.1871C46.7898 20.2219 46.7968 20.3473 46.7829 20.41C46.7968 20.4797 46.6993 20.4936 46.6575 20.5633C46.5251 20.6956 46.4764 20.8907 46.4137 21.0578C46.4137 21.0578 46.4206 21.0787 46.3579 21.1136C46.3022 21.1484 46.3579 21.1414 46.351 21.1623L46.3161 21.1902C46.2952 21.2111 46.3231 21.2459 46.2813 21.232C46.2395 21.2181 46.2465 21.2459 46.2116 21.2947C46.142 21.3992 46.0584 21.4479 46.0654 21.5803L46.0096 21.643C45.9818 21.643 45.9261 21.6639 45.9052 21.6987L45.8982 21.7057V21.7126C45.8703 21.8729 45.7658 22.0052 45.6822 22.1376C45.6265 22.256 45.5081 22.3465 45.5081 22.5067L45.4802 22.5555L45.4454 22.5973C45.2364 22.9038 45.2155 23.1058 45.1041 23.3427C45.0762 23.3984 45.0414 23.4541 44.9926 23.4959C44.916 23.5307 44.923 23.6283 44.9021 23.684C44.8812 23.7467 44.8533 23.7815 44.8533 23.8303C44.8533 23.879 44.8394 23.9208 44.8185 23.9557C44.8045 23.9905 44.8185 23.9835 44.8115 24.0184L44.7767 24.081L44.7558 24.1159L44.7279 24.1786C44.7279 24.1786 44.7418 24.1855 44.714 24.2204C44.6931 24.2552 44.6722 24.2622 44.6374 24.3457C44.4562 24.7916 44.2403 25.2374 44.0662 25.6414H44.0592C44.0452 25.6762 44.0383 25.7111 44.0313 25.7459L43.9965 25.7947L44.0035 25.8016C41.2519 30.211 39.8866 30.3016 39.4338 30.3016C38.0964 30.3155 38.2705 28.8875 38.2566 28.4556C38.2775 28.4626 38.2914 28.3233 38.2984 28.372C38.3193 27.8844 38.4656 27.6615 38.5352 27.2087L38.584 27.0485C38.6397 26.4704 38.8278 25.927 39.0298 25.3976C39.1273 25.1259 39.2318 24.8821 39.3224 24.5965C39.392 24.3179 39.5731 23.9975 39.6149 23.7188C39.8378 23.1128 40.005 22.5555 40.3115 21.9355C40.6041 21.3156 40.9872 20.7165 41.0917 19.999C41.2032 19.2467 40.7852 18.5989 40.5553 18.3829C40.423 18.2575 40.2558 18.1461 40.1234 18.0695H40.1095H40.1025H40.0956C40.0189 17.9998 39.9423 17.9998 39.9354 17.9998L39.9145 17.9719L39.8866 17.958L39.8518 17.9371L39.8309 17.9092L39.7821 17.8883C39.7821 17.8814 39.7264 17.8535 39.6916 17.8326C39.6498 17.8117 39.6219 17.8117 39.6149 17.8117L39.5592 17.7839L39.5244 17.756L39.4826 17.7281L39.406 17.6794L39.3572 17.6515H39.3363L39.2875 17.6376H39.2666V17.6445C39.19 17.6376 39.1204 17.6097 39.0368 17.5958C38.988 17.5888 38.981 17.5749 38.9253 17.5888H38.8765C38.8208 17.5888 38.786 17.561 38.7303 17.547L38.7233 17.5122H38.7163V17.4983L38.6885 17.4843H38.6606L38.6397 17.4913L38.5909 17.4843L38.584 17.4913H38.577H38.5631V17.4983L38.5422 17.4913L38.5282 17.4774H38.5073H38.4934L38.4586 17.4704H38.4168C38.382 17.4774 38.4029 17.4774 38.3611 17.4704C37.1769 17.3659 37.1211 17.7421 37.5043 18.2227C37.546 18.2715 37.5182 18.2645 37.5461 18.2784H37.5391L37.56 18.2993L37.5809 18.3829L37.5391 18.4317L37.5321 18.4456L37.5391 18.4596C37.5809 18.5571 37.6296 18.6616 37.5809 18.7173L37.6087 18.7382V18.7661H37.6227C37.6018 18.9193 37.5809 19.0725 37.5252 19.2049C37.4555 19.2676 37.5182 19.393 37.5112 19.4626C37.5321 19.5323 37.4416 19.5811 37.4137 19.6577C37.3162 19.8249 37.1629 20.6469 36.9679 21.0091L36.9748 21.023V21.0369C36.9748 21.1205 36.8843 21.1066 36.8355 21.1902V21.1972C36.8286 21.3713 36.745 21.5315 36.6753 21.6848C36.6335 21.8102 36.4872 22.0679 36.4872 22.2211C36.3061 22.458 36.3131 22.7923 36.2295 23.0571C36.0693 23.2591 35.9439 23.9278 35.8812 24.1855C35.7558 24.6871 35.5747 25.1747 35.4354 25.6414L35.4284 25.6484L35.4145 25.7389H35.4075L35.3936 25.7668L35.4075 25.8434V25.8782L35.4354 25.8991C35.4006 26.0594 35.3797 26.2266 35.31 26.3519L35.303 26.3589L35.3239 26.4146C35.1149 27.6615 34.8433 28.6785 35.3727 30.016C35.4284 30.1553 35.505 30.2807 35.5817 30.4061C35.6095 30.4618 35.6304 30.5315 35.6583 30.5872C35.7628 30.7892 35.8951 30.9773 36.0414 31.1445C36.2295 31.4579 36.3688 31.6878 36.7101 31.855L36.8495 31.9177C36.9888 32.1197 37.2117 32.057 37.3719 32.0988L37.4625 32.1336L37.4346 32.1267C37.5948 32.1754 38.0128 32.2242 38.1869 32.2521C38.2217 32.266 38.2635 32.273 38.3123 32.273C38.3541 32.2799 38.4307 32.2451 38.4656 32.2521H38.4795C39.4477 32.3008 40.6877 31.8829 41.7744 31.0888C41.8022 31.0679 41.8022 31.0679 41.8092 31.0261L41.8579 30.9843L41.8858 30.9355C42.2132 30.7474 42.8471 30.0717 43.3487 29.4866C43.3626 30.3782 43.5785 30.8519 43.6134 30.9355C43.6343 30.9773 43.6134 31.0121 43.6343 31.0539L43.69 31.1027C43.7527 31.4092 43.8363 31.5624 44.0801 31.8271L44.1846 31.9386C44.296 32.0779 44.3866 32.1336 44.512 32.1476C44.5538 32.1545 44.5956 32.1615 44.6374 32.1754C44.6583 32.1824 44.8254 32.3008 44.9648 32.3078C45.111 32.3565 45.2573 32.3914 45.4245 32.4123L45.5081 32.4262C45.5499 32.4332 45.933 32.4471 45.9748 32.4541C46.7829 32.5237 47.7024 32.0361 48.6428 31.3813L48.9423 31.1654C49.1722 30.9912 49.409 30.8101 49.6389 30.6151L49.6458 30.6081L49.6528 30.6011L49.6667 30.5872C50.1056 30.218 52.7457 27.6058 53.7139 26.3728C53.5328 27.7382 53.3238 29.0408 53.08 30.2807C46.9222 35.3867 41.1056 39.9006 43.3974 43.7598C43.4114 43.8085 43.4392 43.8573 43.4601 43.906C43.5019 44.0175 43.6412 43.9757 43.6343 44.0872L43.5994 44.0384C43.6273 44.2125 43.8154 44.2265 43.9338 44.2961L43.9408 44.3031C44.094 44.5469 44.1776 44.533 44.5259 44.728L44.6025 44.7629C44.6722 44.7977 45.125 44.9161 45.2016 44.93C48.8378 45.6336 54.0762 40.3604 55.9082 30.1832C58.4299 28.0029 60.9237 25.7041 62.8045 23.3775C62.5746 24.1228 62.3099 24.8891 62.0243 25.7598ZM81.9816 12.2808C81.8284 12.3017 81.8145 12.2738 81.6612 12.2808L81.5985 12.2947C81.6403 12.3295 81.5567 12.3435 81.5846 12.3574C81.494 12.3644 81.4035 12.3644 81.3129 12.3783C81.2224 12.3922 81.1179 12.4549 81.09 12.448C81.0621 12.434 80.9994 12.434 80.9367 12.434C80.8741 12.434 80.888 12.4758 80.8462 12.4758C80.8044 12.4758 80.7278 12.4898 80.7278 12.4898C80.7278 12.4898 80.686 12.5455 80.6233 12.5107L80.6163 12.4549V12.434L80.5954 12.441C80.4073 12.4828 80.2262 12.5385 80.0242 12.5246L80.0172 12.5107L80.0242 12.4967L80.0451 12.4689L80.0103 12.4758H79.9963L79.9754 12.448L79.9476 12.4828C79.8849 12.4689 79.8988 12.5385 79.857 12.5594C79.8152 12.5803 79.7734 12.6012 79.6689 12.6082C79.5645 12.6151 79.1953 12.6987 79.1674 12.7127L79.1187 12.7545C79.1187 12.7545 79.0699 12.6639 79.0281 12.65C78.9863 12.636 78.9724 12.6918 78.9306 12.7057C78.8888 12.7196 78.8818 12.7823 78.8609 12.7545C78.847 12.7266 78.7634 12.7545 78.7285 12.7614C78.6937 12.7684 78.6868 12.7754 78.638 12.7545L78.5544 12.7475L78.4569 12.7823C78.429 12.7963 78.3454 12.7893 78.2967 12.7893C78.2479 12.7893 78.1783 12.8381 78.1156 12.8172L78.0529 12.7893H77.9832H77.9066L77.8787 12.7545L77.8578 12.7614L77.83 12.7266L77.8091 12.7614V12.7754L77.607 12.852C77.5304 12.8799 77.4608 12.9008 77.412 12.9216C77.3563 12.9425 77.3423 12.859 77.3214 12.8729L77.2448 12.9077L77.1473 12.8938C77.1194 12.9007 77.0707 12.9425 77.001 12.9356C76.9383 12.9216 76.8687 12.9774 76.8338 12.9774C76.799 12.9774 76.6806 12.9425 76.5552 12.8868L76.5134 12.8798C76.388 12.9077 76.2557 12.9495 76.1094 12.9983L76.0885 12.9843C76.0327 13.0052 75.97 13.0261 75.9074 13.047L75.8865 13.0401L75.8795 13.0052L75.8725 12.9704L75.8516 12.9913L75.8168 13.0122L75.7959 13.0052L75.8029 13.0192C75.6914 13.0331 75.2804 13.0819 75.2456 13.061C75.2108 13.047 75.2456 13.061 75.2317 13.0749L75.1829 13.0261L75.1133 13.047C75.0924 13.0749 75.0575 13.0401 74.9948 13.0401C74.9252 13.0401 74.8834 13.0401 74.765 13.054C74.6465 13.0679 74.6187 13.054 74.5838 13.0401C74.542 13.0261 74.5211 13.0331 74.4933 13.047C74.4654 13.061 74.4236 13.054 74.3958 13.0192C74.3679 12.9843 74.3261 13.0192 74.1937 13.0052C74.1311 12.9983 74.0405 12.9774 73.9778 13.0192C73.8106 13.0888 73.7897 13.1237 73.6504 13.1306C73.6225 13.1097 73.4066 13.1167 73.3509 13.1306C73.2951 13.1446 73.2742 13.1237 73.2533 13.1167C73.2324 13.1028 73.2115 13.1167 73.1349 13.1167C73.0653 13.1167 73.0653 13.1167 72.9886 13.1097C72.912 13.1028 72.9399 13.1097 72.8911 13.1237C72.8424 13.1376 72.8075 13.1306 72.7797 13.1237C72.7518 13.1167 72.717 13.1515 72.6821 13.1655C72.6473 13.1794 72.6194 13.1515 72.6055 13.1167C72.5916 13.0819 72.5637 13.1237 72.5359 13.1306C72.515 13.1376 72.4592 13.1306 72.4035 13.0888C72.3478 13.047 72.3617 13.0888 72.306 13.0958C72.2433 13.1028 72.2015 13.1097 72.1597 13.0958C72.1179 13.0819 72.097 13.1028 72.0622 13.1097C72.0273 13.1167 71.9925 13.1237 71.9716 13.0749C71.9507 13.0331 71.9019 13.061 71.8323 13.047C71.7696 13.0331 71.7487 13.0052 71.6512 12.9983L71.6372 13.0052C71.5885 13.0192 71.5328 13.0192 71.484 13.0261C71.4492 13.0401 71.3517 13.0261 71.3656 13.0958L71.282 13.047L71.2681 13.0401C71.2054 13.0122 71.1427 12.9983 71.073 12.9913C69.9794 13.0958 69.0111 12.7823 69.3455 11.9395C69.3803 11.8559 69.3942 11.8768 69.443 11.7862C69.4708 11.7514 69.4918 11.7096 69.5196 11.6747C69.7565 11.3195 69.9863 11.1384 70.4182 10.8667C70.6968 10.6856 71.1287 10.407 71.5606 10.2119C72.6125 9.75912 73.1767 9.45262 75.0018 9.07646C76.1163 8.84659 78.2479 8.47042 80.7626 8.27537C81.1179 8.3102 81.4801 8.35897 81.8284 8.32414L81.8841 8.30324C82.107 8.35897 82.1488 8.23358 82.3021 8.19179C82.3369 8.19179 82.3787 8.19179 82.4135 8.18482C82.4553 8.19179 82.4902 8.21268 82.5319 8.25448L82.5528 8.28931C82.6434 8.28234 82.6504 8.24751 82.7061 8.17785C82.9011 8.17089 83.0892 8.17089 83.2843 8.16393C88.446 8.25448 90.9259 8.6794 93.6147 9.36903V9.38993C93.8516 9.39689 94.1859 9.57801 94.4576 9.69643L94.994 9.97506C95.0427 9.99596 95.0706 10.0099 95.1054 10.0308C92.528 10.3025 87.7355 11.4588 81.9816 12.2808ZM99.1108 11.3961C99.8004 11.3125 102.266 10.8876 102.58 10.8458C102.399 11.8768 101.556 15.2622 101.256 16.3419C100.908 14.3218 99.9676 12.2251 99.1108 11.3961ZM52.2441 33.91C50.851 37.5601 47.9671 42.8612 45.8007 42.5407L45.7728 42.5338C45.6892 42.5129 45.6056 42.485 45.529 42.4571V42.478C45.1598 42.3457 45.1807 42.1158 45.1459 42.0183L45.1319 42.0113L45.111 41.9486L45.0553 41.9765L45.0274 41.9277L45.0205 41.8929L45.0065 41.8581L44.9926 41.8441C44.909 39.7056 48.3293 36.6824 52.4392 33.2064C52.3695 33.4432 52.3068 33.6801 52.2441 33.91ZM53.7766 23.1685C49.3602 29.2707 47.4655 29.6189 47.1312 29.4936C46.7968 29.3682 46.7132 28.8457 46.7132 28.581V28.5253L46.7271 28.4556L46.6993 28.3999C46.6923 28.2885 46.7062 28.184 46.7271 28.0864H46.7341V28.0725C46.8177 27.5919 47.0963 27.1878 47.2287 26.7142C47.4377 26.338 47.5003 25.8504 47.6536 25.4185C47.6884 25.3419 47.7302 25.2583 47.7651 25.1817C47.8068 25.105 47.8347 25.0145 47.8904 24.9448C48.0576 24.8334 48.1064 24.6035 48.1621 24.3806C48.2596 24.1925 48.3572 24.0044 48.4616 23.8163C48.9353 22.9595 49.1722 22.862 49.3672 22.256C49.9524 21.3225 50.5305 20.5145 51.0112 20.0269C51.1644 19.9503 51.1992 19.9363 51.3107 19.8249L51.4013 19.7552C51.5266 19.7552 51.4848 19.6786 51.5475 19.6438L51.5824 19.6159C51.6033 19.602 51.659 19.5532 51.7008 19.595L51.7287 19.5741C51.7635 19.5671 51.7426 19.5532 51.8053 19.5184C51.9585 19.4278 52.1954 19.4139 52.3277 19.4208C52.69 19.4348 52.9686 19.588 53.2263 19.8109L53.2472 19.8179L53.2542 19.8458L53.2472 19.8597L53.2751 19.8876L53.303 19.9154L53.3239 19.9572L53.3587 19.9712L53.3447 20.006V20.0269L53.3587 20.0408C53.6234 20.403 53.7557 21.2807 53.7557 21.2877V21.3156L53.7627 21.3295L53.7488 21.3434L53.7557 21.3574L53.7488 21.3992L53.7557 21.4758C53.7627 21.7126 53.8672 22.4023 53.7766 23.1685Z" fill="#01432B"/>
<path id="Vector_4" d="M40.3745 12.0509C40.3257 12.0579 40.3745 12.0927 40.3327 12.1415C40.2491 12.1066 40.3188 12.1833 40.2282 12.1902C40.2352 12.3713 40.2073 12.239 40.2352 12.3365L40.1725 12.3783C40.0959 12.3853 40.1446 12.5942 40.1028 12.6012C40.0401 12.8381 39.9356 12.9983 39.9565 13.3884C40.0123 13.4093 39.859 13.4929 39.8869 13.5207C39.8939 13.5555 39.8381 13.7158 39.8451 13.7506L39.873 13.7436C39.9008 13.9456 39.6083 14.6004 39.8172 14.7815L39.9914 14.9766C40.061 15.0741 40.1516 15.1925 40.2839 15.297C40.5417 15.4921 40.9457 15.6244 41.6214 15.4642C41.8443 15.4085 42.109 15.0532 42.2762 14.9627C42.318 15.0254 42.4643 14.7189 42.5548 14.7119C42.5897 14.6283 42.52 14.6701 42.5409 14.5586C42.5827 14.5586 42.6245 14.5586 42.6733 14.5726L42.6872 14.5517L42.722 14.5726V14.5168C42.7638 14.475 42.8126 14.4402 42.8683 14.4124C42.8753 14.3636 42.8962 14.3218 42.9171 14.287C43.0633 14.2591 43.0146 14.2382 43.2027 14.1755C43.1051 14.0083 43.2793 14.0432 43.3559 13.9526C43.3211 13.9317 43.4325 13.876 43.4395 13.8411C44.5053 12.7684 44.3033 12.0161 43.8226 11.5354L43.7669 11.4727H43.753C43.3907 11.1384 42.8822 10.9573 42.6872 10.8319C42.5618 10.7483 42.4225 10.7901 42.3877 10.7692L42.325 10.7344H42.2623L42.2065 10.6995L42.1926 10.6299L42.1508 10.6438L42.109 10.6368H42.0603L41.9836 10.602L41.9349 10.6229C41.907 10.6368 41.8861 10.609 41.8513 10.5811C41.8164 10.5602 41.7747 10.595 41.7468 10.609L41.6353 10.602H41.5308C41.503 10.609 41.4124 10.6577 41.3776 10.6368C41.3428 10.6159 41.294 10.6786 41.2313 10.6995C41.1686 10.7135 41.1408 10.7204 41.1129 10.7622C40.9945 10.9503 40.9596 10.9085 40.8621 10.9712C40.8134 11.006 40.7716 11.013 40.7646 11.0408L40.7507 11.1035L40.7158 11.1453L40.7089 11.1871L40.6949 11.2638L40.7158 11.3265C40.4442 11.3961 40.472 11.7305 40.3536 11.9116C40.4024 11.9534 40.3675 12.0091 40.3745 12.0509Z" fill="#01432B"/>
<path id="Vector_5" d="M30.1694 12.4829C29.7375 12.7198 29.7723 12.6153 29.5912 12.7685C29.431 12.8591 29.2708 12.9496 29.1175 13.0332C28.6438 13.2979 25.1539 14.8304 23.8861 14.3568C23.1408 14.0781 23.1408 13.4581 22.9039 14.099C22.8552 14.2174 22.8203 14.4055 22.7925 14.5797C22.486 16.6137 23.9836 17.7143 25.0494 17.9581C25.6973 18.1044 26.5332 17.9651 27.1392 17.8049C27.7452 17.6516 28.2955 17.4566 28.8319 17.171C29.8977 16.5789 30.9356 15.9728 31.9457 15.3459C32.9557 14.712 33.9101 14.0224 34.8087 13.3119C36.1392 12.3018 37.4836 11.1873 38.6817 9.85677C39.2808 9.19501 39.845 8.47055 40.2769 7.63464C40.3326 7.52318 40.3814 7.41174 40.4371 7.29332C40.4511 7.26545 40.472 7.22365 40.4859 7.18882C40.8063 6.4783 41.0571 5.70508 41.0501 4.86917L41.0432 4.79952C41.0432 4.74379 41.0501 4.68806 41.0501 4.6393L41.071 4.5975L41.078 4.54177L41.085 4.45122C41.085 4.39549 41.085 4.33977 41.078 4.27707C41.071 4.16562 41.0571 4.0472 41.0362 3.92878C41.0153 3.81036 40.9874 3.69193 40.9526 3.57351L40.9317 3.46206L40.9387 3.39936L40.876 3.26004L40.8272 3.16252C40.7994 3.09983 40.7645 3.03713 40.7227 2.97444C40.6531 2.84905 40.5695 2.7376 40.4859 2.61918C40.3118 2.39627 40.1097 2.18033 39.8938 1.99921C39.6778 1.81113 39.6152 1.60216 39.3713 1.45587C39.1624 1.29566 38.6817 1.11454 38.4936 0.912533C38.4031 0.815011 38.222 0.815006 38.1802 0.766244C38.1384 0.717483 37.9991 0.717483 37.9433 0.668722C37.8876 0.612995 37.7622 0.61996 37.7413 0.592097C37.7204 0.564233 37.6577 0.543338 37.5532 0.529406C37.4488 0.515474 37.4 0.508507 37.3791 0.473677C37.3582 0.445814 37.1841 0.410985 37.0796 0.355258C36.9751 0.292565 36.8149 0.348291 36.7382 0.299529C36.6616 0.250768 36.4735 0.306494 36.376 0.243801V0.236839C36.3481 0.195043 36.2854 0.181107 36.2576 0.167175C36.181 0.146277 36.1043 0.118413 36.0277 0.0905497C35.8745 0.0487542 35.7142 0.132345 35.554 0.0905497L35.3172 0.027859C35.2057 -4.6762e-06 35.15 0.013928 35.0594 0.00696209C34.8992 0.00696209 34.739 0 34.5858 0C33.9658 0 33.7986 0.0139293 33.4503 0.0626907L33.3458 0.0696528H33.304L33.2762 0.0766255L33.2553 0.0835876H33.1717C32.6841 0.125383 32.6353 0.146283 32.3079 0.195045L32.078 0.167175H31.9457C31.7855 0.215937 31.6113 0.257734 31.4511 0.299529L31.2073 0.36222L31.0819 0.397052L31.0192 0.417949L30.9844 0.431883L30.9565 0.445818L30.9496 0.45278C30.7545 0.48761 30.8381 0.473676 30.6082 0.515471L30.3226 0.508509L30.2669 0.438846L29.9952 0.45278C29.7932 0.508508 29.7654 0.515471 29.4797 0.592097L29.4449 0.599069C29.3126 0.592103 29.2708 0.619962 29.1802 0.626928L29.1106 0.633901C29.0827 0.606037 29.0409 0.640859 29.0061 0.647825C28.7762 0.710518 27.9542 0.926462 27.7174 0.996121C27.2994 1.10061 26.9302 1.19814 26.6864 1.28173C26.6655 1.28869 26.3869 1.33745 26.3451 1.34442C25.955 1.45587 25.7808 1.54643 25.4256 1.66485L25.3141 1.72754C25.2166 1.75541 25.1748 1.78327 25.0703 1.79024C24.6593 1.88776 24.2832 2.02708 23.907 2.13853C23.1826 2.452 22.5905 2.81423 21.9984 3.065C21.9496 3.05107 21.9635 3.065 21.9357 3.065L21.866 3.07893L21.7615 3.11377L21.5665 3.19039C21.4411 3.24612 21.3157 3.29488 21.1973 3.3506C20.9604 3.45509 20.7375 3.55261 20.5216 3.65013L20.3614 3.71283C20.3056 3.74766 20.2778 3.71283 20.1663 3.79642C20.0967 3.85215 19.9991 3.91485 19.9086 3.96361C19.7205 4.0681 19.5324 4.17258 19.3583 4.2701C19.0727 4.43728 18.7801 4.56964 18.4457 4.80648C18.2716 4.904 18.0974 5.00849 17.9233 5.11298L17.8049 5.14084L17.6934 5.16175L17.3173 5.37769L17.2267 5.40555C17.0804 5.48914 17.0317 5.5379 16.8993 5.62149L16.8366 5.63542C15.9519 6.14394 15.2484 6.70817 14.6214 7.12613C14.503 7.20275 14.3776 7.27939 14.2453 7.34904C14.092 7.45353 13.9945 7.54409 13.8482 7.64857C13.7159 7.75306 13.5766 7.85756 13.4303 7.96901C13.3606 8.02474 13.284 8.08743 13.2143 8.15012C13.1795 8.18495 13.1447 8.21281 13.1029 8.26854C13.068 8.32427 13.082 8.31731 13.0889 8.31731L13.0472 8.3591L12.9636 8.37302C12.9078 8.39392 12.8451 8.42179 12.7824 8.45662C12.664 8.51932 12.5526 8.59594 12.4411 8.67256C12.3366 8.74919 12.2252 8.83278 12.1207 8.91638C11.9883 9.0139 11.9256 9.10445 11.8142 9.19501C11.64 9.34129 11.5146 9.41095 11.3196 9.55724L11.1872 9.64083C11.0549 9.74531 10.9504 9.78711 10.825 9.89856C10.3304 10.3444 9.85676 10.8599 9.37611 11.3823C9.25073 11.5147 9.10444 11.6888 8.99298 11.7933C8.94422 11.8351 8.81187 11.8769 8.74917 11.9814L8.57503 12.2182C8.34515 12.5317 8.12224 12.8382 7.87147 13.089L7.80878 13.2283L7.79485 13.284C7.44655 13.7229 7.14702 14.1687 6.90321 14.6006C6.76389 14.8513 6.16482 16.0843 6.12999 16.9411C5.98371 20.3753 8.8258 22.1795 12.5386 23.6075C12.6083 23.6423 12.7546 23.6562 12.8242 23.6911C12.8939 23.7259 12.9427 23.7538 12.9984 23.7747C13.0541 23.7956 13.1725 23.8792 13.2561 23.914C13.3397 23.9488 13.4651 23.9349 13.5975 23.9906C13.7368 24.0463 13.9249 24.123 14.0154 24.1439C14.106 24.1648 14.308 24.2902 14.3846 24.3041C14.4682 24.318 14.8026 24.3946 14.9071 24.4364C15.0115 24.4713 15.4225 24.5827 15.4991 24.6036C15.5827 24.6245 15.8474 24.6942 15.8823 24.7151C15.9101 24.736 16.0286 24.7708 16.0634 24.7778C16.0982 24.7847 16.2027 24.8405 16.2027 24.8405L16.342 24.8753L16.4604 24.9101C16.4604 24.9101 16.4674 24.931 16.5301 24.9449C16.5928 24.9589 16.8993 25.0146 17.0038 25.0494C17.1152 25.0843 17.8049 25.2584 17.8049 25.2584C23.7189 26.8884 29.4867 28.3652 28.609 32.1268C28.1771 33.9728 26.3312 35.8536 22.5417 37.5881C22.4442 37.6299 22.2631 37.7065 22.068 37.804C21.9635 37.8528 21.8799 37.8876 21.7685 37.9085C21.7197 37.9155 21.657 37.9433 21.6083 37.9712L21.5386 38.013L21.5038 38.0339L21.4829 38.0478L21.4759 38.0548C20.7584 38.3474 20.0409 38.5981 19.2886 38.8211C19.1911 38.8489 19.1702 38.9046 19.1702 38.9046C19.1702 38.9046 19.0239 38.8837 18.9682 38.9186C18.9125 38.9534 18.8916 38.9673 18.8428 38.9604C18.794 38.9534 18.7313 38.9743 18.5572 39.0231C17.3242 39.3644 15.9798 39.6639 14.4961 39.8381H14.4055L13.5626 39.9286C13.4372 39.9077 13.3954 39.9565 13.3676 39.9426C13.3397 39.9286 13.3397 39.9217 13.2492 39.9286C11.1315 40.0958 8.96512 40.1237 6.81265 39.6918C5.62148 39.441 4.40941 39.0649 3.35059 38.3474C2.82814 37.9921 2.3266 37.3791 2.08976 36.7591C1.99224 36.5014 1.7763 35.3033 2.27784 34.8226C3.12072 34.0006 1.17722 34.335 0.327382 35.9581C0.153235 36.2855 0.0626797 36.6547 0.0139183 37.0308C-0.0278772 37.4139 0.0208834 37.8389 0.208963 38.1941L0.236822 38.2499C0.313447 38.5006 0.424906 38.7514 0.578156 38.9673C0.849827 39.3853 1.16329 39.845 1.52552 40.1794C1.58125 40.2491 1.63002 40.256 1.65091 40.263L1.67181 40.27L1.74146 40.3396L1.85292 40.4302L1.91561 40.4998L2.00617 40.5625C2.00617 40.5625 2.13156 40.6392 2.18032 40.674C2.75849 41.0571 3.31576 41.4124 3.87303 41.6423C4.02628 41.7049 4.17953 41.7607 4.33278 41.8373C4.43727 41.8861 4.45121 41.8721 4.49997 41.9139C4.54873 41.9487 4.58356 41.9487 4.63232 41.9766C4.68109 42.0045 4.72288 42.0254 4.75771 42.0532C4.7995 42.0811 4.8413 42.109 4.89006 42.1229C4.94579 42.1368 5.0851 42.1856 5.0851 42.1856C6.47829 42.6662 8.00383 42.8125 9.27859 42.9797H9.27162C9.48059 43.0215 10.616 43.1539 10.9225 43.133C14.3289 43.3141 16.8993 42.6802 17.5959 42.5896C17.8467 42.5478 17.8885 42.5269 18.0417 42.4782C18.3482 42.3876 18.3134 42.4573 18.4597 42.4294C20.027 42.0393 21.6431 41.684 23.0223 41.0501C23.4055 40.9944 24.6315 40.4093 25.1957 40.2142C25.5649 40.0122 25.9132 39.7893 26.0595 39.7057C31.7367 36.578 32.8443 33.7011 33.0602 32.287C33.729 27.8706 30.2669 25.9202 26.1082 24.3668C25.9202 24.2623 25.7251 24.1717 25.753 24.1996C25.5301 24.0742 25.3141 24.1021 25.0843 23.9906C25.0076 23.9488 24.924 23.907 24.8474 23.8652C24.6663 23.7886 24.4922 23.8304 24.311 23.7538C23.8722 23.5727 23.4473 23.5309 22.9945 23.3637L22.9805 23.3567L22.9318 23.3288L22.8482 23.2871L22.681 23.2174L22.3536 23.1338L22.0819 23.0781L21.9635 23.0293C21.9148 23.0015 21.8799 22.9806 21.8521 22.9736L21.6779 22.9388C21.5874 22.9248 21.2669 22.8134 21.1764 22.7925C15.5967 21.2112 10.1842 20.2499 10.3374 17.0456C10.3653 16.4674 10.9225 15.7012 11.0619 15.5061C11.3266 15.1091 11.6331 14.7399 11.9465 14.3777C12.5874 13.6671 13.284 13.0123 14.0084 12.3924C15.4713 11.1733 17.0386 10.0797 18.6617 9.09749C20.2847 8.10833 21.9635 7.23062 23.705 6.48527C25.6694 5.62149 27.6477 4.95276 29.633 4.43729C30.6222 4.17955 31.6113 3.95664 32.6074 3.79642C33.5966 3.63621 34.948 3.48295 35.9302 3.49688C36.4387 3.51778 36.9402 3.53869 37.393 3.69194C37.6926 3.78946 37.9085 4.06113 38.0269 4.31887C38.0339 4.40246 38.0687 4.49301 38.0548 4.5975L38.0618 4.68806V4.73683C38.0757 5.76082 37.5045 6.56189 37.4279 6.69425C37.2676 6.96592 36.1531 8.07349 35.77 8.42875C35.2545 8.90244 34.3977 9.60599 34.2096 9.64779C34.0215 9.8289 33.729 10.0657 33.3946 10.3235C33.0742 10.5673 32.2104 11.1873 31.883 11.4102C31.5974 11.6052 31.3396 11.7794 31.1446 11.9117C30.9078 12.051 30.6779 12.1904 30.448 12.3227C30.3435 12.3715 30.0718 12.5665 30.1694 12.4829Z" fill="#01432B"/>
</g>
</svg>
