<svg width="151" height="45" viewBox="0 0 151 45" fill="none" xmlns="http://www.w3.org/2000/svg">
<path d="M147.51 35.9998C146.667 35.7909 145.553 35.6446 144.09 35.4913C141.749 35.2545 139.283 35.0525 136.72 34.934L136.727 34.9967C136.65 34.9689 136.595 34.9619 136.588 34.941V34.9271C136.448 34.9201 136.511 35.0455 136.511 35.0455C136.511 35.0455 136.288 35.0037 136.246 34.948C136.204 34.8923 136.135 34.9619 136.009 34.9549C135.884 34.941 135.884 34.9549 135.842 34.9271C135.8 34.8992 135.675 34.9689 135.591 34.9758C135.515 34.9758 135.389 34.941 135.285 34.9619C135.362 34.941 135.466 34.8783 134.992 34.8644C120.371 34.342 103.088 35.0664 89.08 36.4526L89.0661 36.4596V36.4526C88.2581 36.5362 87.4639 36.6128 86.6768 36.6964C86.6698 36.7939 86.4817 36.8357 86.426 36.8218C86.3703 36.8079 86.3842 36.7243 86.1404 36.7452C85.9105 36.7661 85.6807 36.7939 85.4508 36.8148C85.4578 36.8497 85.4647 36.8915 85.4647 36.9263C85.3602 36.9611 85.2697 36.9193 85.2139 36.8427C84.4965 36.9193 83.7859 36.996 83.0963 37.0726C83.0963 37.0726 82.9639 37.1422 82.8316 37.1144C82.6992 37.0865 82.748 37.0865 82.6853 37.1283C82.6157 37.1701 82.5948 37.1701 82.5112 37.184C82.4276 37.198 82.3231 37.184 82.3231 37.184C82.3231 37.184 82.2047 37.2537 82.1629 37.2955C82.1211 37.3373 82.0653 37.1701 81.515 37.2328C72.2782 38.2777 65.8487 39.2529 63.6892 39.5525C63.6892 39.5525 63.4873 39.6082 63.4246 39.6082C63.3549 39.6082 63.2783 39.6221 63.1947 39.6291C63.1111 39.6291 63.0971 39.643 63.0623 39.6569C63.0205 39.6709 62.9927 39.7127 62.916 39.7127C62.8324 39.7127 62.7419 39.7266 62.7419 39.7266C62.7419 39.7266 62.6374 39.7823 62.5956 39.7823C62.5538 39.7823 62.5399 39.8659 62.5399 39.8659L62.3936 39.9077L62.2891 39.9634C62.2891 39.9634 62.1916 39.9356 62.0592 39.9983C61.3139 40.3396 61.0422 41.1755 61.0074 41.7955C61.0004 41.9069 61.293 41.9627 61.293 41.9627L61.3069 42.0463L61.084 42.1438C61.084 42.1438 61.1467 42.1298 61.1467 42.2413C61.1467 42.3528 61.1258 42.2552 61.1467 42.3528C61.1676 42.4503 61.2233 42.506 61.2373 42.5617C61.2512 42.6175 61.2999 42.7707 61.2999 42.7707C61.2999 42.7707 61.4602 42.8822 61.4323 42.924C61.4044 42.9657 61.3696 43.0354 61.3905 43.0772C61.4114 43.119 61.495 43.1329 61.5089 43.1747C61.5229 43.2165 61.5438 43.3558 61.5438 43.3558L61.7597 43.6832C61.7597 43.6832 61.913 43.8574 62.0941 43.8365C62.1777 43.8226 62.2821 43.4952 62.4633 43.5161C62.6444 43.5439 62.6792 43.4185 62.6792 43.4185L63.0763 43.3489C63.3619 42.9657 64.4137 42.9588 65.8348 42.6662C66.1064 42.6105 66.3502 42.506 66.4269 42.5478C66.5105 42.5896 66.5871 42.5339 66.6289 42.506C66.6707 42.4781 66.7473 42.4642 66.7473 42.4642C66.7473 42.4642 66.8796 42.4921 66.9214 42.4921C66.9632 42.4921 66.9772 42.4224 67.0817 42.4224C67.1862 42.4224 67.2976 42.4154 67.3533 42.4015C67.4091 42.3876 67.4091 42.3736 67.6598 42.3249C67.9176 42.2761 68.433 42.1159 68.433 42.1159C68.433 42.1159 69.0809 42.102 69.1993 42.0463C69.3177 41.9905 69.4292 41.9975 69.464 41.9836C69.5058 41.9696 69.5824 41.9278 69.6799 41.9278C69.7775 41.9278 69.8123 41.9 69.8959 41.8721C69.9725 41.8442 70.1118 41.8442 70.1118 41.8442C70.1118 41.8442 70.2233 41.9 70.286 41.8303C70.3487 41.7607 70.4044 41.7328 70.4462 41.7467C70.488 41.7606 70.5785 41.8164 70.5785 41.8164C70.5785 41.8164 71.2751 41.7467 71.4911 41.691C71.707 41.6353 72.6335 41.475 72.6962 41.4681C77.851 40.6322 84.6149 39.6918 92.7511 38.7723C93.2178 38.7165 93.2874 38.633 93.3362 38.626C93.3849 38.626 93.5591 38.6399 93.6288 38.6538C93.6984 38.6678 93.7681 38.6678 93.8865 38.6678C94.0049 38.6678 94.0606 38.612 94.2139 38.612C94.3671 38.612 94.5274 38.5703 94.611 38.5145C94.6946 38.4588 94.7015 38.5494 94.7851 38.5494C94.8687 38.5494 95.0637 38.5285 95.1334 38.5285C95.2031 38.5285 95.2518 38.3682 95.3563 38.417C95.4608 38.4658 95.4956 38.4658 95.6001 38.4658C95.7046 38.4658 95.8927 38.424 95.9832 38.424C96.0668 38.424 96.2271 38.3682 96.3106 38.4031C96.3942 38.4379 96.45 38.4727 96.5684 38.417C96.6868 38.3613 96.7704 38.2916 96.8261 38.2916C96.8749 38.2916 97.1047 38.4797 97.3625 38.3334C97.6202 38.1871 97.6202 38.2916 97.9476 38.2707C98.275 38.2498 98.3795 38.208 98.6721 38.208C98.9646 38.2011 99.3826 38.1593 99.3826 38.1593C99.3826 38.1593 99.5568 38.0826 99.6543 38.0269C99.7588 37.9712 99.7448 38.0618 99.7936 38.0757C99.8424 38.0896 99.9469 38.02 99.9469 38.02C99.9469 38.02 99.9956 37.9851 100.051 38.02C100.107 38.0548 100.239 37.9642 100.239 37.9642C100.239 37.9642 100.26 38.0896 100.33 38.0896C100.4 38.0896 100.448 38.0548 100.518 38.0478C100.588 38.0478 100.692 37.9573 100.741 37.9921C100.797 38.0269 100.95 38.0269 100.95 38.0269C100.95 38.0269 101.054 37.9015 101.124 37.9155C101.194 37.9294 101.319 37.9851 101.403 37.9433C101.486 37.9085 101.626 37.8667 101.695 37.9015C101.765 37.9364 101.904 37.9712 101.974 37.8946C102.044 37.8249 102.148 37.8737 102.148 37.8737L102.357 37.8876C102.357 37.8876 102.475 37.811 102.65 37.8319C102.824 37.8458 102.824 37.7901 102.942 37.7901C103.061 37.7901 103.339 37.7483 103.388 37.7483C103.437 37.7483 103.527 37.6716 103.646 37.7065C103.771 37.7413 103.959 37.6647 104.064 37.6995C104.168 37.7343 104.119 37.7552 104.356 37.6786C104.6 37.602 104.649 37.5323 104.732 37.5811C104.823 37.6299 104.837 37.6299 104.99 37.6299C105.143 37.6299 105.234 37.609 105.338 37.609C105.443 37.609 105.443 37.6438 105.596 37.5672C105.749 37.4905 105.784 37.4557 105.854 37.4905C105.924 37.5254 106.007 37.5393 106.112 37.5254C106.216 37.5045 106.265 37.4905 106.39 37.5045C106.509 37.5184 107.359 37.3861 107.616 37.3652C122.071 36.2436 132.687 36.376 139.667 36.8288C140.196 36.8636 140.266 36.8218 140.37 36.8148C140.482 36.8148 140.509 36.8984 140.593 36.8984C140.677 36.8984 140.802 36.8636 140.886 36.8915C140.969 36.9193 141.15 36.989 141.248 36.982C141.345 36.982 141.596 36.9333 141.666 36.9472C141.735 36.9611 141.805 36.8427 141.986 36.8915C142.167 36.9472 142.195 36.8915 142.376 36.9402C142.557 36.996 142.655 36.9611 142.808 36.989C142.961 37.0169 142.92 37.0308 143.059 37.0099C143.198 36.996 143.226 36.9193 143.268 36.989C143.31 37.0586 143.407 37.0865 143.477 37.0587C143.547 37.0308 143.63 37.0308 143.63 37.0308C143.63 37.0308 143.658 37.0308 143.811 37.0308C143.964 37.0308 143.881 37.0587 144.187 37.0796C144.494 37.1004 145.177 37.1771 145.497 37.184C145.817 37.191 145.887 37.1353 146.026 37.2467C146.166 37.3582 146.277 37.3443 146.277 37.3443L146.375 37.3025H146.458C146.458 37.3025 146.5 37.2746 146.556 37.3025C146.612 37.3303 146.695 37.3443 146.765 37.3443C146.834 37.3443 146.946 37.3094 147.016 37.3373C147.085 37.3651 147.197 37.4069 147.28 37.4069C147.364 37.4069 147.531 37.4278 147.601 37.4557C147.67 37.4836 147.642 37.5114 147.865 37.4905C148.088 37.4696 148.102 37.4557 148.186 37.5254C148.269 37.595 148.409 37.609 148.534 37.602C148.66 37.602 149.064 37.7552 149.328 37.9224C149.509 38.0339 149.495 38.1871 149.565 38.0757C149.607 38.0409 150.958 36.8497 147.51 35.9998Z" fill="white"/>
<path d="M137.068 20.6122L137.02 20.7445L136.971 20.8908C136.964 20.9187 136.957 20.9465 136.95 20.9814V21.0301C136.915 21.065 136.866 21.0928 136.838 21.1555C136.804 21.2252 136.776 21.3018 136.741 21.3854L136.685 21.3784C136.581 21.3575 136.476 21.3297 136.379 21.3018L136.225 21.253C136.177 21.2391 136.212 21.2461 136.114 21.1625L136.1 21.1486L136.079 21.1416C135.87 21.0928 135.668 21.0859 135.522 20.9744L135.334 20.9187L135.167 20.856C134.895 20.7306 134.818 20.7027 134.561 20.5564C134.47 20.5077 134.449 20.4729 134.31 20.4102L134.059 20.3335L133.934 20.2917L133.899 20.2778L133.843 20.236L133.62 20.0061C133.035 19.6161 132.861 19.4907 132.694 19.3792C132.666 19.3583 132.561 19.2956 132.561 19.2678C132.561 19.2329 132.54 19.212 132.506 19.1842C132.471 19.1563 132.422 19.1284 132.422 19.1145L132.345 19.1075C132.345 19.1075 132.297 19.0448 132.311 19.01C132.325 18.9682 132.297 18.9682 132.262 18.9473C132.227 18.9264 132.178 18.8846 132.178 18.8846C132.178 18.8846 132.095 18.808 132.025 18.7523C131.955 18.6965 131.907 18.6269 131.858 18.5642L131.753 18.4388C131.684 18.3552 131.614 18.2716 131.537 18.195C131.503 18.1602 131.426 18.1044 131.419 18.0975C131.384 18.0626 131.356 18.0209 131.328 17.986C131.301 17.9442 131.294 17.9233 131.28 17.8746C131.266 17.8188 131.238 17.7562 131.21 17.7074C131.05 17.5193 130.952 17.38 130.848 17.1919L130.841 17.2058C130.876 16.9133 130.869 16.76 130.855 16.4535L130.82 16.1331C130.785 15.8614 130.722 15.6455 130.618 15.4853C130.534 15.2484 130.423 15.0255 130.284 14.8374V14.8305C130.228 14.7538 130.165 14.6842 130.109 14.6145L130.061 14.5588L130.054 14.5518L129.998 14.4961C129.058 13.5766 128.096 14.1896 128.096 14.1896C128.096 14.1896 127.811 14.2802 127.741 14.4682C127.643 14.719 127.504 14.7399 127.504 14.7399C127.504 14.7399 127.414 15.2624 127.295 15.2624C127.177 15.2624 127.267 15.5967 127.267 15.5967L127.1 15.9659L127.128 16.3351C127.128 16.3351 126.996 16.6555 127.142 17.2407L127.121 17.2825C127.044 17.4427 126.926 17.7004 126.926 17.7492L126.912 17.777H126.933L126.898 17.8188L126.877 17.9303L126.821 18L126.766 18.1044C126.731 18.1602 126.738 18.2089 126.703 18.2507L126.682 18.2856L126.661 18.3204C126.626 18.5642 126.543 18.6896 126.39 18.8637C126.32 18.9613 126.271 19.0448 126.215 19.226C126.188 19.3095 126.188 19.3862 126.208 19.4419L126.16 19.4767C126.076 19.6091 126.118 19.6369 126.034 19.7623L126.055 19.7972L126.027 19.839C125.965 19.9574 125.93 20.1246 125.895 20.236C125.853 20.3684 125.791 20.452 125.728 20.6191L125.693 20.6958C125.693 20.7167 125.672 20.7306 125.672 20.7724V20.7863C125.63 20.8421 125.589 20.8908 125.54 20.9465C125.47 21.0301 125.554 21.0092 125.498 21.0928L125.435 21.2461L125.421 21.3854C125.4 21.4272 125.373 21.462 125.352 21.5108L125.261 21.7058C125.226 21.7825 125.233 21.7546 125.226 21.7755L125.205 21.7824L125.198 21.8034L125.15 21.8173L125.108 21.9009C125.059 21.9984 125.031 22.0402 124.996 22.1238H124.927L124.871 22.1934C124.78 22.4164 124.69 22.6323 124.558 22.7995L124.516 22.7855C124.376 23.1338 124.167 23.4612 123.965 23.7956L123.826 24.0324L123.722 24.13C123.708 24.1439 123.68 24.1578 123.652 24.1996L123.61 24.2762C123.596 24.3111 123.589 24.2971 123.568 24.3807V24.3947L123.575 24.4225L123.541 24.4365L123.499 24.4922V24.534C123.52 24.534 123.436 24.6245 123.373 24.7151L123.332 24.736L123.29 24.7708L123.234 24.8335L123.185 24.8892C123.185 24.9032 123.137 24.8892 123.178 24.945L123.13 24.9519C123.039 25.1261 122.941 25.2445 122.851 25.4256C122.753 25.4744 122.642 25.6067 122.565 25.7043L122.551 25.7252L122.544 25.7391L122.537 25.7461L122.53 25.76L122.524 25.7669L122.517 25.7809L122.503 25.7878V25.8018L122.489 25.8088L122.496 25.8227L122.489 25.8297L122.496 25.8436H122.482V25.8505L122.384 25.9481C122.398 25.9481 122.308 25.955 122.259 25.9759C122.203 25.9968 122.154 25.9968 122.113 26.0386L122.05 26.0526C121.841 26.2685 121.702 26.4775 121.5 26.6516L121.479 26.6586C121.423 26.6377 121.423 26.6307 121.423 26.6447L121.374 26.777L121.332 26.8258L121.284 26.8815L121.249 26.9163L121.242 26.9233C120.58 27.4806 119.674 27.5642 119.465 27.2646L119.403 27.2437L119.382 27.2298C119.319 27.188 119.263 27.0208 119.215 26.9581V26.9512L119.089 26.8885L119.096 26.6656C119.068 26.6029 119.068 26.4984 119.034 26.4914C119.027 26.4496 119.02 26.4078 119.02 26.3869C119.006 26.366 118.992 26.3242 118.985 26.2894C119.013 26.2685 118.957 26.157 118.957 26.0874L118.936 25.962C118.915 25.9132 118.943 25.9063 118.901 25.8366C118.887 25.7879 118.88 25.7321 118.88 25.6764V25.6207H118.929L118.922 25.5023H118.943C118.943 25.4605 118.929 25.4117 118.922 25.3699H118.95C118.95 25.0564 118.936 24.7708 118.999 24.5131L118.992 24.4643L118.985 24.4156C118.978 24.3459 119.041 24.2414 119.02 24.1369C119.02 24.0951 119.02 24.0533 119.02 24.0185C119.061 23.9349 119.124 23.7259 119.082 23.6424C119.082 23.6006 119.096 23.5448 119.103 23.4891L119.187 23.503C119.222 23.3289 119.194 23.1756 119.194 23.0224C119.194 22.9458 119.194 22.8691 119.194 22.7995L119.201 22.702C119.208 22.6671 119.201 22.702 119.256 22.6393L119.27 22.6253V22.5975C119.256 22.4512 119.229 22.3188 119.277 22.2492L119.375 22.1098H119.27C119.472 21.1694 119.633 20.7027 119.814 20.2012C121.193 16.3978 118.288 16.3699 117.71 16.3281C117.271 16.3003 117.174 16.6346 116.874 17.6029C114.116 25.0982 111.963 26.5959 110.87 27.0069C110.34 27.2019 109.95 27.2437 109.727 27.188C108.891 26.979 109.031 26.2197 109.1 25.8018H109.114L109.128 25.7043C109.135 25.6416 109.1 25.5371 109.079 25.4326V25.4117V25.3769C109.086 25.342 109.093 25.3072 109.1 25.2654L109.156 25.3072L109.24 25.356L109.233 25.2445L109.226 25.0216H109.233L109.246 24.9937L109.253 24.9798H109.246L109.226 24.938H109.295C109.253 24.5688 109.588 24.325 109.63 23.9488L109.581 23.9279L109.595 23.9001C109.664 23.7956 109.685 23.6911 109.727 23.5866C109.748 23.4961 109.755 23.4194 109.755 23.3428C109.95 22.7507 110.013 22.6044 110.187 21.9914C110.431 21.3854 110.612 20.7376 110.786 20.0758C110.842 19.9504 110.87 19.8111 110.89 19.6787L110.904 19.623C110.932 19.5116 110.967 19.4001 110.995 19.2887C111.009 19.2678 111.023 19.2469 111.065 19.2329H111.072V19.212C111.085 19.1215 111.092 19.0379 111.113 18.9613C111.127 18.9195 111.134 18.8707 111.169 18.8428L111.232 18.7871L111.148 18.7732C111.218 18.613 111.274 18.4527 111.343 18.2925C111.371 18.195 111.441 18.1462 111.455 18.0139C111.462 17.9233 111.448 17.791 111.469 17.7283C111.622 17.4496 111.643 17.0944 111.538 16.7531C111.517 16.7043 111.503 16.6625 111.483 16.6137C111.462 16.565 111.483 16.5301 111.483 16.5162L111.448 16.4675V16.4048L111.413 16.3699L111.42 16.3072C111.42 16.2863 111.406 16.2863 111.392 16.2376C111.378 16.1888 111.392 16.2376 111.392 16.2167L111.357 16.1819C111.35 16.1679 111.35 16.1401 111.322 16.0983C111.246 15.9798 111.162 15.8753 111.078 15.7987C111.037 15.7569 110.988 15.7221 110.932 15.6942C110.863 15.6664 110.835 15.6733 110.793 15.6385C110.709 15.6037 110.668 15.4644 110.535 15.4226L110.229 15.325C110.027 15.2624 109.602 15.2136 109.4 15.1648C109.212 15.137 108.647 15.0812 108.459 15.1648C108.229 15.1648 108.195 15.2554 108.16 15.2763L108.167 15.3668C108.236 15.6037 108.202 15.8196 108.181 16.154L108.167 16.1261C108.167 16.3908 108.104 16.6207 108.007 16.8645C107.993 16.962 107.979 17.0596 107.965 17.164C107.909 17.3661 107.846 17.5681 107.791 17.7701C107.749 17.777 107.832 17.7979 107.811 17.8049L107.818 17.8676L107.763 17.9024L107.756 17.9791C107.756 18.0069 107.735 18.0139 107.707 18.0626C107.651 18.2438 107.596 18.4318 107.547 18.613C107.533 18.6687 107.512 18.7244 107.498 18.7801C107.484 18.815 107.47 18.8498 107.463 18.8846L107.38 19.3444C107.324 19.4349 106.955 20.5982 106.927 20.7027C105.966 24.2554 103.653 30.4202 109.17 30.3575C110.305 30.3436 111.281 29.7933 111.991 29.2569L111.998 29.2638C112.075 29.2011 112.123 29.1594 112.165 29.1315L112.186 29.1176C112.228 29.0897 112.263 29.0688 112.311 29.0409V29.0549L112.325 29.02L112.332 29.034C112.381 29.034 112.395 28.9782 112.437 28.9643L112.451 28.9852C112.458 28.9364 112.52 28.9991 112.486 28.9295L112.5 28.9504C112.555 28.8877 112.625 28.8389 112.702 28.7902C112.709 28.7135 112.757 28.6857 112.785 28.6299C112.869 28.5603 112.952 28.4837 113.036 28.407C113.036 28.3583 113.064 28.3722 113.078 28.3652L113.14 28.3095C113.189 28.2677 113.238 28.219 113.287 28.1702C113.342 28.205 113.287 28.1214 113.335 28.1423C113.315 28.1075 113.349 28.1214 113.356 28.1075L113.37 28.1005L113.384 28.1145L113.482 28.0448C113.468 28.003 113.496 27.9961 113.503 27.9752L113.586 27.8916L113.621 27.8707L113.635 27.8776L113.642 27.8498L113.649 27.8567C113.698 27.8567 113.705 27.801 113.739 27.7871L113.753 27.808C113.753 27.7592 113.788 27.808 113.781 27.7592L113.795 27.7731L113.851 27.7104C113.879 27.6756 113.907 27.6338 113.941 27.606C113.928 27.5363 113.969 27.5084 113.99 27.4666C114.025 27.4318 114.06 27.397 114.088 27.3552V27.3482C114.213 27.2159 114.185 27.2646 114.311 27.1253L114.318 27.1323L114.339 27.1114L114.359 27.0905L114.373 27.0974C114.568 26.8118 115.411 25.5231 115.885 24.6803C115.85 25.8645 115.739 27.4875 116.421 28.5115L116.463 28.5185C116.477 28.6996 116.596 28.818 116.742 28.9364C116.888 29.0618 117 29.3474 117.306 29.4171C117.515 29.4659 117.682 29.6261 117.905 29.6818C117.94 29.7027 117.982 29.7166 118.037 29.7236L118.121 29.7306C118.156 29.7445 118.205 29.7375 118.26 29.7375C118.316 29.7375 118.323 29.7654 118.372 29.7654C118.421 29.7654 118.469 29.7445 118.483 29.7654C118.497 29.7933 118.532 29.8281 118.56 29.8002C118.595 29.7793 118.72 29.7654 118.755 29.7654C119.849 29.7306 122.705 29.3474 125.547 24.6942L125.54 24.7151C125.505 24.8335 125.526 24.8683 125.519 24.931L125.491 25.2306L125.484 25.2375L125.345 25.4605L125.359 25.5092L125.373 25.5231C125.219 26.2824 124.948 27.1323 125.066 28.1005C125.115 28.5324 125.157 28.9782 125.386 29.3892C125.414 29.5564 125.533 29.7306 125.651 29.8838L125.686 29.8351C125.665 30.0092 125.832 30.0231 125.937 30.0719L126.02 30.1555C126.027 30.1833 126.027 30.2112 126.02 30.246H126C126.006 30.3296 126.09 30.3018 126.167 30.2739C126.285 30.3575 126.41 30.4202 126.522 30.4689L126.55 30.4759L126.626 30.5038C126.808 30.5804 127.058 30.5456 127.212 30.4898C127.372 30.4341 127.386 30.3227 127.546 30.3018C127.706 30.2809 127.922 29.9535 127.922 29.8211C127.922 29.5564 127.992 29.7724 127.79 29.3405C127.267 28.3165 128.786 23.8444 129.852 20.6818C131.433 22.2352 133.975 23.4612 136.212 23.8653V23.8792L136.205 23.9488V23.9698L136.198 24.0603C136.191 24.1021 136.184 24.1509 136.184 24.1996C136.086 25.0355 136.142 25.8366 136.358 26.568V26.575C136.483 27.2159 136.748 27.8916 137.229 28.421L137.277 28.4767C137.382 28.7205 137.577 28.7693 137.8 28.8946C137.89 28.9504 137.974 28.9922 138.051 29.0479L138.141 29.1176C138.211 29.1733 138.266 29.229 138.294 29.3056L138.399 29.3335C138.489 29.4659 138.496 29.431 138.65 29.431C138.963 29.5982 139.297 29.7375 139.653 29.8281C139.715 29.842 139.778 29.8559 139.841 29.8699C139.89 29.8838 139.945 29.8908 139.994 29.9047C140.036 29.9117 140.036 29.8699 140.064 29.9047L140.154 29.9326L140.189 29.9465C140.203 29.9674 140.21 30.0022 140.245 29.9535C140.287 29.9117 140.273 29.8908 140.307 29.9047C140.342 29.9186 140.328 29.9604 140.377 29.9604C140.433 29.9535 140.447 29.9186 140.475 29.9535C140.503 29.9953 140.51 29.9604 140.544 29.9674C140.579 29.9744 140.621 30.0092 140.635 30.0231C140.649 30.0371 140.649 29.9883 140.725 29.9883C140.774 29.9883 140.83 29.9953 140.879 29.9953C142.557 30.0162 144.863 29.5912 147.002 28.2607C147.044 28.2468 147.057 28.2538 147.092 28.219L147.127 28.1981L147.148 28.1702C147.197 28.1423 147.239 28.1005 147.28 28.0727L147.287 28.0657L147.315 28.0518L147.329 28.0448L147.35 28.0239L147.371 27.9612L147.406 27.9403C147.468 27.9473 147.475 27.8985 147.51 27.8498L147.552 27.8219L147.559 27.8289L147.566 27.8149C147.691 27.7244 147.824 27.6617 147.942 27.5572L147.97 27.5224L147.984 27.5154L147.998 27.5015H148.012L148.033 27.4806C148.151 27.39 148.249 27.2995 148.367 27.2019L148.395 27.188C148.402 27.1462 148.423 27.181 148.437 27.1392L148.444 27.1323H148.451L148.506 27.0696C148.583 27.0069 148.66 26.9442 148.736 26.8745L148.862 26.777L148.91 26.7561C149.015 26.6795 148.959 26.7422 149.05 26.6377L149.119 26.5541C149.175 26.5053 149.217 26.4426 149.252 26.38L149.314 26.3033C149.37 26.2406 149.419 26.171 149.482 26.1222C149.635 25.9899 149.732 25.8714 149.767 25.8436C149.802 25.8157 149.844 25.7809 149.872 25.7461C149.9 25.7112 149.934 25.6903 149.962 25.6834L150.046 25.5858C150.046 25.5858 150.081 25.4744 150.129 25.4256C150.178 25.3838 150.192 25.3002 150.213 25.2654C150.234 25.2306 150.185 25.2933 150.234 25.2306C150.283 25.1679 150.38 25.1331 150.408 25.0773C150.436 25.0216 150.485 24.938 150.533 24.8892C150.582 24.8475 150.596 24.7499 150.631 24.6942C150.666 24.6385 151.202 23.5309 150.917 22.9527V22.9458L150.924 22.6811C150.91 22.3258 150.582 21.9148 150.478 22.2004C150.415 22.3537 150.227 22.6044 150.199 22.6462V22.6323C150.095 22.6741 150.171 22.7577 150.067 22.7855C150.095 22.8273 149.962 22.904 149.976 22.9806L149.948 22.9667C149.844 23.0851 149.732 23.2174 149.642 23.315C149.6 23.4334 149.433 23.4961 149.412 23.6075C149.342 23.6563 149.231 23.7956 149.168 23.8931V23.8792C149.085 23.9697 149.029 23.9906 148.987 24.0812L148.966 24.1509C148.931 24.1578 148.903 24.1927 148.917 24.1857H148.903L148.876 24.1996L148.813 24.2414C148.771 24.318 148.653 24.3668 148.576 24.4852L148.506 24.5479L148.395 24.7151C148.395 24.7151 148.381 24.743 148.381 24.7778C148.339 24.8196 148.29 24.8614 148.249 24.8962L148.144 24.9798L148.081 25.0425C148.068 25.0913 148.068 25.0913 148.061 25.0982C148.026 25.1261 147.935 25.1888 147.872 25.2097L147.664 25.3838L147.601 25.4117L147.503 25.4744L147.468 25.5301L147.475 25.5649L147.378 25.6555L147.266 25.7669L147.232 25.8018L147.197 25.8157L147.148 25.8645L147.078 25.9063L147.002 25.969C146.967 25.9829 146.953 26.0177 146.904 26.0665C146.779 26.1849 146.605 26.2267 146.472 26.2894C146.417 26.3173 146.396 26.3242 146.382 26.3382L146.326 26.3591L146.277 26.4148L146.249 26.4357L146.201 26.4705L146.187 26.5123H146.145L146.103 26.5611L146.02 26.5471C145.762 26.7213 145.588 26.8258 145.414 26.8954C145.337 26.9303 145.288 27.0069 145.253 26.9999C145.218 26.9999 145.205 26.993 145.198 26.993L145.191 27.0626L145.121 27.0348L145.093 27.0696L145.037 27.0765L144.947 27.0974L144.849 27.0905C144.821 27.0696 144.821 27.1044 144.807 27.1532C144.794 27.2019 144.745 27.1532 144.731 27.1323H144.661L144.599 27.1462L144.529 27.1601L144.473 27.2159C144.473 27.195 144.417 27.2159 144.341 27.2228C144.146 27.2437 143.992 27.2994 143.839 27.3552C143.561 27.4597 143.435 27.3691 143.373 27.3761C143.254 27.39 143.115 27.4109 143.017 27.4109L142.975 27.4527L142.927 27.4248C142.913 27.4039 142.871 27.4039 142.878 27.4806C142.885 27.5293 142.85 27.4875 142.836 27.4666L142.794 27.4597H142.718H142.669L142.613 27.4527L142.564 27.4388C142.537 27.4457 142.537 27.4388 142.502 27.4318C142.335 27.4179 142.167 27.4179 141.986 27.397C141.903 27.39 141.687 27.3204 141.666 27.3204L141.568 27.2925L141.52 27.2786L141.471 27.2646L141.436 27.2368L141.394 27.2159L141.325 27.195L141.255 27.1532C141.053 27.0835 140.907 27.0417 140.753 26.9442V26.9372C140.698 26.9094 140.635 26.8676 140.572 26.8258L140.468 26.7561L140.398 26.7143L140.363 26.7004C140.335 26.6516 140.307 26.6098 140.273 26.5541L140.168 26.4844L140.112 26.4009C140.036 26.2824 139.966 26.1501 139.917 26.0108C139.841 25.76 139.764 25.5023 139.688 25.2306L139.646 25.2236L139.618 25.1331C139.618 24.945 139.625 24.7569 139.639 24.5688C139.646 24.4713 139.653 24.3738 139.674 24.2762L139.701 24.0742C139.708 24.0464 139.708 24.0046 139.75 24.0115H139.799L139.897 24.0046C140.294 23.9628 140.691 23.9001 141.081 23.8165C142.634 23.4821 144.306 22.7786 145.302 22.0889L145.344 22.0611L145.365 22.068L145.386 22.0541L145.414 22.0472C145.699 21.9009 146.911 21.1416 147.503 20.4868L147.517 20.5077C148.095 19.9226 149.544 18.2368 149.642 16.6416C149.642 16.5998 149.677 16.5719 149.691 16.5301C149.746 16.3769 149.628 16.3351 149.663 16.1958L149.746 16.0007L149.705 15.8614C149.725 15.7151 149.739 15.5619 149.718 15.4017L149.705 15.1927L149.698 15.1439C149.698 15.1439 149.705 15.13 149.725 15.0882C149.739 15.0255 149.732 14.9907 149.732 14.9489C149.725 14.8723 149.705 14.8096 149.691 14.7469C149.663 14.6424 149.565 14.524 149.523 14.4055L149.572 14.3289L149.551 14.2662C149.496 14.0851 149.419 13.8692 149.28 13.6811C149.161 13.5139 149.008 13.3746 148.855 13.2353L148.869 13.1865C148.36 12.873 147.747 12.7059 147.148 12.678C146.995 12.671 146.848 12.671 146.695 12.685L146.584 12.6919L146.493 12.685L146.27 12.6641C146.145 12.671 146.117 12.6919 146.033 12.7128L146.006 12.7198L145.985 12.7268L145.964 12.7337L145.88 12.7686C145.825 12.7546 145.831 12.7755 145.804 12.7686H145.762L145.734 12.7895C145.671 12.8382 145.49 12.8591 145.337 12.9009L145.309 12.8939H145.253L145.184 12.9009L145.065 12.9288L144.961 12.9566L144.926 12.9636L144.898 12.9915L144.842 12.9984C144.612 13.096 144.466 13.1308 144.271 13.2353C144.041 13.3885 143.992 13.3885 143.581 13.5766C143.686 13.5278 143.505 13.6254 143.477 13.6254L143.449 13.6811L143.386 13.702L143.338 13.7368L143.247 13.7856C143.219 13.7856 143.226 13.8343 143.164 13.8622H143.15H143.108L143.045 13.8761L142.934 13.904C142.857 13.9249 142.787 13.9458 142.711 13.9667C142.578 14.0642 142.481 14.1408 142.376 14.2314C142.209 14.3428 142.035 14.5031 141.847 14.6633L141.777 14.6354L141.687 14.712C141.666 14.7399 141.624 14.7887 141.582 14.8374L141.499 14.8653L141.464 14.9489L141.415 14.9768C141.38 15.0046 141.352 14.9907 141.318 15.0185H141.29L141.262 14.9698L141.129 15.0673L140.962 15.2345L140.948 15.2484L140.934 15.2554L140.886 15.2902L140.844 15.3181L140.837 15.325L140.851 15.3599L140.83 15.3877L140.788 15.3738C140.684 15.5131 140.551 15.6246 140.377 15.7848C140.203 15.9381 139.98 16.1331 139.778 16.3978L139.82 16.4396L139.813 16.4466C139.674 16.5232 139.569 16.6486 139.472 16.7531C139.256 16.9969 139.179 17.2755 138.998 17.5054L138.963 17.5193L138.914 17.5611L138.852 17.6308L138.74 17.7631C138.677 17.8467 138.587 17.9442 138.545 18.0069L138.496 18.0626L138.455 18.1253C138.413 18.202 138.343 18.3274 138.28 18.4249L138.183 18.5851L138.134 18.6687C138.12 18.7035 138.106 18.7035 138.099 18.7592C138.064 18.8289 138.023 18.8986 137.981 18.9613L137.939 19.0239L137.897 18.9961L137.855 19.0588L137.8 19.1354L137.786 19.1215C137.758 19.1633 137.723 19.2329 137.709 19.2887L137.681 19.2747C137.451 19.6927 137.305 20.1455 137.242 20.1733C137.208 20.243 137.173 20.3057 137.124 20.3753L137.166 20.445C137.11 20.5216 137.068 20.6191 137.068 20.6122ZM140.621 20.4241C140.739 20.1037 141.123 19.6021 141.297 19.2538C141.345 19.1842 141.394 19.1145 141.443 19.0448C141.485 18.9891 141.52 18.9334 141.568 18.8846C141.742 18.8289 141.812 18.6408 141.882 18.4597C142 18.3134 142.119 18.1671 142.244 18.0209C142.773 17.8119 143.045 17.3939 143.317 16.9272C143.985 16.3281 144.668 15.8405 145.288 15.541C145.448 15.534 145.504 15.5271 145.622 15.4574L145.706 15.4295C145.831 15.4226 145.831 15.4086 145.887 15.3599L145.929 15.3459C145.95 15.3529 145.978 15.2972 146.006 15.332L146.061 15.2972C146.103 15.3111 146.096 15.3042 146.138 15.2624C146.201 15.1997 146.222 15.2345 146.298 15.2275H146.326L146.396 15.2206C146.577 15.2066 146.737 15.1997 146.828 15.2275L146.848 15.2484L146.862 15.2414C147.002 15.2763 147.183 15.3041 147.315 15.4644C147.461 15.6733 147.615 15.9102 147.468 16.5162L147.461 16.565L147.448 16.6207V16.6416L147.441 16.6486V16.6764L147.42 16.7322L147.413 16.767L147.399 16.774L147.385 16.8018C147.246 17.2964 147.023 17.8676 146.493 18.4388L146.479 18.4667L146.465 18.4945L146.451 18.5085L146.438 18.5224L146.431 18.5294L146.438 18.5572H146.417L146.41 18.5712H146.403L146.389 18.5851L146.347 18.606L146.319 18.7105V18.7174L146.326 18.7801L146.284 18.815L146.298 18.7662L146.18 18.7801C146.131 18.7871 146.117 18.808 146.096 18.8289L146.054 18.8846L145.992 18.9404L145.957 18.9682L145.929 18.9891L145.915 19.01V19.0239H145.901L145.887 19.0379L145.873 19.0727L145.852 19.0797L145.838 19.1006L145.811 19.0936L145.79 19.1145L145.762 19.1424L145.734 19.1702C145.72 19.2051 145.727 19.1842 145.692 19.226L145.671 19.2469L145.629 19.2747L145.602 19.2887L145.581 19.3096L145.574 19.3235L145.56 19.3374L145.539 19.3513H145.518L145.504 19.3653L145.476 19.3792C145.427 19.4071 145.434 19.421 145.407 19.428L145.337 19.4698L145.33 19.4837L145.253 19.5046L145.211 19.5603C145.128 19.5743 145.051 19.616 145.016 19.6857V19.7205L145.03 19.7345L145.051 19.7414V19.7554L145.044 19.7693C145.03 19.7763 145.023 19.7763 144.968 19.7345C144.912 19.7484 144.842 19.8181 144.821 19.839L144.773 19.9016L144.766 19.9295L144.717 19.9504C144.682 19.9017 144.689 19.9434 144.661 19.9365L144.585 19.9852L144.578 20.0131L144.592 20.0201V20.041L144.585 20.0619L144.55 20.0688L144.536 20.0758H144.515L144.501 20.0688H144.466H144.445L144.431 20.0619L144.376 20.0549C144.32 20.0479 144.243 20.0828 144.215 20.1315C144.201 20.1664 144.194 20.1942 144.125 20.2012C144.125 20.236 144.076 20.2221 144.09 20.2639L144.048 20.2848L144.034 20.2917L144.041 20.3196L144.069 20.3335V20.3544L144.083 20.3753C144.041 20.3823 144.055 20.3893 144.041 20.4102L144.02 20.4241L143.999 20.4171L143.992 20.3962L144.006 20.3893H143.986L143.972 20.4032L143.965 20.3962L143.958 20.4032L143.867 20.4311L143.846 20.5077L143.853 20.5216L143.777 20.5286H143.693H143.679H143.672L143.637 20.5495L143.623 20.5564V20.5773H143.609L143.602 20.5913L143.588 20.6052L143.575 20.6191L143.554 20.6331L143.533 20.647C143.491 20.6888 143.442 20.7167 143.407 20.7585L143.373 20.7654L143.338 20.7585H143.324L143.303 20.7445L143.261 20.7724L143.254 20.7794H143.247L143.24 20.8072L143.143 20.8421H143.122L143.108 20.856L143.087 20.849L143.059 20.8629C142.989 20.8769 142.955 20.8978 142.906 20.8838L142.843 20.8908L142.766 20.9187C142.69 20.9465 142.585 20.9674 142.578 20.9814L142.544 20.9883H142.502L142.446 21.0092L142.376 21.0162C142.355 21.0232 142.335 21.0371 142.293 21.0371H142.286L142.23 21.065C142.195 21.0859 142.14 21.0859 142.091 21.0928H142.084L142.077 21.0998L142.049 21.1277L142.035 21.1486H142.007L141.951 21.1346L141.833 21.1973L141.666 21.2461C141.38 21.3366 140.746 21.4969 140.196 21.5526C140.238 21.1625 140.44 20.8908 140.621 20.4241ZM139.611 25.2933V25.2793L139.625 25.2933H139.611Z" fill="white"/>
<path d="M62.0244 25.7599C61.9895 25.8783 62.0035 25.9131 61.9965 25.9758L61.9547 26.2684L61.9477 26.2754L61.7945 26.4913L61.8084 26.5401L61.8224 26.561C61.6343 27.3133 61.3278 28.1562 61.4183 29.1244C61.4601 29.5563 61.5577 30.0091 61.7806 30.4271C61.8015 30.6012 61.8502 30.7684 61.9686 30.9286L62.0104 30.9565C62.094 31.1167 62.1498 31.0819 62.2612 31.1306C62.2891 31.1585 62.3936 31.3117 62.4911 31.3326C62.6165 31.4232 62.7349 31.4928 62.8533 31.5416L62.8812 31.5555L62.9578 31.5904C64.7132 32.2521 66.8448 28.2955 67.0538 28.2328C67.1095 28.1004 67.1234 28.0099 67.1791 27.9193C68.5166 25.7669 71.2472 22.1864 71.7767 22.4511L71.7697 22.4859V22.5416L71.7976 22.5904V22.5974C71.7976 22.6322 71.7836 22.7158 71.7627 22.7785C71.7557 22.8133 71.7418 22.8551 71.7349 22.8969C71.7209 22.9666 71.7209 23.0293 71.7209 23.0989L71.7976 23.1268C71.7906 23.1755 71.8324 23.2452 71.8254 23.2591C71.7697 23.6353 71.7209 24.0184 71.6722 24.3528L71.6652 24.3876V24.4015L71.6582 24.4085L71.6652 24.4224L71.6513 24.4433L71.6652 24.4642L71.6582 24.4782L71.6652 24.4921L71.6582 24.4991L71.6513 24.513V24.5339L71.6652 24.5548V24.5757L71.6582 24.5966L71.6722 24.6105L71.6443 24.6175L71.6513 24.6523L71.6582 24.6732L71.5746 25.3907L71.5955 25.3977C71.6025 25.5579 71.4911 30.0021 74.2844 30.8798C75.0785 31.1306 75.6358 31.1445 76.3184 30.9983C77.029 30.8659 79.1396 29.828 80.4492 27.6895C80.3099 29.0617 80.7906 30.4131 81.6334 31.0122C81.6334 31.0122 81.919 31.2421 82.0862 31.3048C82.2604 31.3744 82.4275 31.451 82.4275 31.451C83.57 32.0431 86.6768 31.1933 88.7317 27.9611C88.7178 28.1144 88.7108 28.2467 88.7247 28.2885V28.3303L88.7317 28.3234C88.7387 28.3651 88.7456 28.4 88.7526 28.4418C88.7526 28.4766 88.8013 28.5114 88.8083 28.5393L88.8223 28.5881L88.8362 28.6159C88.878 28.7622 88.9407 28.9015 89.0173 29.0339V29.0408L89.0243 29.1105L89.0661 29.1453C89.0312 29.2568 89.0939 29.208 89.1566 29.2846C89.2681 29.4936 89.4213 29.6469 89.5676 29.7792C90.2015 30.3574 94.1581 32.6144 99.2363 24.4782C99.0273 25.4325 98.8114 26.4565 98.6094 27.3899C98.5049 27.8845 98.4561 28.4348 98.3934 29.006C98.3377 29.6051 98.275 30.2599 98.4143 30.9774C98.484 31.3257 98.6094 31.7297 98.9368 32.0431L99.0203 32.0989C99.083 32.1825 99.1457 32.2661 99.2224 32.3288C99.2572 32.3636 99.306 32.3984 99.3547 32.4193L99.3617 32.4263C99.3965 32.4472 99.4314 32.4611 99.4731 32.482C99.5498 32.5168 101.082 32.886 100.811 32.1476C100.434 31.1515 101.5 25.9828 102.106 24.2622C102.378 23.482 102.371 23.496 102.552 22.6113L102.594 22.3605C102.622 22.061 102.747 21.9286 102.873 21.6152V21.4201C103.66 19.5254 104.182 17.4635 104.927 15.5061C105.471 13.9318 105.861 12.6918 106.383 10.7414C107.665 10.616 109.727 10.6856 111.009 10.4976C112.813 10.2329 116.47 10.3304 118.567 10.2259V10.2468C119.242 10.1771 120.232 10.2468 121.061 10.2886L121.75 10.205C124.007 10.3582 126.278 10.5672 128.563 11.0061C129.705 11.236 130.869 11.424 131.941 11.8768C132.478 12.1067 132.986 12.4132 133.404 12.8172C133.557 12.9705 134.136 13.8064 133.787 14.2383C133.474 14.6284 134.428 14.8095 135.257 14.0641L135.389 13.9178C135.473 13.8203 135.55 13.7089 135.612 13.5556C135.842 13.2561 136.002 12.6988 135.919 12.0579L135.891 12.0092C135.877 11.9534 135.87 11.8977 135.849 11.849C135.752 11.5842 135.682 11.3753 135.508 11.1593C135.417 11.0479 135.382 10.9713 135.306 10.8528C135.271 10.8041 135.125 10.6787 135.118 10.6787C135.111 10.6717 135.076 10.616 135.069 10.5812C135.062 10.5463 135.055 10.5603 135.048 10.5463L135.013 10.5185L134.999 10.4906L134.978 10.4767L134.985 10.4209L134.951 10.414L134.923 10.3791L134.888 10.3443L134.853 10.3165L134.588 10.1144C134.526 10.0657 134.463 10.01 134.414 9.9612C134.331 9.85671 134.24 9.84277 134.177 9.79401C133.599 9.44571 133.146 9.22281 132.54 8.979L132.492 8.98596L132.45 8.96507C132.317 8.9581 131.677 8.74215 131.468 8.67946C131.245 8.60283 131.078 8.59588 130.834 8.56801L130.778 8.56104H130.75H130.729H130.687L130.639 8.54711L130.604 8.55408L130.569 8.54711H130.541L130.513 8.55408C130.478 8.54711 130.492 8.54711 130.458 8.53318H130.416L130.381 8.51925L130.339 8.51228H130.332C130.29 8.49835 130.242 8.49138 130.2 8.48442H130.193L130.186 8.47745C129.831 8.39386 129.622 8.31027 129.252 8.25454L129.245 8.22668L129.225 8.21274L129.211 8.21972C129.127 8.24062 129.12 8.23364 129.12 8.23364L128.904 8.24061C128.507 8.14309 128.033 8.23364 127.636 8.21274C127.441 8.19881 127.295 8.12916 127.1 8.09433L126.8 8.04557L126.654 8.0177C126.64 8.0177 126.584 8.0386 126.543 8.04557L126.473 8.02466C126.278 8.07342 126.111 8.13612 126.09 8.02466C125.985 8.00376 125.79 8.0386 125.763 8.04557H125.7L125.651 8.05949L125.588 8.05253L125.533 8.05949C125.512 8.07343 125.484 8.06646 125.449 8.05949C125.414 8.04556 125.365 8.06647 125.331 8.06647C125.296 8.07343 125.247 8.07343 125.219 8.05949L125.101 8.07343L125.094 8.06647L125.101 8.05949L125.038 7.9968C125.003 7.97591 124.968 7.96198 124.941 7.94805C124.773 7.92018 124.725 7.92715 124.613 7.91322C124.383 7.89232 123.937 7.86445 123.687 7.89232C123.687 7.89232 123.652 7.91321 123.575 7.92714C123.499 7.93411 123.464 7.94108 123.38 7.93411L123.345 7.92714L123.283 7.89232L123.213 7.87838L123.102 7.86445L122.9 7.84355L122.698 7.82266L122.607 7.80176C122.565 7.78086 122.495 7.78782 122.475 7.78782L121.848 7.80176H121.743C121.729 7.80176 121.722 7.82266 121.68 7.82266C121.632 7.82266 121.639 7.82962 121.583 7.82962C121.527 7.82962 121.534 7.84355 121.513 7.82962H121.458L121.409 7.81569L121.374 7.82962L121.339 7.82266H121.311L121.256 7.81569L121.172 7.82266C121.026 7.85052 120.872 7.82962 120.719 7.82962C120.51 7.83658 120.252 7.83659 120.043 7.84355H120.05L119.681 7.83659C119.639 7.83659 119.605 7.82266 119.584 7.82266L119.507 7.82962C119.486 7.82962 119.472 7.80872 119.437 7.80872C119.061 7.78086 118.908 7.86445 118.622 7.83659C118.581 7.83659 118.483 7.87142 118.455 7.87838L118.379 7.85051H118.309L118.232 7.84355C118.211 7.84355 118.232 7.86445 118.184 7.85051C118.142 7.83658 118.149 7.82962 118.135 7.85051L118.058 7.85749L117.996 7.87142L117.919 7.85051C117.891 7.83658 117.905 7.84355 117.856 7.84355C117.807 7.84355 117.787 7.86445 117.787 7.86445L117.71 7.85051L117.661 7.85749L117.612 7.84355L117.536 7.85051C117.522 7.86445 117.536 7.85052 117.487 7.83659C117.438 7.82266 117.445 7.84355 117.383 7.84355C117.264 7.84355 117.153 7.85052 117.034 7.84355C116.763 7.83659 116.533 7.87141 116.219 7.88535C116.031 7.91321 114.004 7.98984 113.816 7.98984V7.97591V7.98287V7.98984C113.482 7.99681 111.148 8.07343 109.448 8.18489C109.205 8.19185 108.968 8.21972 108.738 8.24061C108.501 8.25455 108.369 8.37296 108.132 8.37993C108.006 8.3869 107.902 8.29634 107.763 8.31724L107.588 8.3451L107.122 8.40083L107.066 8.41476L107.031 8.44262H106.982C107.198 7.57885 107.623 6.1787 107.749 4.93877C107.79 4.54171 108.167 1.60906 106.077 1.77624L106.063 1.72748C105.624 1.73444 105.736 1.74838 105.304 1.8041L104.997 1.85287L104.83 1.8459C104.781 1.83893 104.691 1.85286 104.649 1.86679C104.614 1.87376 104.6 1.89466 104.579 1.90163L104.544 1.90859L104.523 1.92948L104.489 1.92252L104.468 1.92948L104.426 1.93646L104.377 1.95039C104.335 1.98522 104.21 1.99219 104.092 2.02702L104.085 2.02005L104.036 2.01308H103.98L103.883 2.02702L103.792 2.04094H103.757L103.736 2.05488L103.688 2.04791L103.576 2.06881C103.506 2.09668 103.409 2.11061 103.437 2.18723C103.492 2.36138 103.541 2.438 103.583 2.54249L103.653 2.69574L103.667 2.75147L103.674 2.84203C103.667 2.93259 103.667 2.93258 103.674 3.00224C103.681 3.0719 103.653 3.11369 103.653 3.12762C103.653 3.14156 103.646 3.16943 103.66 3.21122C103.674 3.25998 103.667 3.31571 103.667 3.31571L103.646 3.39233L103.653 3.55952C103.653 3.55952 103.667 3.73366 103.667 3.81725L103.639 3.86602C103.66 4.15162 103.618 4.19341 103.639 4.47901C103.618 4.54171 103.611 4.91787 103.604 4.95966C103.597 5.00842 103.569 5.10595 103.562 5.15471C103.555 5.20347 103.527 5.25919 103.52 5.29402C103.513 5.32885 103.513 5.39852 103.506 5.41942L103.486 5.48907C103.492 5.51693 103.465 5.74681 103.444 5.79557C103.332 6.116 103.256 6.93798 103.116 7.70424L103.102 7.73907L103.061 7.87142C103.054 7.96198 102.977 8.02467 103.012 8.11522L102.998 8.15702C102.963 8.27544 102.921 8.49835 102.893 8.65856C102.907 8.71429 102.726 8.69339 102.615 8.72125L102.239 8.77002L101.612 8.84665L101.591 8.81181L99.5707 9.14617L98.5606 9.31336L98.059 9.39695L97.5366 9.43178L97.5157 9.43875H97.5088L97.4948 9.43178L97.4112 9.38999L97.3346 9.34819L97.2928 9.3273L97.2649 9.31336L97.244 9.3064H97.2231C97.2023 9.27854 97.0699 9.25763 97.0281 9.21584C96.9933 9.18101 97.0002 9.18101 96.9863 9.16708L96.9445 9.13225C96.9097 9.09742 96.8609 9.09742 96.84 9.09046C96.7912 9.07653 96.7425 9.05562 96.6937 9.02776C96.4987 8.93023 96.2967 8.84665 96.0877 8.76306L96.0807 8.75609C96.0529 8.72126 96.0529 8.72822 96.0389 8.72125L95.9832 8.68643L95.8787 8.63767L95.6767 8.54711L95.4817 8.45656L95.405 8.40779L95.3981 8.38689C94.9592 8.25454 94.5482 8.07343 94.1442 7.95501L94.1721 7.96197L94.1024 7.94107C93.9979 7.91321 93.8934 7.87838 93.789 7.84355C93.566 7.76693 93.0645 7.61367 92.8416 7.55795C92.7859 7.54401 92.7441 7.57884 92.7162 7.57884L92.6674 7.54402L92.6396 7.53009L92.5908 7.54402L92.5212 7.50919C92.4933 7.50222 92.4515 7.50919 92.3958 7.48829C92.2565 7.4465 92.1171 7.41863 91.9778 7.3838L91.9708 7.37684L91.936 7.35594L91.8873 7.33504L91.7967 7.30021L91.6295 7.23055L91.3021 7.10517L91.2743 7.09123L91.2394 7.07731C90.5498 7.00765 89.8602 6.93101 89.1636 6.86136L89.1009 6.77777L89.0591 6.78473C88.8571 6.79866 88.6063 6.7708 88.3904 6.78473L88.1466 6.70114C88.1675 6.66631 87.9863 6.66631 87.9863 6.64541L87.8679 6.58272L87.7495 6.58968L87.3803 6.56879C87.4151 6.54789 86.8788 6.52003 86.9345 6.49914C86.0638 6.5061 85.5135 6.39465 84.6706 6.40161L84.573 6.42947C84.5243 6.42251 84.4755 6.42251 84.4268 6.40161C84.2874 6.38071 84.1551 6.36677 84.0297 6.35981L83.9252 6.35285L83.8834 6.36678L83.8486 6.33891L83.7929 6.33195H83.6953H83.6466C83.4306 6.33195 83.2216 6.34588 83.0196 6.36678C82.9221 6.35285 82.8316 6.33892 82.7549 6.38768C82.6714 6.39464 82.5947 6.40161 82.5111 6.40858C82.4833 6.40858 82.4345 6.40161 82.3857 6.40858C82.337 6.41554 82.337 6.40858 82.3161 6.40161C82.2952 6.39465 82.2813 6.41554 82.2464 6.40161L82.1768 6.38072L82.1698 6.38768L82.1559 6.38072L82.1071 6.36678L82.0235 6.35981L81.8633 6.35285L81.5498 6.34588C81.3478 6.34588 81.1249 6.33195 80.9577 6.32499L80.902 6.31801C80.7418 6.36678 80.4771 6.35981 80.2681 6.37374C80.0382 6.39464 79.8362 6.35981 79.5785 6.42947L79.4879 6.43643C79.3138 6.4643 79.2371 6.4434 79.063 6.45733L79.0491 6.40858C78.9516 6.41554 78.861 6.41554 78.7635 6.42251L78.7565 6.40161C78.7217 6.40161 78.6451 6.39464 78.6311 6.38768H78.5545C78.5406 6.38768 78.4709 6.38072 78.4361 6.38072C77.8718 6.38072 77.3633 6.53396 76.8757 6.59666C76.7503 6.61059 76.6319 6.62452 76.5135 6.62452C76.4647 6.63148 76.3811 6.61058 76.3184 6.64541L76.1513 6.68721C76.0398 6.71507 75.9214 6.73597 75.8099 6.75687L75.6427 6.79866L75.5591 6.82653L75.5034 6.86136L75.4965 6.86833C75.1482 6.82653 74.7511 6.88226 74.4655 6.98675L74.3749 6.96585L74.3262 6.98675L74.2426 6.97281H74.1311C74.1033 6.97978 74.0476 6.97281 73.9779 6.97281C73.8734 6.97281 73.7619 7.00764 73.6714 7.02854L73.4763 7.07731C73.351 7.11214 73.2325 7.14696 73.1072 7.18179C72.8703 7.25145 72.6404 7.32111 72.4106 7.3838C72.2921 7.4047 72.1876 7.46739 72.0971 7.43953C71.902 7.4256 71.8533 7.51616 71.7418 7.54402C71.5398 7.62761 71.3517 7.7112 71.1428 7.73907L71.0801 7.80872L71.0243 7.82962C70.9895 7.81569 70.9686 7.84355 70.9198 7.85749L69.5476 8.33814C69.2898 8.43566 69.1435 8.60284 68.9346 8.72823C68.7465 8.82575 68.4887 8.91631 68.2867 9.03473C67.7782 9.32033 67.3324 9.68256 66.9284 10.1005C66.9005 10.1562 66.8518 10.1284 66.8518 10.1911C66.8518 10.2538 66.8309 10.2607 66.81 10.2816L66.7891 10.3025L66.7333 10.3513L66.6706 10.3791C66.6706 10.3931 66.7124 10.3652 66.6706 10.3931C66.6288 10.4209 66.5801 10.4349 66.5801 10.4349L66.5383 10.4558C66.5243 10.4836 66.4965 10.4697 66.4895 10.5115C66.4826 10.5533 66.4617 10.5394 66.4408 10.5394H66.3711L66.3223 10.6439C66.0367 10.9852 65.9323 11.0479 65.6815 11.5842C65.584 11.7863 65.4655 11.9534 65.4586 12.5038C65.4586 12.7894 65.5422 13.0192 65.6257 13.277C65.7233 13.5277 65.8487 13.7785 66.0437 13.9875C66.1412 14.099 66.7751 16.5509 80.3656 14.6423C84.5382 14.0571 89.0034 13.2143 90.717 12.866C91.6574 12.6709 92.9182 12.455 94.381 12.2181L94.4507 12.2112L94.5064 12.1973C95.3911 12.0579 96.0668 11.9117 97.0769 11.7654C97.1396 11.7584 97.2023 11.7514 97.2649 11.7445C98.4074 12.7824 98.6651 13.6462 99.1179 14.6493L99.1457 14.705L99.1945 14.8234C99.2502 15.0393 99.292 15.0393 99.3895 15.2553C99.4592 15.4434 99.5358 15.6384 99.5985 15.8265C99.9329 16.8784 100.163 17.965 100.198 19.0239C98.1496 24.4224 94.5064 28.1353 92.556 28.1213C91.6225 28.1144 91.525 27.1391 91.6086 25.7808C91.6156 25.6902 91.6226 25.6066 91.6295 25.53V25.5022C91.6504 25.321 91.734 24.9518 91.7479 24.924L91.7201 24.8543L91.734 24.7638L91.6852 24.8056V24.7986V24.7638C91.6922 24.7289 91.727 24.6871 91.7549 24.6523C91.7897 24.6036 91.734 24.5826 91.734 24.5826C91.734 24.5826 91.734 24.513 91.727 24.4782C91.7201 24.4433 91.6992 24.3876 91.6992 24.3876C91.6992 24.3876 91.727 24.3249 91.734 24.2692C91.741 24.2135 91.6922 24.1995 91.7201 24.1229C91.7479 24.0463 91.727 24.0393 91.7201 23.9975C91.7131 23.9557 91.7131 23.9279 91.7131 23.9279L91.6852 23.8512C91.6643 23.8303 91.6643 23.7885 91.6504 23.7537C91.6435 23.7189 91.6504 23.7049 91.6017 23.691C91.5808 23.684 91.5041 23.6423 91.4275 23.5865C91.3648 23.5308 91.2882 23.482 91.1976 23.4472C91.1071 23.4124 90.8006 23.2661 90.6891 23.2382C90.6543 23.2313 90.6125 23.2173 90.5568 23.2104C90.4662 23.1964 90.3687 23.1964 90.2642 23.2104C89.6651 23.1755 89.1218 23.5099 89.1009 23.5378L89.0312 23.6283L88.9755 23.7189L88.8919 23.7816C88.871 23.8025 88.8501 23.8025 88.8223 23.8582C88.8014 23.9139 88.8014 23.9488 88.7596 23.9975C88.7178 24.0463 88.6969 24.0741 88.662 24.1299C88.6272 24.1856 88.5436 24.4712 88.5158 24.5409C88.4809 24.6035 88.4322 24.6314 88.4113 24.6662C88.4043 24.6871 88.3973 24.7568 88.3834 24.8195L88.3416 24.91C88.2928 24.9449 88.2371 25.1608 88.2162 25.2235C88.1953 25.2862 88.1535 25.2723 88.1187 25.328C88.0978 25.3628 88.0839 25.4395 88.056 25.5022L88.0003 25.5857C87.9376 25.6275 87.8261 25.8713 87.7983 25.9271C86.7394 27.996 85.0885 29.1035 84.2317 28.6786C83.4237 28.2746 84.1342 25.7111 84.4477 24.6175C84.6148 24.0323 84.8029 23.7328 84.998 23.2173L85.0189 23.2313C85.2348 22.5695 85.5552 21.9077 86.001 21.3853C86.5305 20.633 86.7882 20.3056 87.2619 19.8667C87.6241 19.6159 87.8261 19.3582 88.1326 19.198C88.5436 18.989 88.9198 18.8985 89.2402 19.2816V19.2886L89.3238 19.3164L89.3377 19.3373L89.3168 19.3582L89.3517 19.3791H89.3586C89.4631 19.5463 89.5188 19.7344 89.5815 19.9016C89.5746 19.9782 89.693 19.8737 89.7069 19.9573L89.693 19.9852L89.686 20.0409C89.686 20.0827 89.686 20.1105 89.6999 20.1384C89.7069 20.1732 89.686 20.1872 89.6791 20.2011L89.6721 20.2568L89.7139 20.2847L89.7069 20.3474L89.7278 20.3752C89.7278 20.3752 89.7208 20.417 89.7696 20.4728L89.7487 20.5076C89.7069 20.5842 89.7209 20.6608 89.686 20.7375L89.6721 20.7793C89.8045 21.7615 89.5746 21.9008 90.0482 22.068C90.3617 22.1794 91.323 21.9565 91.8246 20.6121C92.1798 19.6577 92.1311 17.366 90.4593 16.5231C90.2433 16.4256 89.9856 16.3629 89.9716 16.3489C89.9577 16.335 89.8323 16.3211 89.7905 16.3071C89.7487 16.2932 89.6791 16.2862 89.6373 16.2514C89.5955 16.2166 89.5815 16.3141 89.5537 16.3141L89.4771 16.2723C89.4631 16.2445 89.4352 16.2723 89.4004 16.2653C89.3656 16.2584 89.3447 16.2653 89.3099 16.2375C89.275 16.2096 89.2611 16.2375 89.2123 16.2514C89.1636 16.2654 89.1566 16.2584 89.1148 16.2096C89.073 16.1678 89.0173 16.2026 88.9337 16.2096C88.7108 16.1748 88.3904 16.1469 88.1814 16.1539C88.1326 16.1609 88.0839 16.1818 88.0351 16.1957H88.0212L87.8888 16.2584C87.8122 16.342 87.7147 16.2793 87.5962 16.3071C87.3873 16.3559 87.0459 16.4256 86.8788 16.5579C86.83 16.5858 86.7952 16.6276 86.7534 16.6624L86.6907 16.6485L86.6489 16.7251L86.5932 16.7181L86.5514 16.753C86.5305 16.7599 86.5165 16.7808 86.4747 16.7669C86.4329 16.753 86.3912 16.7948 86.3424 16.8226C86.1752 16.8992 85.9941 16.9689 85.9105 17.1013C85.8548 17.157 85.7572 17.15 85.6736 17.2057C85.611 17.2684 85.5622 17.2824 85.4925 17.3381C85.3672 17.4426 85.2209 17.5331 85.0746 17.6376C84.9422 17.7491 84.6357 17.9372 84.5939 18.1531L84.6148 18.1392L84.6079 18.1601L84.6288 18.1531L84.5382 18.2297L84.5173 18.181L84.5104 18.1601L84.4964 18.167L84.4477 18.2019C84.1969 18.3551 84.1342 18.5362 83.9391 18.794C83.8695 18.9054 83.765 18.9821 83.6605 19.0656L83.5908 19.1144L83.5839 19.1283L83.5491 19.1562C83.5073 19.2189 83.4655 19.2886 83.4237 19.3582L83.4097 19.5463C83.361 19.6229 83.2774 19.5881 83.2217 19.6717C83.1729 19.7135 83.1381 19.7483 83.1381 19.7692L83.1172 19.8319L83.0614 19.8946L83.0545 19.9433L83.0057 19.9573L82.9778 20.0269L82.9221 20.0618C82.7967 20.2359 82.6713 20.5285 82.546 20.7305C82.4415 20.9046 82.323 21.1833 82.1977 21.3644C82.0792 21.5385 82.0444 21.8938 81.8703 22.0331C81.8354 22.068 81.8215 22.0819 81.8285 22.1167C81.8354 22.1585 81.8145 22.1933 81.8145 22.1933C81.8145 22.1933 81.7449 22.1794 81.7519 22.2142C81.7658 22.2491 81.8354 22.256 81.8076 22.263C81.6265 22.3187 81.7031 22.3466 81.5986 22.5347C81.4802 22.7506 81.4732 22.7645 81.3827 22.9944C80.6443 24.8265 79.3625 26.8187 77.9485 27.9402C77.6977 28.1422 77.5026 28.2258 77.224 28.3791H77.2031L77.1683 28.386L77.1613 28.3651L77.1474 28.386L77.0847 28.4209H77.0638L77.0708 28.4348C77.0011 28.4836 76.9593 28.4766 76.8966 28.5254L76.6598 28.5672C76.5762 28.5323 76.5344 28.5811 76.5204 28.5811L76.4647 28.5532L76.409 28.5393L76.3602 28.5114H76.3324L76.2697 28.4905C76.2488 28.4696 76.2557 28.4348 76.207 28.4278C74.4098 28.3303 75.1203 22.7436 75.2805 19.7413C75.3711 17.979 73.142 17.7073 71.9926 18.7522C71.8254 18.9054 71.5816 18.989 71.4911 19.2259L71.5537 19.1841L71.5468 19.198L71.4353 19.2816L71.4284 19.2677L71.4144 19.2189L71.3726 19.2398C70.9616 19.4627 70.69 19.8389 70.3835 20.1593C70.3069 20.2359 70.2232 20.3125 70.1327 20.3752C70.0839 20.4101 70.0491 20.431 69.9864 20.4658L69.875 20.5981L69.4431 21.1136L69.3943 21.1763L69.3525 21.2181L69.3177 21.246L69.2898 21.2738L69.2411 21.3017L69.2271 21.3435L69.1923 21.3783V21.3992L69.1644 21.4201L69.1505 21.455L69.1087 21.4759C69.0948 21.4898 69.0739 21.4619 69.0669 21.5037C69.0599 21.5455 69.0112 21.5664 68.9973 21.5803L68.3564 22.2909C68.1962 22.4859 68.022 22.6531 67.8479 22.8342C67.8479 22.8342 67.7921 22.9039 67.7573 22.9248C67.7225 22.9457 67.6598 23.0641 67.6598 23.0641L67.6319 23.0989L67.5832 23.1546L67.5414 23.2034L67.4926 23.2591L67.4787 23.2731C67.4299 23.3218 67.3812 23.3636 67.3185 23.3984H67.3115C67.2836 23.4402 67.2488 23.482 67.2209 23.5308L67.1931 23.5029L67.0816 23.6005L67.1304 23.6562L67.1095 23.6841L67.1304 23.7119C67.0607 23.7955 66.998 23.8791 66.9284 23.9627L66.7612 24.1647L66.6776 24.2553C66.6497 24.2831 66.5801 24.297 66.6219 24.3737L66.6079 24.3528C66.2318 24.8404 65.8487 25.3419 65.5004 25.7947C65.4168 25.8992 65.3401 26.0037 65.2635 26.1012C65.0128 25.732 67.5414 20.1036 67.7155 18.7731C67.7364 18.78 67.7504 18.78 67.7504 18.8149C67.827 18.4457 67.9872 18.1322 67.9802 17.756L68.0011 17.763C68.1962 16.5579 66.4617 16.0494 64.6645 16.5161L64.6505 16.5649C64.553 16.5997 64.5042 16.7181 64.4694 16.8017C64.4276 16.8992 64.3928 16.9759 64.3858 17.0107L64.2883 17.15C64.2674 17.1848 64.2256 17.2127 64.2256 17.2754C64.2256 17.3381 64.2186 17.4078 64.1977 17.4496C64.1768 17.4983 64.1559 17.6167 64.1281 17.7212C64.1072 17.8257 64.0863 17.8327 64.0584 17.8814C64.0305 17.9302 64.0445 17.972 63.9957 18.0556C63.947 18.1392 63.8982 18.1392 63.8982 18.2158C63.8982 18.2924 63.9191 18.2715 63.8912 18.3621C63.8634 18.4526 63.8843 18.5293 63.8843 18.5293L63.8494 18.6129C63.8494 18.6129 63.8425 18.6198 63.8216 18.6756C63.8076 18.7104 63.8007 18.7731 63.7868 18.8427C62.2891 21.8868 59.454 24.7777 56.3472 27.5153C56.584 26.0734 56.7721 24.9449 56.8278 24.6314C57.0159 23.5726 57.1831 22.4929 57.0925 21.3365C57.0925 21.0858 56.8975 19.4139 55.3998 19.5393C54.94 16.342 53.0732 16.2305 52.5995 16.2514C52.5507 16.2514 52.4532 16.2793 52.4323 16.2723L52.3557 16.2862C52.3348 16.2862 52.286 16.3141 52.2442 16.3071C52.2024 16.3071 52.1606 16.3211 52.1119 16.328L52.091 16.335L52.0701 16.328C52.0213 16.3211 51.9795 16.3211 51.9377 16.328L51.9308 16.3211C51.889 16.3002 51.882 16.3071 51.8611 16.3071L51.7775 16.335L51.7288 16.3489C51.7079 16.3629 51.7078 16.3907 51.666 16.3838C51.5128 16.3629 51.3387 16.5092 51.276 16.4813H51.2342C51.0531 16.5649 51.0182 16.5858 50.8859 16.6833L50.8301 16.6694H50.7883L50.7466 16.6903H50.6978H50.6281C50.5933 16.6903 50.5933 16.7112 50.5654 16.7251L50.4958 16.7599L50.4261 16.7878L50.3704 16.8157L50.3425 16.8226L50.3356 16.8296L50.3147 16.8366L50.3077 16.8435H50.2798L50.238 16.8783C50.2032 16.9132 50.1962 16.9132 50.1544 16.941C50.05 17.0037 49.9942 17.0455 49.8758 17.1361L49.8619 17.1779L49.7853 17.2057C49.7504 17.2266 49.7226 17.2475 49.7086 17.2545L49.6877 17.2615L49.6529 17.2754L49.6041 17.2963L49.5554 17.3242C49.5066 17.352 49.4718 17.3938 49.4509 17.4496L49.4021 17.4914L49.3673 17.5122L49.3534 17.5331L49.3464 17.5471L49.3394 17.561L49.3185 17.568L49.3116 17.5819H49.2907L49.2837 17.5958H49.2767L49.2628 17.6098L49.2489 17.6028L49.235 17.6098L49.1862 17.6446L49.1096 17.6934C49.0538 17.7282 49.019 17.7561 48.9633 17.7839C48.9076 17.9163 48.81 17.8605 48.7473 18.0486L48.7264 18.0765C48.7055 18.1183 48.6707 18.1322 48.6359 18.1601H48.601L48.5802 18.1461L48.5523 18.1601C48.3642 18.3342 48.2319 18.6059 48.1134 18.6686L48.0856 18.7034C48.0507 18.78 48.0368 18.8636 47.9811 18.9194C47.9393 18.9542 47.8696 19.0099 47.8557 19.0308L47.7721 19.1214L47.7164 19.1841L47.6676 19.2537L47.584 19.3164C47.584 19.3373 47.4865 19.3652 47.4517 19.4209C47.4238 19.4697 47.4029 19.5115 47.3751 19.5533C47.3472 19.5951 47.3124 19.6926 47.2497 19.6856H47.2357L47.2288 19.7065C47.2079 19.7692 47.2079 19.7483 47.18 19.7831L47.1382 19.8249L47.1243 19.8807L47.1382 19.8876H47.1452C47.0477 19.9921 46.971 20.1036 46.8735 20.1872C46.7899 20.222 46.7969 20.3474 46.7829 20.4101C46.7969 20.4797 46.6994 20.4937 46.6576 20.5633C46.5252 20.6957 46.4764 20.8907 46.4138 21.0579C46.4138 21.0579 46.4207 21.0788 46.358 21.1136C46.3023 21.1485 46.358 21.1415 46.3511 21.1624L46.3162 21.1903C46.2953 21.2111 46.3232 21.246 46.2814 21.232C46.2396 21.2181 46.2466 21.246 46.2117 21.2947C46.1421 21.3992 46.0585 21.448 46.0655 21.5803L46.0097 21.643C45.9819 21.643 45.9261 21.6639 45.9052 21.6988L45.8983 21.7057V21.7127C45.8704 21.8729 45.7659 22.0053 45.6823 22.1376C45.6266 22.256 45.5082 22.3466 45.5082 22.5068L45.4803 22.5556L45.4455 22.5974C45.2365 22.9039 45.2156 23.1059 45.1042 23.3427C45.0763 23.3984 45.0415 23.4542 44.9927 23.496C44.9161 23.5308 44.923 23.6283 44.9022 23.6841C44.8813 23.7467 44.8534 23.7816 44.8534 23.8303C44.8534 23.8791 44.8394 23.9209 44.8186 23.9557C44.8046 23.9906 44.8186 23.9836 44.8116 24.0184L44.7768 24.0811L44.7559 24.1159L44.728 24.1786C44.728 24.1786 44.7419 24.1856 44.7141 24.2204C44.6932 24.2552 44.6723 24.2622 44.6374 24.3458C44.4563 24.7916 44.2404 25.2374 44.0662 25.6415H44.0593C44.0453 25.6763 44.0384 25.7111 44.0314 25.746L43.9966 25.7947L44.0035 25.8017C41.252 30.2111 39.8867 30.3017 39.4339 30.3017C38.0964 30.3156 38.2706 28.8876 38.2567 28.4557C38.2776 28.4627 38.2915 28.3233 38.2985 28.3721C38.3194 27.8845 38.4656 27.6616 38.5353 27.2088L38.5841 27.0486C38.6398 26.4704 38.8279 25.9271 39.0299 25.3977C39.1274 25.126 39.2319 24.8822 39.3224 24.5966C39.3921 24.3179 39.5732 23.9975 39.615 23.7189C39.8379 23.1128 40.0051 22.5556 40.3116 21.9356C40.6042 21.3156 40.9873 20.7166 41.0918 19.9991C41.2032 19.2468 40.7853 18.5989 40.5554 18.383C40.4231 18.2576 40.2559 18.1461 40.1235 18.0695H40.1096H40.1026H40.0957C40.019 17.9999 39.9424 17.9999 39.9354 17.9999L39.9146 17.972L39.8867 17.9581L39.8519 17.9372L39.831 17.9093L39.7822 17.8884C39.7822 17.8814 39.7265 17.8536 39.6916 17.8327C39.6499 17.8118 39.622 17.8118 39.615 17.8118L39.5593 17.7839L39.5245 17.756L39.4827 17.7282L39.406 17.6794L39.3573 17.6516H39.3364L39.2876 17.6376H39.2667V17.6446C39.1901 17.6376 39.1204 17.6098 39.0368 17.5958C38.9881 17.5889 38.9811 17.5749 38.9254 17.5889H38.8766C38.8209 17.5889 38.7861 17.561 38.7303 17.5471L38.7234 17.5122H38.7164V17.4983L38.6886 17.4844H38.6607L38.6398 17.4914L38.591 17.4844L38.5841 17.4914H38.5771H38.5632V17.4983L38.5423 17.4914L38.5283 17.4774H38.5074H38.4935L38.4587 17.4705H38.4169C38.3821 17.4774 38.403 17.4774 38.3612 17.4705C37.1769 17.366 37.1212 17.7421 37.5043 18.2228C37.5461 18.2715 37.5183 18.2646 37.5461 18.2785H37.5392L37.5601 18.2994L37.581 18.383L37.5392 18.4317L37.5322 18.4457L37.5392 18.4596C37.581 18.5571 37.6297 18.6616 37.581 18.7173L37.6088 18.7382V18.7661H37.6228C37.6019 18.9194 37.581 19.0726 37.5252 19.205C37.4556 19.2677 37.5183 19.393 37.5113 19.4627C37.5322 19.5324 37.4417 19.5811 37.4138 19.6578C37.3163 19.8249 37.163 20.6469 36.968 21.0091L36.9749 21.0231V21.037C36.9749 21.1206 36.8844 21.1067 36.8356 21.1903V21.1972C36.8287 21.3714 36.7451 21.5316 36.6754 21.6848C36.6336 21.8102 36.4873 22.068 36.4873 22.2212C36.3062 22.458 36.3132 22.7924 36.2296 23.0571C36.0694 23.2591 35.944 23.9279 35.8813 24.1856C35.7559 24.6871 35.5748 25.1748 35.4355 25.6415L35.4285 25.6484L35.4146 25.739H35.4076L35.3937 25.7669L35.4076 25.8435V25.8783L35.4355 25.8992C35.4006 26.0594 35.3797 26.2266 35.3101 26.352L35.3031 26.359L35.324 26.4147C35.115 27.6616 34.8434 28.6786 35.3728 30.0161C35.4285 30.1554 35.5051 30.2808 35.5818 30.4062C35.6096 30.4619 35.6305 30.5315 35.6584 30.5873C35.7629 30.7893 35.8952 30.9774 36.0415 31.1445C36.2296 31.458 36.3689 31.6879 36.7102 31.8551L36.8496 31.9178C36.9889 32.1198 37.2118 32.0571 37.372 32.0989L37.4625 32.1337L37.4347 32.1267C37.5949 32.1755 38.0129 32.2243 38.187 32.2521C38.2218 32.2661 38.2636 32.273 38.3124 32.273C38.3542 32.28 38.4308 32.2452 38.4656 32.2521H38.4796C39.4478 32.3009 40.6878 31.8829 41.7744 31.0888C41.8023 31.0679 41.8023 31.0679 41.8093 31.0261L41.858 30.9843L41.8859 30.9356C42.2133 30.7475 42.8472 30.0718 43.3488 29.4867C43.3627 30.3783 43.5786 30.852 43.6135 30.9356C43.6343 30.9774 43.6135 31.0122 43.6343 31.054L43.6901 31.1027C43.7528 31.4092 43.8364 31.5625 44.0802 31.8272L44.1847 31.9387C44.2961 32.078 44.3867 32.1337 44.5121 32.1476C44.5539 32.1546 44.5956 32.1616 44.6374 32.1755C44.6583 32.1825 44.8255 32.3009 44.9648 32.3078C45.1111 32.3566 45.2574 32.3914 45.4246 32.4123L45.5082 32.4263C45.55 32.4332 45.9331 32.4472 45.9749 32.4541C46.7829 32.5238 47.7024 32.0362 48.6428 31.3814L48.9424 31.1654C49.1723 30.9913 49.4091 30.8102 49.639 30.6151L49.6459 30.6082L49.6529 30.6012L49.6668 30.5873C50.1057 30.2181 52.7458 27.6059 53.714 26.3729C53.5329 27.7382 53.3239 29.0408 53.0801 30.2808C46.9223 35.3868 41.1057 39.9007 43.3975 43.7598C43.4114 43.8086 43.4393 43.8573 43.4602 43.9061C43.502 44.0176 43.6413 43.9758 43.6343 44.0872L43.5995 44.0385C43.6274 44.2126 43.8155 44.2265 43.9339 44.2962L43.9409 44.3032C44.0941 44.547 44.1777 44.533 44.526 44.7281L44.6026 44.7629C44.6723 44.7977 45.1251 44.9162 45.2017 44.9301C48.8379 45.6337 54.0763 40.3605 55.9083 30.1833C58.43 28.0029 60.9238 25.7042 62.8046 23.3775C62.5747 24.1229 62.31 24.8892 62.0244 25.7599ZM81.9817 12.2808C81.8285 12.3017 81.8145 12.2739 81.6613 12.2808L81.5986 12.2948C81.6404 12.3296 81.5568 12.3435 81.5847 12.3575C81.4941 12.3644 81.4036 12.3644 81.313 12.3784C81.2224 12.3923 81.1179 12.455 81.0901 12.448C81.0622 12.4341 80.9995 12.4341 80.9368 12.4341C80.8741 12.4341 80.8881 12.4759 80.8463 12.4759C80.8045 12.4759 80.7279 12.4898 80.7279 12.4898C80.7279 12.4898 80.6861 12.5455 80.6234 12.5107L80.6164 12.455V12.4341L80.5955 12.4411C80.4074 12.4829 80.2263 12.5386 80.0243 12.5246L80.0173 12.5107L80.0243 12.4968L80.0452 12.4689L80.0104 12.4759H79.9964L79.9755 12.448L79.9477 12.4829C79.885 12.4689 79.8989 12.5386 79.8571 12.5595C79.8153 12.5804 79.7735 12.6013 79.669 12.6082C79.5645 12.6152 79.1954 12.6988 79.1675 12.7127L79.1187 12.7545C79.1187 12.7545 79.07 12.664 79.0282 12.65C78.9864 12.6361 78.9724 12.6918 78.9306 12.7058C78.8889 12.7197 78.8819 12.7824 78.861 12.7545C78.8471 12.7267 78.7635 12.7545 78.7286 12.7615C78.6938 12.7685 78.6869 12.7754 78.6381 12.7545L78.5545 12.7476L78.457 12.7824C78.4291 12.7963 78.3455 12.7894 78.2967 12.7894C78.248 12.7894 78.1783 12.8381 78.1156 12.8172L78.053 12.7894H77.9833H77.9067L77.8788 12.7545L77.8579 12.7615L77.83 12.7267L77.8091 12.7615V12.7754L77.6071 12.852C77.5305 12.8799 77.4608 12.9008 77.4121 12.9217C77.3564 12.9426 77.3424 12.859 77.3215 12.8729L77.2449 12.9078L77.1474 12.8938C77.1195 12.9008 77.0708 12.9426 77.0011 12.9356C76.9384 12.9217 76.8688 12.9774 76.8339 12.9774C76.7991 12.9774 76.6807 12.9426 76.5553 12.8869L76.5135 12.8799C76.3881 12.9078 76.2557 12.9496 76.1095 12.9983L76.0886 12.9844C76.0328 13.0053 75.9701 13.0262 75.9074 13.0471L75.8865 13.0401L75.8796 13.0053L75.8726 12.9705L75.8517 12.9914L75.8169 13.0123L75.796 13.0053L75.803 13.0192C75.6915 13.0332 75.2805 13.0819 75.2457 13.061C75.2108 13.0471 75.2457 13.061 75.2317 13.075L75.183 13.0262L75.1133 13.0471C75.0924 13.075 75.0576 13.0401 74.9949 13.0401C74.9253 13.0401 74.8835 13.0401 74.765 13.0541C74.6466 13.068 74.6188 13.0541 74.5839 13.0401C74.5421 13.0262 74.5212 13.0332 74.4934 13.0471C74.4655 13.061 74.4237 13.0541 74.3959 13.0192C74.368 12.9844 74.3262 13.0192 74.1938 13.0053C74.1311 12.9983 74.0406 12.9774 73.9779 13.0192C73.8107 13.0889 73.7898 13.1237 73.6505 13.1307C73.6226 13.1098 73.4067 13.1167 73.351 13.1307C73.2952 13.1446 73.2743 13.1237 73.2534 13.1168C73.2325 13.1028 73.2116 13.1168 73.135 13.1168C73.0653 13.1168 73.0653 13.1167 72.9887 13.1098C72.9121 13.1028 72.94 13.1098 72.8912 13.1237C72.8424 13.1377 72.8076 13.1307 72.7798 13.1237C72.7519 13.1168 72.717 13.1516 72.6822 13.1655C72.6474 13.1794 72.6195 13.1516 72.6056 13.1168C72.5917 13.0819 72.5638 13.1237 72.5359 13.1307C72.515 13.1376 72.4593 13.1307 72.4036 13.0889C72.3479 13.0471 72.3618 13.0889 72.3061 13.0959C72.2434 13.1028 72.2016 13.1098 72.1598 13.0959C72.118 13.0819 72.0971 13.1028 72.0623 13.1098C72.0274 13.1167 71.9926 13.1237 71.9717 13.075C71.9508 13.0332 71.902 13.061 71.8324 13.0471C71.7697 13.0332 71.7488 13.0053 71.6513 12.9983L71.6373 13.0053C71.5886 13.0192 71.5328 13.0192 71.4841 13.0262C71.4493 13.0401 71.3517 13.0262 71.3657 13.0959L71.2821 13.0471L71.2681 13.0401C71.2054 13.0123 71.1428 12.9983 71.0731 12.9914C69.9794 13.0959 69.0112 12.7824 69.3456 11.9395C69.3804 11.8559 69.3943 11.8768 69.4431 11.7863C69.4709 11.7514 69.4918 11.7096 69.5197 11.6748C69.7565 11.3195 69.9864 11.1384 70.4183 10.8668C70.6969 10.6856 71.1288 10.407 71.5607 10.212C72.6126 9.75919 73.1768 9.45268 75.0019 9.07652C76.1164 8.84665 78.248 8.47048 80.7627 8.27544C81.1179 8.31027 81.4802 8.35903 81.8285 8.3242L81.8842 8.30331C82.1071 8.35903 82.1489 8.23364 82.3021 8.19185C82.337 8.19185 82.3788 8.19185 82.4136 8.18489C82.4554 8.19185 82.4902 8.21274 82.532 8.25454L82.5529 8.28937C82.6435 8.2824 82.6505 8.24757 82.7062 8.17791C82.9012 8.17095 83.0893 8.17095 83.2843 8.16399C88.4461 8.25455 90.926 8.67946 93.6148 9.36909V9.38999C93.8517 9.39695 94.186 9.57807 94.4577 9.69649L94.994 9.97512C95.0428 9.99602 95.0707 10.01 95.1055 10.0308C92.5281 10.3025 87.7356 11.4589 81.9817 12.2808ZM99.1109 11.3962C99.8005 11.3126 102.266 10.8877 102.58 10.8459C102.399 11.8768 101.556 15.2623 101.256 16.342C100.908 14.3219 99.9677 12.2251 99.1109 11.3962ZM52.2442 33.91C50.851 37.5602 47.9671 42.8612 45.8007 42.5408L45.7729 42.5338C45.6893 42.5129 45.6057 42.4851 45.5291 42.4572V42.4781C45.1599 42.3457 45.1808 42.1159 45.146 42.0183L45.132 42.0114L45.1111 41.9487L45.0554 41.9765L45.0275 41.9278L45.0206 41.893L45.0066 41.8581L44.9927 41.8442C44.9091 39.7057 48.3294 36.6824 52.4393 33.2065C52.3696 33.4433 52.3069 33.6801 52.2442 33.91ZM53.7767 23.1686C49.3603 29.2707 47.4656 29.619 47.1312 29.4936C46.7969 29.3682 46.7133 28.8458 46.7133 28.5811V28.5254L46.7272 28.4557L46.6994 28.4C46.6924 28.2885 46.7063 28.184 46.7272 28.0865H46.7342V28.0726C46.8178 27.5919 47.0964 27.1879 47.2288 26.7142C47.4377 26.3381 47.5004 25.8504 47.6537 25.4186C47.6885 25.3419 47.7303 25.2583 47.7651 25.1817C47.8069 25.1051 47.8348 25.0145 47.8905 24.9449C48.0577 24.8334 48.1065 24.6036 48.1622 24.3806C48.2597 24.1926 48.3572 24.0045 48.4617 23.8164C48.9354 22.9596 49.1723 22.8621 49.3673 22.256C49.9524 21.3226 50.5306 20.5146 51.0113 20.0269C51.1645 19.9503 51.1993 19.9364 51.3108 19.8249L51.4014 19.7553C51.5267 19.7553 51.4849 19.6786 51.5476 19.6438L51.5825 19.616C51.6034 19.602 51.6591 19.5533 51.7009 19.5951L51.7288 19.5742C51.7636 19.5672 51.7427 19.5533 51.8054 19.5184C51.9586 19.4279 52.1955 19.4139 52.3278 19.4209C52.69 19.4348 52.9687 19.5881 53.2264 19.811L53.2473 19.818L53.2543 19.8458L53.2473 19.8598L53.2752 19.8876L53.303 19.9155L53.3239 19.9573L53.3588 19.9712L53.3448 20.006V20.0269L53.3588 20.0409C53.6235 20.4031 53.7558 21.2808 53.7558 21.2878V21.3156L53.7628 21.3296L53.7489 21.3435L53.7558 21.3574L53.7489 21.3992L53.7558 21.4759C53.7628 21.7127 53.8673 22.4023 53.7767 23.1686Z" fill="white"/>
<path d="M40.3745 12.051C40.3258 12.0579 40.3745 12.0928 40.3327 12.1415C40.2491 12.1067 40.3188 12.1833 40.2282 12.1903C40.2352 12.3714 40.2073 12.239 40.2352 12.3366L40.1725 12.3784C40.0959 12.3853 40.1446 12.5943 40.1028 12.6013C40.0402 12.8381 39.9357 12.9983 39.9566 13.3884C40.0123 13.4093 39.859 13.4929 39.8869 13.5208C39.8939 13.5556 39.8381 13.7158 39.8451 13.7506L39.873 13.7437C39.9008 13.9457 39.6083 14.6005 39.8172 14.7816L39.9914 14.9767C40.061 15.0742 40.1516 15.1926 40.284 15.2971C40.5417 15.4921 40.9457 15.6245 41.6214 15.4643C41.8443 15.4085 42.109 15.0533 42.2762 14.9627C42.318 15.0254 42.4643 14.7189 42.5548 14.7119C42.5897 14.6284 42.52 14.6702 42.5409 14.5587C42.5827 14.5587 42.6245 14.5587 42.6733 14.5726L42.6872 14.5517L42.722 14.5726V14.5169C42.7638 14.4751 42.8126 14.4403 42.8683 14.4124C42.8753 14.3637 42.8962 14.3219 42.9171 14.287C43.0634 14.2592 43.0146 14.2383 43.2027 14.1756C43.1052 14.0084 43.2793 14.0432 43.3559 13.9527C43.3211 13.9318 43.4325 13.876 43.4395 13.8412C44.5053 12.7685 44.3033 12.0161 43.8226 11.5355L43.7669 11.4728H43.753C43.3908 11.1384 42.8822 10.9573 42.6872 10.8319C42.5618 10.7483 42.4225 10.7901 42.3877 10.7692L42.325 10.7344H42.2623L42.2065 10.6996L42.1926 10.6299L42.1508 10.6439L42.109 10.6369H42.0603L41.9836 10.6021L41.9349 10.623C41.907 10.6369 41.8861 10.609 41.8513 10.5812C41.8165 10.5603 41.7747 10.5951 41.7468 10.609L41.6353 10.6021H41.5309C41.503 10.609 41.4124 10.6578 41.3776 10.6369C41.3428 10.616 41.294 10.6787 41.2313 10.6996C41.1686 10.7135 41.1408 10.7205 41.1129 10.7623C40.9945 10.9504 40.9596 10.9086 40.8621 10.9713C40.8134 11.0061 40.7716 11.013 40.7646 11.0409L40.7507 11.1036L40.7158 11.1454L40.7089 11.1872L40.6949 11.2638L40.7158 11.3265C40.4442 11.3962 40.472 11.7305 40.3536 11.9116C40.4024 11.9534 40.3675 12.0092 40.3745 12.051Z" fill="white"/>
<path d="M30.1694 12.4829C29.7375 12.7198 29.7723 12.6153 29.5912 12.7685C29.431 12.8591 29.2708 12.9496 29.1175 13.0332C28.6438 13.2979 25.1539 14.8304 23.8861 14.3568C23.1408 14.0781 23.1408 13.4581 22.9039 14.099C22.8552 14.2174 22.8203 14.4055 22.7925 14.5797C22.486 16.6137 23.9836 17.7143 25.0494 17.9581C25.6973 18.1044 26.5332 17.9651 27.1392 17.8049C27.7452 17.6516 28.2955 17.4566 28.8319 17.171C29.8977 16.5789 30.9356 15.9728 31.9457 15.3459C32.9557 14.712 33.9101 14.0224 34.8087 13.3119C36.1392 12.3018 37.4836 11.1873 38.6817 9.85677C39.2808 9.19501 39.845 8.47055 40.2769 7.63464C40.3326 7.52318 40.3814 7.41174 40.4371 7.29332C40.4511 7.26545 40.472 7.22365 40.4859 7.18882C40.8063 6.4783 41.0571 5.70508 41.0501 4.86917L41.0432 4.79952C41.0432 4.74379 41.0501 4.68806 41.0501 4.6393L41.071 4.5975L41.078 4.54177L41.085 4.45122C41.085 4.39549 41.085 4.33977 41.078 4.27707C41.071 4.16562 41.0571 4.0472 41.0362 3.92878C41.0153 3.81036 40.9874 3.69193 40.9526 3.57351L40.9317 3.46206L40.9387 3.39936L40.876 3.26004L40.8272 3.16252C40.7994 3.09983 40.7645 3.03713 40.7227 2.97444C40.6531 2.84905 40.5695 2.7376 40.4859 2.61918C40.3118 2.39627 40.1097 2.18033 39.8938 1.99921C39.6778 1.81113 39.6152 1.60216 39.3713 1.45587C39.1624 1.29566 38.6817 1.11454 38.4936 0.912533C38.4031 0.815011 38.222 0.815006 38.1802 0.766244C38.1384 0.717483 37.9991 0.717483 37.9433 0.668722C37.8876 0.612995 37.7622 0.61996 37.7413 0.592097C37.7204 0.564233 37.6577 0.543338 37.5532 0.529406C37.4488 0.515474 37.4 0.508507 37.3791 0.473677C37.3582 0.445814 37.1841 0.410985 37.0796 0.355258C36.9751 0.292565 36.8149 0.348291 36.7382 0.299529C36.6616 0.250768 36.4735 0.306494 36.376 0.243801V0.236839C36.3481 0.195043 36.2854 0.181107 36.2576 0.167175C36.181 0.146277 36.1043 0.118413 36.0277 0.0905497C35.8745 0.0487542 35.7142 0.132345 35.554 0.0905497L35.3172 0.027859C35.2057 -4.6762e-06 35.15 0.013928 35.0594 0.00696209C34.8992 0.00696209 34.739 0 34.5858 0C33.9658 0 33.7986 0.0139293 33.4503 0.0626907L33.3458 0.0696528H33.304L33.2762 0.0766255L33.2553 0.0835876H33.1717C32.6841 0.125383 32.6353 0.146283 32.3079 0.195045L32.078 0.167175H31.9457C31.7855 0.215937 31.6113 0.257734 31.4511 0.299529L31.2073 0.36222L31.0819 0.397052L31.0192 0.417949L30.9844 0.431883L30.9565 0.445818L30.9496 0.45278C30.7545 0.48761 30.8381 0.473676 30.6082 0.515471L30.3226 0.508509L30.2669 0.438846L29.9952 0.45278C29.7932 0.508508 29.7654 0.515471 29.4797 0.592097L29.4449 0.599069C29.3126 0.592103 29.2708 0.619962 29.1802 0.626928L29.1106 0.633901C29.0827 0.606037 29.0409 0.640859 29.0061 0.647825C28.7762 0.710518 27.9542 0.926462 27.7174 0.996121C27.2994 1.10061 26.9302 1.19814 26.6864 1.28173C26.6655 1.28869 26.3869 1.33745 26.3451 1.34442C25.955 1.45587 25.7808 1.54643 25.4256 1.66485L25.3141 1.72754C25.2166 1.75541 25.1748 1.78327 25.0703 1.79024C24.6593 1.88776 24.2832 2.02708 23.907 2.13853C23.1826 2.452 22.5905 2.81423 21.9984 3.065C21.9496 3.05107 21.9635 3.065 21.9357 3.065L21.866 3.07893L21.7615 3.11377L21.5665 3.19039C21.4411 3.24612 21.3157 3.29488 21.1973 3.3506C20.9604 3.45509 20.7375 3.55261 20.5216 3.65013L20.3614 3.71283C20.3056 3.74766 20.2778 3.71283 20.1663 3.79642C20.0967 3.85215 19.9991 3.91485 19.9086 3.96361C19.7205 4.0681 19.5324 4.17258 19.3583 4.2701C19.0727 4.43728 18.7801 4.56964 18.4457 4.80648C18.2716 4.904 18.0974 5.00849 17.9233 5.11298L17.8049 5.14084L17.6934 5.16175L17.3173 5.37769L17.2267 5.40555C17.0804 5.48914 17.0317 5.5379 16.8993 5.62149L16.8366 5.63542C15.9519 6.14394 15.2484 6.70817 14.6214 7.12613C14.503 7.20275 14.3776 7.27939 14.2453 7.34904C14.092 7.45353 13.9945 7.54409 13.8482 7.64857C13.7159 7.75306 13.5766 7.85756 13.4303 7.96901C13.3606 8.02474 13.284 8.08743 13.2143 8.15012C13.1795 8.18495 13.1447 8.21281 13.1029 8.26854C13.068 8.32427 13.082 8.31731 13.0889 8.31731L13.0472 8.3591L12.9636 8.37302C12.9078 8.39392 12.8451 8.42179 12.7824 8.45662C12.664 8.51932 12.5526 8.59594 12.4411 8.67256C12.3366 8.74919 12.2252 8.83278 12.1207 8.91638C11.9883 9.0139 11.9256 9.10445 11.8142 9.19501C11.64 9.34129 11.5146 9.41095 11.3196 9.55724L11.1872 9.64083C11.0549 9.74531 10.9504 9.78711 10.825 9.89856C10.3304 10.3444 9.85676 10.8599 9.37611 11.3823C9.25073 11.5147 9.10444 11.6888 8.99298 11.7933C8.94422 11.8351 8.81187 11.8769 8.74917 11.9814L8.57503 12.2182C8.34515 12.5317 8.12224 12.8382 7.87147 13.089L7.80878 13.2283L7.79485 13.284C7.44655 13.7229 7.14702 14.1687 6.90321 14.6006C6.76389 14.8513 6.16482 16.0843 6.12999 16.9411C5.98371 20.3753 8.8258 22.1795 12.5386 23.6075C12.6083 23.6423 12.7546 23.6562 12.8242 23.6911C12.8939 23.7259 12.9427 23.7538 12.9984 23.7747C13.0541 23.7956 13.1725 23.8792 13.2561 23.914C13.3397 23.9488 13.4651 23.9349 13.5975 23.9906C13.7368 24.0463 13.9249 24.123 14.0154 24.1439C14.106 24.1648 14.308 24.2902 14.3846 24.3041C14.4682 24.318 14.8026 24.3946 14.9071 24.4364C15.0115 24.4713 15.4225 24.5827 15.4991 24.6036C15.5827 24.6245 15.8474 24.6942 15.8823 24.7151C15.9101 24.736 16.0286 24.7708 16.0634 24.7778C16.0982 24.7847 16.2027 24.8405 16.2027 24.8405L16.342 24.8753L16.4604 24.9101C16.4604 24.9101 16.4674 24.931 16.5301 24.9449C16.5928 24.9589 16.8993 25.0146 17.0038 25.0494C17.1152 25.0843 17.8049 25.2584 17.8049 25.2584C23.7189 26.8884 29.4867 28.3652 28.609 32.1268C28.1771 33.9728 26.3312 35.8536 22.5417 37.5881C22.4442 37.6299 22.2631 37.7065 22.068 37.804C21.9635 37.8528 21.8799 37.8876 21.7685 37.9085C21.7197 37.9155 21.657 37.9433 21.6083 37.9712L21.5386 38.013L21.5038 38.0339L21.4829 38.0478L21.4759 38.0548C20.7584 38.3474 20.0409 38.5981 19.2886 38.8211C19.1911 38.8489 19.1702 38.9046 19.1702 38.9046C19.1702 38.9046 19.0239 38.8837 18.9682 38.9186C18.9125 38.9534 18.8916 38.9673 18.8428 38.9604C18.794 38.9534 18.7313 38.9743 18.5572 39.0231C17.3242 39.3644 15.9798 39.6639 14.4961 39.8381H14.4055L13.5626 39.9286C13.4372 39.9077 13.3954 39.9565 13.3676 39.9426C13.3397 39.9286 13.3397 39.9217 13.2492 39.9286C11.1315 40.0958 8.96512 40.1237 6.81265 39.6918C5.62148 39.441 4.40941 39.0649 3.35059 38.3474C2.82814 37.9921 2.3266 37.3791 2.08976 36.7591C1.99224 36.5014 1.7763 35.3033 2.27784 34.8226C3.12072 34.0006 1.17722 34.335 0.327382 35.9581C0.153235 36.2855 0.0626797 36.6547 0.0139183 37.0308C-0.0278772 37.4139 0.0208834 37.8389 0.208963 38.1941L0.236822 38.2499C0.313447 38.5006 0.424906 38.7514 0.578156 38.9673C0.849827 39.3853 1.16329 39.845 1.52552 40.1794C1.58125 40.2491 1.63002 40.256 1.65091 40.263L1.67181 40.27L1.74146 40.3396L1.85292 40.4302L1.91561 40.4998L2.00617 40.5625C2.00617 40.5625 2.13156 40.6392 2.18032 40.674C2.75849 41.0571 3.31576 41.4124 3.87303 41.6423C4.02628 41.7049 4.17953 41.7607 4.33278 41.8373C4.43727 41.8861 4.45121 41.8721 4.49997 41.9139C4.54873 41.9487 4.58356 41.9487 4.63232 41.9766C4.68109 42.0045 4.72288 42.0254 4.75771 42.0532C4.7995 42.0811 4.8413 42.109 4.89006 42.1229C4.94579 42.1368 5.0851 42.1856 5.0851 42.1856C6.47829 42.6662 8.00383 42.8125 9.27859 42.9797H9.27162C9.48059 43.0215 10.616 43.1539 10.9225 43.133C14.3289 43.3141 16.8993 42.6802 17.5959 42.5896C17.8467 42.5478 17.8885 42.5269 18.0417 42.4782C18.3482 42.3876 18.3134 42.4573 18.4597 42.4294C20.027 42.0393 21.6431 41.684 23.0223 41.0501C23.4055 40.9944 24.6315 40.4093 25.1957 40.2142C25.5649 40.0122 25.9132 39.7893 26.0595 39.7057C31.7367 36.578 32.8443 33.7011 33.0602 32.287C33.729 27.8706 30.2669 25.9202 26.1082 24.3668C25.9202 24.2623 25.7251 24.1717 25.753 24.1996C25.5301 24.0742 25.3141 24.1021 25.0843 23.9906C25.0076 23.9488 24.924 23.907 24.8474 23.8652C24.6663 23.7886 24.4922 23.8304 24.311 23.7538C23.8722 23.5727 23.4473 23.5309 22.9945 23.3637L22.9805 23.3567L22.9318 23.3288L22.8482 23.2871L22.681 23.2174L22.3536 23.1338L22.0819 23.0781L21.9635 23.0293C21.9148 23.0015 21.8799 22.9806 21.8521 22.9736L21.6779 22.9388C21.5874 22.9248 21.2669 22.8134 21.1764 22.7925C15.5967 21.2112 10.1842 20.2499 10.3374 17.0456C10.3653 16.4674 10.9225 15.7012 11.0619 15.5061C11.3266 15.1091 11.6331 14.7399 11.9465 14.3777C12.5874 13.6671 13.284 13.0123 14.0084 12.3924C15.4713 11.1733 17.0386 10.0797 18.6617 9.09749C20.2847 8.10833 21.9635 7.23062 23.705 6.48527C25.6694 5.62149 27.6477 4.95276 29.633 4.43729C30.6222 4.17955 31.6113 3.95664 32.6074 3.79642C33.5966 3.63621 34.948 3.48295 35.9302 3.49688C36.4387 3.51778 36.9402 3.53869 37.393 3.69194C37.6926 3.78946 37.9085 4.06113 38.0269 4.31887C38.0339 4.40246 38.0687 4.49301 38.0548 4.5975L38.0618 4.68806V4.73683C38.0757 5.76082 37.5045 6.56189 37.4279 6.69425C37.2676 6.96592 36.1531 8.07349 35.77 8.42875C35.2545 8.90244 34.3977 9.60599 34.2096 9.64779C34.0215 9.8289 33.729 10.0657 33.3946 10.3235C33.0742 10.5673 32.2104 11.1873 31.883 11.4102C31.5974 11.6052 31.3396 11.7794 31.1446 11.9117C30.9078 12.051 30.6779 12.1904 30.448 12.3227C30.3435 12.3715 30.0718 12.5665 30.1694 12.4829Z" fill="white"/>
</svg>
