<svg width="19" height="19" viewBox="0 0 19 19" fill="none" xmlns="http://www.w3.org/2000/svg">
<g clip-path="url(#clip0_1656_22916)">
<path d="M13.5919 19H5.40811C2.42661 19 0 16.5746 0 13.5919V5.40811C0 2.4254 2.4254 0 5.40811 0H13.5931C16.5746 0 19.0012 2.4254 19.0012 5.40811V13.5931C19.0012 16.5746 16.5758 19.0012 13.5931 19.0012L13.5919 19ZM5.40811 1.62857C3.32455 1.62857 1.62857 3.32334 1.62857 5.40811V13.5931C1.62857 15.6767 3.32334 17.3726 5.40811 17.3726H13.5931C15.6767 17.3726 17.3726 15.6779 17.3726 13.5931V5.40811C17.3726 3.32455 15.6779 1.62857 13.5931 1.62857H5.40811Z" fill="white" fill-opacity="0.65"/>
<path d="M9.4994 14.3647C6.81641 14.3647 4.63415 12.1824 4.63415 9.49941C4.63415 6.81642 6.81641 4.63416 9.4994 4.63416C12.1824 4.63416 14.3647 6.81642 14.3647 9.49941C14.3647 12.1824 12.1824 14.3647 9.4994 14.3647ZM9.4994 6.26393C7.71555 6.26393 6.26272 7.71556 6.26272 9.50061C6.26272 11.2857 7.71435 12.7373 9.4994 12.7373C11.2844 12.7373 12.7361 11.2857 12.7361 9.50061C12.7361 7.71556 11.2844 6.26393 9.4994 6.26393Z" fill="white" fill-opacity="0.65"/>
<path d="M15.7429 4.35731C15.7429 5.00368 15.2193 5.52607 14.5741 5.52607C13.9289 5.52607 13.4053 5.00248 13.4053 4.35731C13.4053 3.71214 13.9289 3.18854 14.5741 3.18854C15.2193 3.18854 15.7429 3.71214 15.7429 4.35731Z" fill="white" fill-opacity="0.65"/>
</g>
<defs>
<clipPath id="clip0_1656_22916">
<rect width="19" height="19" fill="white"/>
</clipPath>
</defs>
</svg>
