<svg width="157" height="157" viewBox="0 0 157 157" fill="none" xmlns="http://www.w3.org/2000/svg">
<g clip-path="url(#clip0_410_142236)">
<path d="M65.283 43.7356C63.4247 41.8452 58.939 40.5956 58.939 44.2162V112.768C58.939 116.452 63.4247 115.107 65.283 113.248L108.25 81.8962C110.108 80.0058 110.108 76.978 108.25 75.0876L65.283 43.7356Z" fill="white"/>
<path d="M78.5 0C35.2129 0 0 35.2129 0 78.5C0 121.787 35.2129 157 78.5 157C121.787 157 157 121.787 157 78.5C157 35.2129 121.787 0 78.5 0ZM78.5 153.476C37.1673 153.476 3.54051 119.849 3.54051 78.5C3.54051 37.1513 37.1673 3.52449 78.5 3.52449C119.833 3.52449 153.459 37.1673 153.459 78.5C153.459 119.833 119.833 153.476 78.5 153.476Z" fill="white"/>
</g>
<defs>
<clipPath id="clip0_410_142236">
<rect width="157" height="157" fill="white"/>
</clipPath>
</defs>
</svg>
