<svg width="32" height="48" viewBox="0 0 32 48" fill="none" xmlns="http://www.w3.org/2000/svg">
<path d="M16.0665 47.9987C16.0358 47.9767 16.0025 47.9469 15.9667 47.917C15.3958 47.2002 11.8641 42.7201 8.26586 36.9735C7.18549 35.1431 6.4853 33.7146 6.62099 33.3451C6.973 32.3846 13.2466 31.8583 15.1782 32.7294C15.7657 32.9938 15.7503 33.3426 15.7503 33.5474C15.7503 34.4263 15.7081 36.7856 15.7081 36.7856C15.7081 37.273 16.0985 37.6684 16.5811 37.6671C17.0637 37.6671 17.4528 37.2691 17.4515 36.7804L17.4426 30.9042H17.4413C17.4413 30.3934 16.8909 30.2664 16.7885 30.2457C15.7798 30.2392 13.733 30.234 11.5338 30.234C6.68243 30.234 5.59695 30.4362 4.77515 29.8892C2.98947 28.7069 0.0696689 20.7372 0.00182597 16.2519C-0.0941781 9.9259 3.60518 4.44896 8.81756 1.73577C10.9937 0.626121 13.4514 0 16.0499 0C24.2985 0 31.0931 6.30528 31.9968 14.4189C31.9968 14.4254 31.9968 14.4345 31.9981 14.441C32.1645 16.4023 21.4901 16.8184 19.3793 16.248C19.0554 16.1612 18.9735 15.8241 18.9735 15.6802C18.9722 14.1895 18.962 9.99201 18.962 9.99201C18.9607 9.5033 18.569 9.10922 18.0864 9.10922C17.6051 9.10922 17.2147 9.50718 17.2147 9.9959L17.2339 17.7271C17.2493 18.2145 17.6525 18.3455 17.7639 18.3688C18.9646 18.3688 21.7717 18.3675 24.3869 18.3675C27.9211 18.3675 29.406 18.7823 30.3942 19.5433C31.0508 20.0501 31.3043 21.0211 31.0828 22.2837C29.1 33.5098 16.5427 47.4205 16.0704 48L16.0665 47.9987Z" fill="#FC8019"/>
</svg>
